SplineFontDB: 3.2
FontName: metaball_font
FullName: metaball_font
FamilyName: Metaball
Weight: Regular
Copyright: 
Version: 0.0
ItalicAngle: 0
UnderlinePosition: 0
UnderlineWidth: 0
Ascent: 819
Descent: 205
InvalidEm: 0
LayerCount: 2
Layer: 0 0 "Back" 1
Layer: 1 0 "Fore" 0
HasVMetrics: 1
XUID: [1021 956 -1194666483 11279]
FSType: 0
OS2Version: 0
OS2_WeightWidthSlopeOnly: 0
OS2_UseTypoMetrics: 0
CreationTime: 1716296212
ModificationTime: 1716316945
PfmFamily: 17
TTFWeight: 400
TTFWidth: 5
LineGap: 0
VLineGap: 0
OS2TypoAscent: 700
OS2TypoAOffset: 0
OS2TypoDescent: 200
OS2TypoDOffset: 0
OS2TypoLinegap: 0
OS2WinAscent: 700
OS2WinAOffset: 0
OS2WinDescent: 200
OS2WinDOffset: 0
HheadAscent: 700
HheadAOffset: 0
HheadDescent: 200
HheadDOffset: 0
OS2CapHeight: 700
OS2XHeight: 500
OS2Vendor: 'PfEd'
Lookup: 4 0 1 "'liga' Standard Ligatures lookup 0" { "'liga' Standard Ligatures lookup 0 subtable"  } ['liga' ('DFLT' <'dflt' > ) ]
Lookup: 4 0 1 "'liga' Standard Ligatures in Latin lookup 0" { "'liga' Standard Ligatures in Latin lookup 0 subtable"  } ['liga' ('latn' <'dflt' > ) ]
MarkAttachClasses: 1
DEI: 91125
LangName: 1033
Encoding: ISO8859-1
UnicodeInterp: none
NameList: AGL For New Fonts
DisplaySize: -48
AntiAlias: 1
FitToEm: 0
WinInfo: 0 21 8
BeginPrivate: 0
EndPrivate
Grid
199.999969482 1331 m 0
 199.999969482 -717 l 1024
  Named: "advance"
-1024 934.599975586 m 0
 2048 934.599975586 l 1024
-1024 877.599975586 m 0
 2048 877.599975586 l 1024
EndSplineSet
TeXData: 1 0 0 184320 92160 61440 512000 1048576 61440 783286 444596 497025 792723 393216 433062 380633 303038 157286 324010 404750 52429 2506097 1059062 262144
BeginChars: 330 179

StartChar: .notdef
Encoding: 0 0 0
Width: 180
VWidth: 824
VStem: 0 135<17.8596 68 632 682.14>
LayerCount: 2
Fore
SplineSet
68 700 m 0
 31 700 0 669 0 632 c 2
 0 68 l 2
 0 31 31 0 68 0 c 0
 105 0 135 31 135 68 c 2
 135 632 l 2
 135 669 105 700 68 700 c 0
EndSplineSet
Validated: 9
EndChar

StartChar: exclamation
Encoding: 33 33 1
Width: 90
VWidth: 824
Flags: W
HStem: 0 45<0.0072937 44.992>
VStem: 0 45<0.0072937 44.992 90.0073 112 678 699.993>
LayerCount: 2
Fore
SplineSet
22 700 m 0
 10 700 0 690 0 678 c 2
 0 112 l 2
 0 100 10 90 22 90 c 0
 34 90 45 100 45 112 c 2
 45 678 l 2
 45 690 34 700 22 700 c 0
22 45 m 0
 10 45 0 34 0 22 c 0
 0 10 10 0 22 0 c 0
 34 0 45 10 45 22 c 0
 45 34 34 45 22 45 c 0
EndSplineSet
Validated: 9
EndChar

StartChar: double_quote
Encoding: 34 34 2
Width: 180
VWidth: 824
HStem: 500 200<2.99992e-07 45 90 135>
VStem: 0 45<500.007 522 678 699.993> 90 45<500.007 522 678 699.993>
LayerCount: 2
Fore
SplineSet
22 700 m 0
 10 700 0 690 0 678 c 2
 0 522 l 2
 0 510 10 500 22 500 c 0
 34 500 45 510 45 522 c 2
 45 678 l 2
 45 690 34 700 22 700 c 0
112 700 m 0
 100 700 90 690 90 678 c 1
 90 522 l 2
 90 510 100 500 112 500 c 0
 124 500 135 510 135 522 c 2
 135 678 l 2
 135 690 124 700 112 700 c 0
EndSplineSet
Validated: 9
EndChar

StartChar: hastag
Encoding: 35 35 3
Width: 315
VWidth: 824
Flags: W
HStem: 182 46<0.0072937 22 45 67.992 112.008 157.992 202.008 225 248 269.993> 272 46<0.0072937 22 45 67.992 112.008 157.992 202.008 225 248 269.993>
VStem: 68 44<0.0072937 22 160 181.971 228.029 271.971 318.029 340 478 499.993> 158 44<0.0072937 22 160 181.971 228.029 271.971 318.029 340 478 499.993>
LayerCount: 2
Fore
SplineSet
90 500 m 0
 78 500 68 490 68 478 c 2
 68 340 l 2
 68 328 57 318 45 318 c 2
 22 318 l 2
 10 318 0 307 0 295 c 0
 0 283 10 272 22 272 c 2
 45 272 l 2
 57 272 68 262 68 250 c 0
 68 238 57 228 45 228 c 2
 22 228 l 2
 10 228 0 217 0 205 c 0
 0 193 10 182 22 182 c 2
 45 182 l 2
 57 182 68 172 68 160 c 2
 68 22 l 2
 68 10 78 0 90 0 c 0
 102 0 112 10 112 22 c 2
 112 160 l 2
 112 172 123 182 135 182 c 0
 147 182 158 172 158 160 c 2
 158 22 l 2
 158 10 168 0 180 0 c 0
 192 0 202 10 202 22 c 2
 202 160 l 2
 202 172 213 182 225 182 c 2
 248 182 l 2
 260 182 270 193 270 205 c 0
 270 217 260 228 248 228 c 2
 225 228 l 2
 213 228 202 238 202 250 c 0
 202 262 213 272 225 272 c 2
 248 272 l 2
 260 272 270 283 270 295 c 0
 270 307 260 318 248 318 c 2
 225 318 l 2
 213 318 202 328 202 340 c 2
 202 478 l 2
 202 490 192 500 180 500 c 0
 168 500 158 490 158 478 c 2
 158 340 l 2
 158 328 147 318 135 318 c 0
 123 318 112 328 112 340 c 2
 112 478 l 2
 112 490 102 500 90 500 c 0
135 272 m 0
 147 272 158 262 158 250 c 0
 158 238 147 228 135 228 c 0
 123 228 112 238 112 250 c 0
 112 262 123 272 135 272 c 0
EndSplineSet
Validated: 9
EndChar

StartChar: dollar
Encoding: 36 36 4
Width: 270
VWidth: 824
Flags: W
HStem: 0 45<46.4053 89.9927 135.008 179.488> 432 46<46.4053 90 135 179.488> 655 45<46.4053 89.9927 135.008 179.488>
VStem: 0 45<46.4053 68 112 134.992 478.405 500 632 653.595> 90 45<-67.992 -45 -22 -0.0072937 45.008 68 410 431.993 478.007 500 632 654.992 700.007 722 745 767.992> 180 45<46.4053 68 410 431.595 565.008 588 632 653.595>
CounterMasks: 1 1c
LayerCount: 2
Fore
SplineSet
112 768 m 0
 100 768 90 757 90 745 c 2
 90 722 l 2
 90 710 80 700 68 700 c 0
 31 700 0 669 0 632 c 2
 0 500 l 2
 0 463 31 432 68 432 c 0
 80 432 90 422 90 410 c 2
 90 68 l 2
 90 56 80 45 68 45 c 0
 56 45 45 56 45 68 c 2
 45 112 l 2
 45 124 34 135 22 135 c 0
 10 135 0 124 0 112 c 2
 0 68 l 2
 0 31 31 0 68 0 c 0
 80 0 90 -10 90 -22 c 2
 90 -45 l 2
 90 -57 100 -68 112 -68 c 0
 124 -68 135 -57 135 -45 c 2
 135 -22 l 2
 135 -10 146 0 158 0 c 0
 195 0 225 31 225 68 c 2
 225 410 l 2
 225 447 195 478 158 478 c 0
 146 478 135 488 135 500 c 2
 135 632 l 2
 135 644 146 655 158 655 c 0
 170 655 180 644 180 632 c 2
 180 588 l 2
 180 576 190 565 202 565 c 0
 214 565 225 576 225 588 c 2
 225 632 l 2
 225 669 195 700 158 700 c 0
 146 700 135 710 135 722 c 2
 135 745 l 2
 135 757 124 768 112 768 c 0
68 655 m 0
 80 655 90 644 90 632 c 2
 90 500 l 2
 90 488 80 478 68 478 c 0
 56 478 45 488 45 500 c 2
 45 632 l 2
 45 644 56 655 68 655 c 0
158 432 m 0
 170 432 180 422 180 410 c 2
 180 68 l 2
 180 56 170 45 158 45 c 0
 146 45 135 56 135 68 c 2
 135 410 l 2
 135 422 146 432 158 432 c 0
EndSplineSet
Validated: 9
EndChar

StartChar: percent
Encoding: 37 37 5
Width: 180
VWidth: 824
HStem: 0 45<90.0073 134.992> 432 46<46.4053 89.4877> 655 45<0.0072937 44.992>
VStem: 0 45<0.0072937 22 410 431.595 655.008 699.993> 90 45<0.0072937 44.992 478.405 500 678 699.993>
LayerCount: 2
Fore
SplineSet
22 700 m 0
 10 700 0 690 0 678 c 0
 0 666 10 655 22 655 c 0
 34 655 45 666 45 678 c 0
 45 690 34 700 22 700 c 0
112 700 m 0
 100 700 90 690 90 678 c 2
 90 500 l 2
 90 488 80 478 68 478 c 0
 31 478 0 447 0 410 c 2
 0 22 l 2
 0 10 10 0 22 0 c 0
 34 0 45 10 45 22 c 2
 45 410 l 2
 45 422 56 432 68 432 c 0
 105 432 135 463 135 500 c 2
 135 678 l 2
 135 690 124 700 112 700 c 0
112 45 m 0
 100 45 90 34 90 22 c 0
 90 10 100 0 112 0 c 0
 124 0 135 10 135 22 c 0
 135 34 124 45 112 45 c 0
EndSplineSet
Validated: 9
EndChar

StartChar: ampersand
Encoding: 38 38 6
Width: 279
VWidth: 824
Flags: W
HStem: 0 45<46.4053 89.9927 135.008 179.488> 432 46<46.4053 90 135 179.488> 655 45<135.707 179.74>
VStem: 0 45<46.4053 68 410 431.595> 90 45<-67.992 -45 -22 -0.0072937 45.008 68 410 431.993 478.007 500 632 653.595> 180 45<46.4053 68 112 134.992 478.405 500 632 653.595>
CounterMasks: 1 1c
LayerCount: 2
Fore
SplineSet
158 700 m 0
 121 700 90 669 90 632 c 1
 90 500 l 2
 90 488 80 478 68 478 c 0
 31 478 0 447 0 410 c 2
 0 68 l 2
 0 31 31 0 68 0 c 0
 80 0 90 -10 90 -22 c 1
 90 -45 l 2
 90 -57 100 -68 112 -68 c 0
 124 -68 135 -57 135 -45 c 2
 135 -22 l 2
 135 -10 146 0 158 0 c 0
 195 0 225 31 225 68 c 2
 225 112 l 2
 225 124 214 135 202 135 c 0
 190 135 180 124 180 112 c 2
 180 68 l 2
 180 56 170 45 158 45 c 0
 146 45 135 56 135 68 c 2
 135 410 l 2
 135 422 146 432 158 432 c 0
 195 432 225 463 225 500 c 2
 225 632 l 2
 225 669 195 700 158 700 c 0
158 655 m 0
 170 655 180 644 180 632 c 2
 180 500 l 2
 180 488 170 478 158 478 c 0
 146 478 135 488 135 500 c 2
 135 632 l 2
 135 644 146 655 158 655 c 0
68 432 m 0
 80 432 90 422 90 410 c 1
 90 68 l 2
 90 56 80 45 68 45 c 0
 56 45 45 56 45 68 c 2
 45 410 l 2
 45 422 56 432 68 432 c 0
EndSplineSet
Validated: 9
EndChar

StartChar: single_quote
Encoding: 39 39 7
Width: 90
VWidth: 824
Flags: W
HStem: 500 200<2.99992e-07 45>
VStem: 0 45<500.007 522 678 699.993>
LayerCount: 2
Fore
SplineSet
22 700 m 0
 10 700 0 690 0 678 c 2
 0 522 l 2
 0 510 10 500 22 500 c 0
 34 500 45 510 45 522 c 2
 45 678 l 2
 45 690 34 700 22 700 c 0
EndSplineSet
Validated: 9
EndChar

StartChar: parentheses_open
Encoding: 40 40 8
Width: 180
VWidth: 824
Flags: W
HStem: -135 45<45.7027 89.7438> 790 45<45.7067 89.4481>
VStem: 0 45<-89.4877 -68 767 788.595> 90 45<-89.4877 -45.008 745.007 789.367>
LayerCount: 2
Fore
SplineSet
68 835 m 0
 31 835 0 804 0 767 c 2
 0 -68 l 2
 0 -105 31 -135 68 -135 c 0
 105 -135 135 -105 135 -68 c 1
 135 -56 124 -45 112 -45 c 0
 100 -45 90 -56 90 -68 c 0
 90 -80 80 -90 68 -90 c 0
 56 -90 45 -80 45 -68 c 2
 45 767 l 2
 45 779 56 790 68 790 c 0
 80 790 90 779 90 767 c 1
 90 755 100 745 112 745 c 0
 124 745 135 755 135 767 c 1
 135 768 135 769 135 770 c 0
 133 806 104 835 68 835 c 0
EndSplineSet
Validated: 9
EndChar

StartChar: parentheses_close
Encoding: 41 41 9
Width: 180
VWidth: 824
Flags: W
HStem: -135 45<45.7027 89.7438> 790 45<45.7067 89.7402>
VStem: 0 45<-89.4877 -45.008 745.007 789.488> 90 45<-89.4877 -68 767 788.595>
LayerCount: 2
Fore
SplineSet
68 835 m 0
 31 835 0 805 0 768 c 0
 0 767 l 0
 0 755 10 745 22 745 c 0
 34 745 45 755 45 767 c 1
 45 779 56 790 68 790 c 0
 80 790 90 779 90 767 c 2
 90 -68 l 2
 90 -80 80 -90 68 -90 c 0
 56 -90 45 -80 45 -68 c 1
 45 -56 34 -45 22 -45 c 0
 10 -45 0 -56 0 -68 c 0
 0 -105 31 -135 68 -135 c 0
 105 -135 135 -105 135 -68 c 2
 135 767 l 2
 135 804 105 835 68 835 c 0
EndSplineSet
Validated: 9
EndChar

StartChar: star
Encoding: 42 42 10
Width: 225
VWidth: 824
Flags: W
HStem: 578 44<0.0072937 22 45 67.9681 112.032 135 158 179.993>
VStem: 68 44<500.007 522 555 577.968 622.032 645 678 699.993>
LayerCount: 2
Fore
SplineSet
90 700 m 0
 78 700 68 690 68 678 c 1
 68 645 l 2
 68 633 57 622 45 622 c 2
 22 622 l 2
 10 622 0 612 0 600 c 0
 0 588 10 578 22 578 c 2
 45 578 l 2
 57 578 68 567 68 555 c 2
 68 522 l 2
 68 510 78 500 90 500 c 0
 102 500 112 510 112 522 c 1
 112 555 l 2
 112 567 123 578 135 578 c 2
 158 578 l 2
 170 578 180 588 180 600 c 0
 180 612 170 622 158 622 c 2
 135 622 l 2
 123 622 112 633 112 645 c 2
 112 678 l 2
 112 690 102 700 90 700 c 0
EndSplineSet
Validated: 9
EndChar

StartChar: plus
Encoding: 43 43 11
Width: 225
VWidth: 824
Flags: W
HStem: 228 44<0.0072937 22 45 67.9681 112.032 135 158 179.993>
VStem: 68 44<160.007 182 205 227.968 272.032 295 318 339.993>
LayerCount: 2
Fore
SplineSet
90 340 m 0
 78 340 68 330 68 318 c 1
 68 295 l 2
 68 283 57 272 45 272 c 2
 22 272 l 2
 10 272 0 262 0 250 c 0
 0 238 10 228 22 228 c 2
 45 228 l 2
 57 228 68 217 68 205 c 2
 68 182 l 2
 68 170 78 160 90 160 c 0
 102 160 112 170 112 182 c 1
 112 205 l 2
 112 217 123 228 135 228 c 2
 158 228 l 2
 170 228 180 238 180 250 c 0
 180 262 170 272 158 272 c 2
 135 272 l 2
 123 272 112 283 112 295 c 2
 112 318 l 2
 112 330 102 340 90 340 c 0
EndSplineSet
Validated: 9
EndChar

StartChar: comma
Encoding: 44 44 12
Width: 90
VWidth: 824
Flags: W
HStem: -100 200<2.99992e-07 45>
VStem: 0 45<-99.9927 -78 78 99.9927>
LayerCount: 2
Fore
SplineSet
22 100 m 0
 10 100 0 90 0 78 c 2
 0 -78 l 2
 0 -90 10 -100 22 -100 c 0
 34 -100 45 -90 45 -78 c 2
 45 78 l 2
 45 90 34 100 22 100 c 0
EndSplineSet
Validated: 9
EndChar

StartChar: minus
Encoding: 45 45 13
Width: 225
VWidth: 824
Flags: W
HStem: 228 44<0.0072937 22 158 179.993>
VStem: 0 180<228 272>
LayerCount: 2
Fore
SplineSet
22 272 m 2
 10 272 0 262 0 250 c 0
 0 238 10 228 22 228 c 2
 154 228 l 1
 155 228 157 228 158 228 c 0
 170 228 180 238 180 250 c 0
 180 262 170 272 158 272 c 0
 157 272 155 272 154 272 c 0
 22 272 l 2
EndSplineSet
Validated: 9
EndChar

StartChar: dot
Encoding: 46 46 14
Width: 90
VWidth: 824
Flags: W
HStem: 0 45<0.0072937 44.992>
VStem: 0 45<0.0072937 44.992>
LayerCount: 2
Fore
SplineSet
22 45 m 0
 10 45 0 34 0 22 c 0
 0 10 10 0 22 0 c 0
 34 0 45 10 45 22 c 0
 45 34 34 45 22 45 c 0
EndSplineSet
Validated: 9
EndChar

StartChar: slash
Encoding: 47 47 15
Width: 180
VWidth: 824
HStem: 432 46<46.4053 89.4877>
VStem: 0 45<0.0072937 22 410 431.595> 90 45<478.405 500 678 699.993>
LayerCount: 2
Fore
SplineSet
112 700 m 0
 100 700 90 690 90 678 c 2
 90 500 l 2
 90 488 80 478 68 478 c 0
 31 478 0 447 0 410 c 2
 0 22 l 2
 0 10 10 0 22 0 c 0
 34 0 45 10 45 22 c 2
 45 410 l 2
 45 422 56 432 68 432 c 0
 105 432 135 463 135 500 c 2
 135 678 l 2
 135 690 124 700 112 700 c 0
EndSplineSet
Validated: 9
EndChar

StartChar: zero
Encoding: 48 48 16
Width: 180
VWidth: 824
HStem: 0 45<45.7067 89.7402> 655 45<45.7067 89.7402>
VStem: 0 45<46.4053 68 632 653.595> 90 45<46.4053 68 632 653.595>
LayerCount: 2
Fore
SplineSet
68 700 m 0
 31 700 0 669 0 632 c 2
 0 68 l 2
 0 31 31 0 68 0 c 0
 105 0 135 31 135 68 c 2
 135 632 l 2
 135 669 105 700 68 700 c 0
68 655 m 0
 80 655 90 644 90 632 c 2
 90 68 l 2
 90 56 80 45 68 45 c 0
 56 45 45 56 45 68 c 2
 45 632 l 2
 45 644 56 655 68 655 c 0
EndSplineSet
Validated: 9
EndChar

StartChar: one
Encoding: 49 49 17
Width: 90
VWidth: 824
Flags: W
VStem: 0 45<0.0072937 22 678 699.993>
LayerCount: 2
Fore
SplineSet
22 700 m 0
 10 700 0 690 0 678 c 1
 0 22 l 2
 0 10 10 0 22 0 c 0
 34 0 45 10 45 22 c 2
 45 678 l 2
 45 690 34 700 22 700 c 0
EndSplineSet
Validated: 9
EndChar

StartChar: two
Encoding: 50 50 18
Width: 180
VWidth: 824
HStem: 0 45<46.4053 68 112 134.992> 432 46<46.4053 89.4877> 655 45<0.0072937 22 68 89.4877>
VStem: 0 45<46.4053 68 410 431.595> 90 45<478.405 500 632 653.595>
LayerCount: 2
Fore
SplineSet
22 700 m 2
 10 700 0 690 0 678 c 0
 0 666 10 655 22 655 c 2
 68 655 l 2
 80 655 90 644 90 632 c 2
 90 500 l 2
 90 488 80 478 68 478 c 0
 31 478 0 447 0 410 c 2
 0 68 l 2
 0 31 31 0 68 0 c 2
 112 0 l 2
 124 0 135 10 135 22 c 0
 135 34 124 45 112 45 c 2
 68 45 l 2
 56 45 45 56 45 68 c 2
 45 410 l 2
 45 422 56 432 68 432 c 0
 105 432 135 463 135 500 c 2
 135 632 l 2
 135 669 105 700 68 700 c 2
 22 700 l 2
EndSplineSet
Validated: 9
EndChar

StartChar: three
Encoding: 51 51 19
Width: 180
VWidth: 824
HStem: 0 45<0.0072937 22 68 89.4877> 432 46<0.0072937 22 68 90> 655 45<0.0072937 22 68 89.4877>
VStem: 90 45<46.4053 68 410 432 478 500 632 653.595>
LayerCount: 2
Fore
SplineSet
22 700 m 2
 10 700 0 690 0 678 c 0
 0 666 10 655 22 655 c 2
 68 655 l 2
 80 655 90 644 90 632 c 2
 90 500 l 2
 90 488 80 478 68 478 c 2
 22 478 l 2
 10 478 0 467 0 455 c 0
 0 443 10 432 22 432 c 2
 68 432 l 2
 80 432 90 422 90 410 c 2
 90 68 l 2
 90 56 80 45 68 45 c 2
 22 45 l 2
 10 45 0 34 0 22 c 0
 0 10 10 0 22 0 c 2
 68 0 l 2
 105 0 135 31 135 68 c 2
 135 632 l 2
 135 669 105 700 68 700 c 2
 22 700 l 2
EndSplineSet
Validated: 9
EndChar

StartChar: four
Encoding: 52 52 20
Width: 180
VWidth: 824
HStem: 432 46<46.4053 90>
VStem: 0 45<478.405 500 678 699.993> 90 45<0.0072937 22 410 432 478.007 500 678 699.993>
LayerCount: 2
Fore
SplineSet
22 700 m 0
 10 700 0 690 0 678 c 2
 0 500 l 2
 0 463 31 432 68 432 c 0
 80 432 90 422 90 410 c 2
 90 22 l 2
 90 10 100 0 112 0 c 0
 124 0 135 10 135 22 c 2
 135 678 l 2
 135 690 124 700 112 700 c 0
 100 700 90 690 90 678 c 2
 90 500 l 2
 90 488 80 478 68 478 c 0
 56 478 45 488 45 500 c 2
 45 678 l 2
 45 690 34 700 22 700 c 0
EndSplineSet
Validated: 9
EndChar

StartChar: five
Encoding: 53 53 21
Width: 180
VWidth: 824
HStem: 0 45<45.7067 89.7402> 432 46<46.4053 89.4877> 655 45<46.4053 68 112 134.992>
VStem: 0 45<46.4053 68 112 134.992 478.405 500 632 653.595> 90 45<46.4053 68 410 431.595>
LayerCount: 2
Fore
SplineSet
68 700 m 2
 31 700 0 669 0 632 c 2
 0 500 l 2
 0 463 31 432 68 432 c 0
 80 432 90 422 90 410 c 2
 90 68 l 2
 90 56 80 45 68 45 c 0
 56 45 45 56 45 68 c 2
 45 112 l 2
 45 124 34 135 22 135 c 0
 10 135 0 124 0 112 c 2
 0 68 l 2
 0 31 31 0 68 0 c 0
 105 0 135 31 135 68 c 2
 135 410 l 2
 135 447 105 478 68 478 c 0
 56 478 45 488 45 500 c 2
 45 632 l 2
 45 644 56 655 68 655 c 2
 112 655 l 2
 124 655 135 666 135 678 c 0
 135 690 124 700 112 700 c 2
 68 700 l 2
EndSplineSet
Validated: 9
EndChar

StartChar: six
Encoding: 54 54 22
Width: 180
VWidth: 824
HStem: 0 45<45.7067 89.7402> 432 46<45 89.4877> 655 45<45.7067 89.7402>
VStem: 0 45<46.4053 68 410 431.993 478.007 500 632 653.595> 90 45<46.4053 68 410 431.595 565.008 588 632 653.595>
LayerCount: 2
Fore
SplineSet
68 700 m 0
 31 700 0 669 0 632 c 2
 0 68 l 2
 0 31 31 0 68 0 c 0
 105 0 135 31 135 68 c 2
 135 410 l 2
 135 447 105 478 68 478 c 0
 56 478 45 488 45 500 c 2
 45 632 l 2
 45 644 56 655 68 655 c 0
 80 655 90 644 90 632 c 2
 90 588 l 2
 90 576 100 565 112 565 c 0
 124 565 135 576 135 588 c 2
 135 632 l 2
 135 669 105 700 68 700 c 0
68 432 m 0
 80 432 90 422 90 410 c 2
 90 68 l 2
 90 56 80 45 68 45 c 0
 56 45 45 56 45 68 c 2
 45 410 l 2
 45 422 56 432 68 432 c 0
EndSplineSet
Validated: 9
EndChar

StartChar: seven
Encoding: 55 55 23
Width: 180
VWidth: 824
HStem: 655 45<0.0072937 22 68 89.4877>
VStem: 90 45<0.0072937 22 632 653.595>
LayerCount: 2
Fore
SplineSet
22 700 m 2
 10 700 0 690 0 678 c 0
 0 666 10 655 22 655 c 2
 68 655 l 2
 80 655 90 644 90 632 c 2
 90 22 l 2
 90 10 100 0 112 0 c 0
 124 0 135 10 135 22 c 2
 135 632 l 2
 135 669 105 700 68 700 c 2
 22 700 l 2
EndSplineSet
Validated: 9
EndChar

StartChar: eight
Encoding: 56 56 24
Width: 180
VWidth: 824
HStem: 0 45<45.7067 89.7402> 432 46<45 90> 655 45<45.7067 89.7402>
VStem: 0 45<46.4053 68 410 431.993 478.007 500 632 653.595> 90 45<46.4053 68 410 431.993 478.007 500 632 653.595>
LayerCount: 2
Fore
SplineSet
68 700 m 0
 31 700 0 669 0 632 c 2
 0 68 l 2
 0 31 31 0 68 0 c 0
 105 0 135 31 135 68 c 2
 135 632 l 2
 135 669 105 700 68 700 c 0
68 655 m 0
 80 655 90 644 90 632 c 2
 90 500 l 2
 90 488 80 478 68 478 c 0
 56 478 45 488 45 500 c 2
 45 632 l 2
 45 644 56 655 68 655 c 0
68 432 m 0
 80 432 90 422 90 410 c 2
 90 68 l 2
 90 56 80 45 68 45 c 0
 56 45 45 56 45 68 c 2
 45 410 l 2
 45 422 56 432 68 432 c 0
EndSplineSet
Validated: 9
EndChar

StartChar: nine
Encoding: 57 57 25
Width: 180
VWidth: 824
HStem: 0 45<45.7067 89.7402> 432 46<46.4053 90> 655 45<45.7067 89.7402>
VStem: 0 45<46.4053 68 112 134.992 478.405 500 632 653.595> 90 45<46.4053 68 410 432 478.007 500 632 653.595>
LayerCount: 2
Fore
SplineSet
68 700 m 0
 31 700 0 669 0 632 c 2
 0 500 l 2
 0 463 31 432 68 432 c 0
 80 432 90 422 90 410 c 2
 90 68 l 2
 90 56 80 45 68 45 c 0
 56 45 45 56 45 68 c 2
 45 112 l 2
 45 124 34 135 22 135 c 0
 10 135 0 124 0 112 c 2
 0 68 l 2
 0 31 31 0 68 0 c 0
 105 0 135 31 135 68 c 2
 135 632 l 2
 135 669 105 700 68 700 c 0
68 655 m 0
 80 655 90 644 90 632 c 2
 90 500 l 2
 90 488 80 478 68 478 c 0
 56 478 45 488 45 500 c 2
 45 632 l 2
 45 644 56 655 68 655 c 0
EndSplineSet
Validated: 9
EndChar

StartChar: colon
Encoding: 58 58 26
Width: 90
VWidth: 824
Flags: W
HStem: 0 45<0.0072937 44.992> 228 44<0.0072937 44.992>
VStem: 0 45<0.0072937 44.992 228.007 271.993>
LayerCount: 2
Fore
SplineSet
22 272 m 0
 10 272 0 262 0 250 c 0
 0 238 10 228 22 228 c 0
 34 228 45 238 45 250 c 0
 45 262 34 272 22 272 c 0
22 45 m 0
 10 45 0 34 0 22 c 0
 0 10 10 0 22 0 c 0
 34 0 45 10 45 22 c 0
 45 34 34 45 22 45 c 0
EndSplineSet
Validated: 9
EndChar

StartChar: semicolon
Encoding: 59 59 27
Width: 90
VWidth: 824
Flags: W
HStem: 228 45<0.0072937 44.992>
VStem: 0 45<-99.992 -77 77 99.992 228.007 272.992>
LayerCount: 2
Fore
SplineSet
22 273 m 0
 10 273 0 262 0 250 c 0
 0 238 10 228 22 228 c 0
 34 228 45 238 45 250 c 0
 45 262 34 273 22 273 c 0
22 100 m 1
 10 100 0 89 0 77 c 1
 0 -78 l 2
 0 -90 10 -100 22 -100 c 0
 34 -100 45 -89 45 -77 c 1
 45 78 l 2
 45 90 34 100 22 100 c 1
EndSplineSet
Validated: 9
EndChar

StartChar: less_than
Encoding: 60 60 28
Width: 180
VWidth: 824
HStem: 92 46<46.4053 68 112 134.992> 272 46<46.4053 68 112 134.992>
VStem: 0 45<138.405 160 250 271.595>
LayerCount: 2
Fore
SplineSet
68 318 m 2
 31 318 0 287 0 250 c 2
 0 160 l 2
 0 123 31 92 68 92 c 2
 112 92 l 2
 124 92 135 103 135 115 c 0
 135 127 124 138 112 138 c 2
 68 138 l 2
 56 138 45 148 45 160 c 2
 45 250 l 2
 45 262 56 272 68 272 c 2
 112 272 l 2
 124 272 135 283 135 295 c 0
 135 307 124 318 112 318 c 2
 68 318 l 2
EndSplineSet
Validated: 9
EndChar

StartChar: equal
Encoding: 61 61 29
Width: 225
VWidth: 824
Flags: W
HStem: 182 46<0.0072937 22 158 179.993> 272 46<0.0072937 22 158 179.993>
VStem: 0 180<182 228 273.094 316.906>
LayerCount: 2
Fore
SplineSet
22 318 m 2
 10 318 0 307 0 295 c 0
 0 283 10 272 22 272 c 2
 156 272 l 1
 156 273 l 1
 157 273 157 272 158 272 c 0
 170 272 180 283 180 295 c 0
 180 307 170 318 158 318 c 0
 157 318 157 317 156 317 c 0
 156 318 l 1
 22 318 l 2
22 228 m 2
 10 228 0 217 0 205 c 0
 0 193 10 182 22 182 c 2
 158 182 l 2
 170 182 180 193 180 205 c 0
 180 217 170 228 158 228 c 2
 22 228 l 2
EndSplineSet
Validated: 9
EndChar

StartChar: greater_than
Encoding: 62 62 30
Width: 180
VWidth: 824
HStem: 92 46<0.0072937 22 68 89.4877> 272 46<0.0072937 22 68 89.4877>
VStem: 90 45<138.405 160 250 271.595>
LayerCount: 2
Fore
SplineSet
22 318 m 2
 10 318 0 307 0 295 c 0
 0 283 10 272 22 272 c 2
 68 272 l 2
 80 272 90 262 90 250 c 2
 90 160 l 2
 90 148 80 138 68 138 c 2
 22 138 l 2
 10 138 0 127 0 115 c 0
 0 103 10 92 22 92 c 2
 68 92 l 2
 105 92 135 123 135 160 c 2
 135 250 l 2
 135 287 105 318 68 318 c 2
 22 318 l 2
EndSplineSet
Validated: 9
EndChar

StartChar: question
Encoding: 63 63 31
Width: 180
VWidth: 824
HStem: 0 45<45.008 89.9927> 90 45<45.7067 89.7402> 432 46<46.4053 89.4877> 655 45<45.7067 89.7402>
VStem: 0 45<136.405 158 410 431.595 565.008 588 632 653.595> 45 45<0.0072937 44.992> 90 45<136.405 158 202 224.992 478.405 500 632 653.595>
LayerCount: 2
Fore
SplineSet
68 700 m 0xfa
 31 700 0 669 0 632 c 2
 0 588 l 2
 0 576 10 565 22 565 c 0
 34 565 45 576 45 588 c 2
 45 632 l 2
 45 644 56 655 68 655 c 0
 80 655 90 644 90 632 c 2
 90 500 l 2
 90 488 80 478 68 478 c 0
 31 478 0 447 0 410 c 2
 0 158 l 2
 0 121 31 90 68 90 c 0
 105 90 135 121 135 158 c 2
 135 202 l 2
 135 214 124 225 112 225 c 0
 100 225 90 214 90 202 c 2
 90 158 l 2
 90 146 80 135 68 135 c 0
 56 135 45 146 45 158 c 2
 45 410 l 2
 45 422 56 432 68 432 c 0
 105 432 135 463 135 500 c 2
 135 632 l 2
 135 669 105 700 68 700 c 0xfa
68 45 m 0
 56 45 45 34 45 22 c 0
 45 10 56 0 68 0 c 0
 80 0 90 10 90 22 c 0xf4
 90 34 80 45 68 45 c 0
EndSplineSet
Validated: 9
EndChar

StartChar: at
Encoding: 64 64 32
Width: 405
VWidth: 824
Flags: W
HStem: 0 45<46.4053 68 292 313.595> 114 45<136.405 180 225 269.488> 341 45<135.703 179.744> 455 45<46.4053 68 248 269.488>
VStem: 0 45<46.4053 68 432 453.595> 90 45<159.512 181 319 340.488> 180 45<159.007 181 319 340.488> 270 45<159.512 181 432 453.595> 315 45<46.4053 89.9927>
LayerCount: 2
Fore
SplineSet
68 500 m 2xff
 31 500 0 469 0 432 c 2
 0 68 l 2
 0 31 31 0 68 0 c 2
 292 0 l 2
 329 0 360 31 360 68 c 0
 360 80 350 90 338 90 c 0
 326 90 315 80 315 68 c 0xfe80
 315 56 304 45 292 45 c 2
 68 45 l 2
 56 45 45 56 45 68 c 2
 45 432 l 2
 45 444 56 455 68 455 c 2
 248 455 l 2
 260 455 270 444 270 432 c 2
 270 181 l 2
 270 169 260 159 248 159 c 0
 236 159 225 169 225 181 c 2
 225 319 l 2
 225 356 195 386 158 386 c 0
 121 386 90 356 90 319 c 2
 90 181 l 2
 90 144 121 114 158 114 c 2
 248 114 l 2
 285 114 315 144 315 181 c 2
 315 432 l 2
 315 469 285 500 248 500 c 2
 68 500 l 2xff
158 341 m 0
 170 341 180 331 180 319 c 2
 180 181 l 2
 180 169 170 159 158 159 c 0
 146 159 135 169 135 181 c 2
 135 319 l 2
 135 331 146 341 158 341 c 0
EndSplineSet
Validated: 9
EndChar

StartChar: A
Encoding: 65 65 33
Width: 180
VWidth: 824
HStem: 432 46<45 90> 655 45<45.7067 89.7402>
VStem: 0 45<0.0072937 22 410 431.993 478.007 500 632 653.595> 90 45<0.0072937 22 410 431.993 478.007 500 632 653.595>
LayerCount: 2
Fore
SplineSet
68 700 m 0
 31 700 0 669 0 632 c 2
 0 22 l 2
 0 10 10 0 22 0 c 0
 34 0 45 10 45 22 c 2
 45 410 l 2
 45 422 56 432 68 432 c 0
 80 432 90 422 90 410 c 2
 90 22 l 2
 90 10 100 0 112 0 c 0
 124 0 135 10 135 22 c 2
 135 632 l 2
 135 669 105 700 68 700 c 0
68 655 m 0
 80 655 90 644 90 632 c 2
 90 500 l 2
 90 488 80 478 68 478 c 0
 56 478 45 488 45 500 c 2
 45 632 l 2
 45 644 56 655 68 655 c 0
EndSplineSet
Validated: 9
EndChar

StartChar: B
Encoding: 66 66 34
Width: 180
VWidth: 824
HStem: 0 45<45.7067 89.7402> 432 46<45 90> 655 45<45.7067 89.7402>
VStem: 0 45<46.4053 68 410 431.993 478.007 500 632 653.595> 90 45<46.4053 68 410 431.993 478.007 500 632 653.595>
LayerCount: 2
Fore
SplineSet
68 700 m 0
 31 700 0 669 0 632 c 2
 0 68 l 2
 0 31 31 0 68 0 c 0
 105 0 135 31 135 68 c 2
 135 632 l 2
 135 669 105 700 68 700 c 0
68 655 m 0
 80 655 90 644 90 632 c 2
 90 500 l 2
 90 488 80 478 68 478 c 0
 56 478 45 488 45 500 c 2
 45 632 l 2
 45 644 56 655 68 655 c 0
68 432 m 0
 80 432 90 422 90 410 c 2
 90 68 l 2
 90 56 80 45 68 45 c 0
 56 45 45 56 45 68 c 2
 45 410 l 2
 45 422 56 432 68 432 c 0
EndSplineSet
Validated: 9
EndChar

StartChar: C
Encoding: 67 67 35
Width: 180
VWidth: 824
HStem: 0 45<45.7067 89.7402> 655 45<45.7067 89.7402>
VStem: 0 45<46.4053 68 632 653.595> 90 45<46.4053 68 112 134.992 565.008 588 632 653.595>
LayerCount: 2
Fore
SplineSet
68 700 m 0
 31 700 0 669 0 632 c 2
 0 68 l 2
 0 31 31 0 68 0 c 0
 105 0 135 31 135 68 c 2
 135 112 l 2
 135 124 124 135 112 135 c 0
 100 135 90 124 90 112 c 2
 90 68 l 2
 90 56 80 45 68 45 c 0
 56 45 45 56 45 68 c 2
 45 632 l 2
 45 644 56 655 68 655 c 0
 80 655 90 644 90 632 c 2
 90 588 l 2
 90 576 100 565 112 565 c 0
 124 565 135 576 135 588 c 2
 135 632 l 2
 135 669 105 700 68 700 c 0
EndSplineSet
Validated: 9
EndChar

StartChar: D
Encoding: 68 68 36
Width: 180
VWidth: 824
HStem: 0 45<45.7067 89.7402> 655 45<45.7067 89.7402>
VStem: 0 45<46.4053 68 632 653.595> 90 45<46.4053 68 632 653.595>
LayerCount: 2
Fore
SplineSet
68 700 m 0
 31 700 0 669 0 632 c 2
 0 68 l 2
 0 31 31 0 68 0 c 0
 105 0 135 31 135 68 c 2
 135 632 l 2
 135 669 105 700 68 700 c 0
68 655 m 0
 80 655 90 644 90 632 c 2
 90 68 l 2
 90 56 80 45 68 45 c 0
 56 45 45 56 45 68 c 2
 45 632 l 2
 45 644 56 655 68 655 c 0
EndSplineSet
Validated: 9
EndChar

StartChar: E
Encoding: 69 69 37
Width: 180
VWidth: 824
HStem: 0 45<46.4053 68 112 134.992> 433 45<45.008 111.993> 655 45<46.4053 68 112 134.992>
VStem: 0 112<433 478> 0 45<46.4053 68 410 431.993 478.007 653.595>
LayerCount: 2
Fore
SplineSet
68 700 m 1xf0
 31 700 0 669 0 632 c 1
 0 68 l 1
 45 68 l 1
 45 410 l 2xe8
 45 422 56 432 68 432 c 1
 68 433 l 1
 90 433 l 2
 102 433 112 443 112 455 c 0xf0
 112 467 102 478 90 478 c 1
 68 478 l 1
 56 478 45 488 45 500 c 2
 45 632 l 1
 45 633 l 2xe8
 45 645 56 655 68 655 c 1
 112 655 l 2
 124 655 135 666 135 678 c 0
 135 690 124 700 112 700 c 2
 68 700 l 1xf0
0 68 m 1
 0 31 31 0 68 0 c 0
 112 0 l 2
 124 0 135 10 135 22 c 0
 135 34 124 45 112 45 c 2xf0
 68 45 l 2
 56 45 45 56 45 68 c 1
 0 68 l 1
EndSplineSet
Validated: 5
EndChar

StartChar: F
Encoding: 70 70 38
Width: 180
VWidth: 824
HStem: 432 46<45 68 112 134.992> 655 45<46.4053 68 112 134.992>
VStem: 0 45<0.0072937 22 410 431.993 478.007 500 632 653.595>
LayerCount: 2
Fore
SplineSet
68 700 m 2
 31 700 0 669 0 632 c 2
 0 22 l 2
 0 10 10 0 22 0 c 0
 34 0 45 10 45 22 c 2
 45 410 l 2
 45 422 56 432 68 432 c 2
 112 432 l 2
 124 432 135 443 135 455 c 0
 135 467 124 478 112 478 c 2
 68 478 l 2
 56 478 45 488 45 500 c 2
 45 632 l 2
 45 644 56 655 68 655 c 2
 112 655 l 2
 124 655 135 666 135 678 c 0
 135 690 124 700 112 700 c 2
 68 700 l 2
EndSplineSet
Validated: 9
EndChar

StartChar: G
Encoding: 71 71 39
Width: 180
VWidth: 824
HStem: 0 45<45.7067 89.7402> 432 46<45 89.4877> 655 45<45.7067 89.7402>
VStem: 0 45<46.4053 68 410 431.993 478.007 500 632 653.595> 90 45<46.4053 68 410 431.595 565.008 588 632 653.595>
LayerCount: 2
Fore
SplineSet
68 700 m 0
 31 700 0 669 0 632 c 2
 0 68 l 2
 0 31 31 0 68 0 c 0
 105 0 135 31 135 68 c 2
 135 410 l 2
 135 447 105 478 68 478 c 0
 56 478 45 488 45 500 c 2
 45 632 l 2
 45 644 56 655 68 655 c 0
 80 655 90 644 90 632 c 2
 90 588 l 2
 90 576 100 565 112 565 c 0
 124 565 135 576 135 588 c 2
 135 632 l 2
 135 669 105 700 68 700 c 0
68 432 m 0
 80 432 90 422 90 410 c 2
 90 68 l 2
 90 56 80 45 68 45 c 0
 56 45 45 56 45 68 c 2
 45 410 l 2
 45 422 56 432 68 432 c 0
EndSplineSet
Validated: 9
EndChar

StartChar: H
Encoding: 72 72 40
Width: 180
VWidth: 824
HStem: 432 46<45 90>
VStem: 0 45<0.0072937 22 410 431.993 478.007 500 678 699.993> 90 45<0.0072937 22 410 431.993 478.007 500 678 699.993>
LayerCount: 2
Fore
SplineSet
22 700 m 0
 10 700 0 690 0 678 c 2
 0 22 l 2
 0 10 10 0 22 0 c 0
 34 0 45 10 45 22 c 2
 45 410 l 2
 45 422 56 432 68 432 c 0
 80 432 90 422 90 410 c 2
 90 22 l 2
 90 10 100 0 112 0 c 0
 124 0 135 10 135 22 c 2
 135 678 l 2
 135 690 124 700 112 700 c 0
 100 700 90 690 90 678 c 2
 90 500 l 2
 90 488 80 478 68 478 c 0
 56 478 45 488 45 500 c 2
 45 678 l 2
 45 690 34 700 22 700 c 0
EndSplineSet
Validated: 9
EndChar

StartChar: I
Encoding: 73 73 41
Width: 90
VWidth: 824
Flags: W
VStem: 0 45<0.0072937 22 678 699.993>
LayerCount: 2
Fore
SplineSet
22 700 m 0
 10 700 0 690 0 678 c 2
 0 22 l 2
 0 10 10 0 22 0 c 0
 34 0 45 10 45 22 c 2
 45 678 l 2
 45 690 34 700 22 700 c 0
EndSplineSet
Validated: 9
EndChar

StartChar: J
Encoding: 74 74 42
Width: 180
VWidth: 824
HStem: 0 45<45.7067 89.7402>
VStem: 0 45<46.4053 68 112 134.992> 90 45<46.4053 68 678 699.993>
LayerCount: 2
Fore
SplineSet
112 700 m 0
 100 700 90 690 90 678 c 2
 90 68 l 2
 90 56 80 45 68 45 c 0
 56 45 45 56 45 68 c 2
 45 112 l 2
 45 124 34 135 22 135 c 0
 10 135 0 124 0 112 c 2
 0 68 l 2
 0 31 31 0 68 0 c 0
 105 0 135 31 135 68 c 2
 135 678 l 2
 135 690 124 700 112 700 c 0
EndSplineSet
Validated: 9
EndChar

StartChar: K
Encoding: 75 75 43
Width: 180
VWidth: 824
HStem: 342 46<45.008 89.4877> 432 46<45.008 89.4877>
VStem: 0 45<0.0072937 22 320 341.993 388.007 431.993 478.007 500 678 699.993> 90 45<0.0072937 22 320 341.595 478.405 500 678 699.993>
LayerCount: 2
Fore
SplineSet
22 700 m 0
 10 700 0 690 0 678 c 2
 0 22 l 2
 0 10 10 0 22 0 c 0
 34 0 45 10 45 22 c 2
 45 320 l 2
 45 332 56 342 68 342 c 0
 80 342 90 332 90 320 c 2
 90 22 l 2
 90 10 100 0 112 0 c 0
 124 0 135 10 135 22 c 2
 135 320 l 2
 135 357 105 388 68 388 c 0
 56 388 45 398 45 410 c 0
 45 422 56 432 68 432 c 0
 105 432 135 463 135 500 c 2
 135 678 l 2
 135 690 124 700 112 700 c 0
 100 700 90 690 90 678 c 2
 90 500 l 2
 90 488 80 478 68 478 c 0
 56 478 45 488 45 500 c 2
 45 678 l 2
 45 690 34 700 22 700 c 0
EndSplineSet
Validated: 9
EndChar

StartChar: L
Encoding: 76 76 44
Width: 180
VWidth: 824
HStem: 0 45<46.4053 68 112 134.992>
VStem: 0 45<46.4053 68 678 699.993>
LayerCount: 2
Fore
SplineSet
22 700 m 0
 10 700 0 690 0 678 c 2
 0 68 l 2
 0 31 31 0 68 0 c 2
 112 0 l 2
 124 0 135 10 135 22 c 0
 135 34 124 45 112 45 c 2
 68 45 l 2
 56 45 45 56 45 68 c 2
 45 678 l 2
 45 690 34 700 22 700 c 0
EndSplineSet
Validated: 9
EndChar

StartChar: M
Encoding: 77 77 45
Width: 360
VWidth: 824
Flags: W
HStem: 155 45<135.703 179.744> 655 45<45.7067 89.7402 225.707 269.74>
VStem: 0 45<0.0072937 22 632 653.595> 90 45<200.512 222 632 653.595> 180 45<200.512 222 632 653.595> 270 45<0.0072937 22 632 653.595>
LayerCount: 2
Fore
SplineSet
68 700 m 0
 31 700 0 669 0 632 c 2
 0 22 l 2
 0 10 10 0 22 0 c 0
 34 0 45 10 45 22 c 2
 45 632 l 2
 45 644 56 655 68 655 c 0
 80 655 90 644 90 632 c 2
 90 222 l 2
 90 185 121 155 158 155 c 0
 195 155 225 185 225 222 c 2
 225 632 l 2
 225 644 236 655 248 655 c 0
 260 655 270 644 270 632 c 2
 270 22 l 2
 270 10 280 0 292 0 c 0
 304 0 315 10 315 22 c 2
 315 632 l 2
 315 669 285 700 248 700 c 0
 211 700 180 669 180 632 c 2
 180 222 l 2
 180 210 170 200 158 200 c 0
 146 200 135 210 135 222 c 2
 135 632 l 2
 135 669 105 700 68 700 c 0
EndSplineSet
Validated: 9
EndChar

StartChar: N
Encoding: 78 78 46
Width: 270
VWidth: 824
Flags: W
HStem: 0 45<135.707 179.74> 655 45<45.7067 89.7402>
VStem: 0 45<0.0072937 22 632 653.595> 90 45<46.4053 68 632 653.595> 180 45<46.4053 68 678 699.993>
CounterMasks: 1 38
LayerCount: 2
Fore
SplineSet
68 700 m 0
 31 700 0 669 0 632 c 1
 0 22 l 2
 0 10 10 0 22 0 c 0
 34 0 45 10 45 22 c 1
 45 632 l 2
 45 644 56 655 68 655 c 0
 80 655 90 644 90 632 c 2
 90 68 l 2
 90 31 121 0 158 0 c 0
 195 0 225 31 225 68 c 2
 225 678 l 2
 225 690 214 700 202 700 c 0
 190 700 180 690 180 678 c 2
 180 68 l 2
 180 56 170 45 158 45 c 0
 146 45 135 56 135 68 c 2
 135 632 l 2
 135 669 105 700 68 700 c 0
EndSplineSet
Validated: 9
EndChar

StartChar: O
Encoding: 79 79 47
Width: 180
VWidth: 824
HStem: 0 45<45.7067 89.7402> 655 45<45.7067 89.7402>
VStem: 0 45<46.4053 68 632 653.595> 90 45<46.4053 68 632 653.595>
LayerCount: 2
Fore
SplineSet
68 700 m 0
 31 700 0 669 0 632 c 2
 0 68 l 2
 0 31 31 0 68 0 c 0
 105 0 135 31 135 68 c 2
 135 632 l 2
 135 669 105 700 68 700 c 0
68 655 m 0
 80 655 90 644 90 632 c 1
 90 68 l 2
 90 56 80 45 68 45 c 0
 56 45 45 56 45 68 c 2
 45 632 l 2
 45 644 56 655 68 655 c 0
EndSplineSet
Validated: 9
EndChar

StartChar: P
Encoding: 80 80 48
Width: 180
VWidth: 824
HStem: 432 46<45 89.4877> 655 45<45.7067 89.7402>
VStem: 0 45<0.0072937 22 410 431.993 478.007 500 632 653.595> 90 45<478.405 500 632 653.595>
LayerCount: 2
Fore
SplineSet
68 700 m 0
 31 700 0 669 0 632 c 2
 0 22 l 2
 0 10 10 0 22 0 c 0
 34 0 45 10 45 22 c 2
 45 410 l 2
 45 422 56 432 68 432 c 0
 105 432 135 463 135 500 c 2
 135 632 l 2
 135 669 105 700 68 700 c 0
68 655 m 0
 80 655 90 644 90 632 c 1
 90 500 l 2
 90 488 80 478 68 478 c 0
 56 478 45 488 45 500 c 2
 45 632 l 2
 45 644 56 655 68 655 c 0
EndSplineSet
Validated: 9
EndChar

StartChar: Q
Encoding: 81 81 49
Width: 180
VWidth: 824
HStem: -45 45<90.0073 134.992> 0 45<45.7067 89.7402> 655 45<45.7067 89.7402>
VStem: 0 45<46.4053 68 632 653.595> 90 45<-44.992 -0.0072937 46.4053 68 632 653.595>
LayerCount: 2
Fore
SplineSet
68 700 m 0x78
 31 700 0 669 0 632 c 2
 0 68 l 2
 0 31 31 0 68 0 c 0
 105 0 135 31 135 68 c 2
 135 632 l 2
 135 669 105 700 68 700 c 0x78
68 655 m 0
 80 655 90 644 90 632 c 1
 90 68 l 2
 90 56 80 45 68 45 c 0
 56 45 45 56 45 68 c 2
 45 632 l 2
 45 644 56 655 68 655 c 0
112 0 m 0xb8
 100 0 90 -10 90 -22 c 0
 90 -34 100 -45 112 -45 c 0
 124 -45 135 -34 135 -22 c 0
 135 -10 124 0 112 0 c 0xb8
EndSplineSet
Validated: 9
EndChar

StartChar: R
Encoding: 82 82 50
Width: 180
VWidth: 824
HStem: 342 45<45.008 89.4877> 432 45<45.008 89.4877> 655 45<45.7067 89.7402>
VStem: 0 45<0.0072937 22 320 341.993 387.008 431.993 477.008 500 632 653.595> 90 45<0.0072937 22 320 341.488 478.405 500 632 653.595>
LayerCount: 2
Fore
SplineSet
68 700 m 0
 31 700 0 669 0 632 c 1
 0 22 l 2
 0 10 10 0 22 0 c 0
 34 0 45 10 45 22 c 2
 45 320 l 2
 45 332 56 342 68 342 c 0
 80 342 90 332 90 320 c 2
 90 22 l 2
 90 10 100 0 112 0 c 0
 124 0 135 10 135 22 c 2
 135 320 l 2
 135 357 105 387 68 387 c 0
 56 387 45 398 45 410 c 0
 45 422 56 432 68 432 c 0
 105 432 135 463 135 500 c 1
 90 500 l 1
 90 488 80 477 68 477 c 0
 56 477 45 488 45 500 c 1
 45 632 l 1
 45 644 56 655 68 655 c 0
 80 655 90 644 90 632 c 2
 90 500 l 1
 135 500 l 1
 135 632 l 2
 135 669 105 700 68 700 c 0
EndSplineSet
Validated: 5
EndChar

StartChar: S
Encoding: 83 83 51
Width: 180
VWidth: 824
HStem: 0 45<45.7067 89.7402> 432 46<46.4053 89.4877> 655 45<45.7067 89.7402>
VStem: 0 45<46.4053 68 112 134.992 478.405 500 632 653.595> 90 45<46.4053 68 410 431.595 565.008 588 632 653.595>
LayerCount: 2
Fore
SplineSet
68 700 m 0
 31 700 0 669 0 632 c 1
 0 500 l 2
 0 463 31 432 68 432 c 0
 80 432 90 422 90 410 c 2
 90 68 l 2
 90 56 80 45 68 45 c 0
 56 45 45 56 45 68 c 2
 45 112 l 2
 45 124 34 135 22 135 c 0
 10 135 0 124 0 112 c 1
 0 68 l 2
 0 31 31 0 68 0 c 0
 105 0 135 31 135 68 c 1
 135 410 l 2
 135 447 105 478 68 478 c 0
 56 478 45 488 45 500 c 2
 45 632 l 2
 45 644 56 655 68 655 c 0
 80 655 90 644 90 632 c 2
 90 588 l 2
 90 576 100 565 112 565 c 0
 124 565 135 576 135 588 c 2
 135 632 l 2
 135 669 105 700 68 700 c 0
EndSplineSet
Validated: 9
EndChar

StartChar: T
Encoding: 84 84 52
Width: 180
VWidth: 824
HStem: 655 45<0.0072937 44.992 90.0073 134.992>
VStem: 45 45<0.0072937 22 632 654.992>
LayerCount: 2
Fore
SplineSet
22 700 m 2
 10 700 0 690 0 678 c 0
 0 666 10 655 22 655 c 0
 34 655 45 644 45 632 c 2
 45 22 l 2
 45 10 56 0 68 0 c 0
 80 0 90 10 90 22 c 2
 90 632 l 2
 90 644 100 655 112 655 c 0
 124 655 135 666 135 678 c 0
 135 690 124 700 112 700 c 2
 22 700 l 2
EndSplineSet
Validated: 9
EndChar

StartChar: U
Encoding: 85 85 53
Width: 180
VWidth: 824
HStem: 0 45<45.7067 89.7402>
VStem: 0 45<46.4053 68 678 699.993> 90 45<46.4053 68 678 699.993>
LayerCount: 2
Fore
SplineSet
22 700 m 0
 10 700 0 690 0 678 c 2
 0 68 l 2
 0 31 31 0 68 0 c 0
 105 0 135 31 135 68 c 2
 135 678 l 2
 135 690 124 700 112 700 c 0
 100 700 90 690 90 678 c 1
 90 68 l 2
 90 56 80 45 68 45 c 0
 56 45 45 56 45 68 c 2
 45 678 l 2
 45 690 34 700 22 700 c 0
EndSplineSet
Validated: 9
EndChar

StartChar: V
Encoding: 86 86 54
Width: 180
VWidth: 824
HStem: 0 45<45.7067 89.7402>
VStem: 0 45<46.4053 68 678 699.993> 90 45<46.4053 68 678 699.993>
LayerCount: 2
Fore
SplineSet
22 700 m 0
 10 700 0 690 0 678 c 2
 0 68 l 2
 0 31 31 0 68 0 c 0
 105 0 135 31 135 68 c 2
 135 678 l 2
 135 690 124 700 112 700 c 0
 100 700 90 690 90 678 c 1
 90 68 l 2
 90 56 80 45 68 45 c 0
 56 45 45 56 45 68 c 2
 45 678 l 2
 45 690 34 700 22 700 c 0
EndSplineSet
Validated: 9
EndChar

StartChar: W
Encoding: 87 87 55
Width: 360
VWidth: 824
Flags: W
HStem: 0 45<45.7067 89.7402 225.707 269.74> 500 45<135.703 179.744>
VStem: 0 45<46.4053 68 678 699.993> 90 45<46.4053 68 478 499.488> 180 45<46.4053 68 478 499.488> 270 45<46.4053 68 678 699.993>
LayerCount: 2
Fore
SplineSet
22 700 m 0
 10 700 0 690 0 678 c 2
 0 68 l 2
 0 31 31 0 68 0 c 0
 105 0 135 31 135 68 c 2
 135 478 l 2
 135 490 146 500 158 500 c 0
 170 500 180 490 180 478 c 2
 180 68 l 2
 180 31 211 0 248 0 c 0
 285 0 315 31 315 68 c 2
 315 678 l 2
 315 690 304 700 292 700 c 0
 280 700 270 690 270 678 c 2
 270 68 l 2
 270 56 260 45 248 45 c 0
 236 45 225 56 225 68 c 2
 225 478 l 2
 225 515 195 545 158 545 c 0
 121 545 90 515 90 478 c 2
 90 68 l 2
 90 56 80 45 68 45 c 0
 56 45 45 56 45 68 c 2
 45 678 l 2
 45 690 34 700 22 700 c 0
EndSplineSet
Validated: 9
EndChar

StartChar: X
Encoding: 88 88 56
Width: 180
VWidth: 824
HStem: 342 46<45.7027 89.7438> 432 46<45.7027 89.7438>
VStem: 0 45<0.0072937 22 320 341.595 478.405 500 678 699.993> 90 45<0.0072937 22 320 341.595 478.405 500 678 699.993>
LayerCount: 2
Fore
SplineSet
22 700 m 0
 10 700 0 690 0 678 c 2
 0 500 l 2
 0 463 31 432 68 432 c 0
 105 432 135 463 135 500 c 2
 135 678 l 2
 135 690 124 700 112 700 c 0
 100 700 90 690 90 678 c 2
 90 500 l 2
 90 488 80 478 68 478 c 0
 56 478 45 488 45 500 c 2
 45 678 l 2
 45 690 34 700 22 700 c 0
68 388 m 0
 31 388 0 357 0 320 c 2
 0 22 l 2
 0 10 10 0 22 0 c 0
 34 0 45 10 45 22 c 2
 45 320 l 2
 45 332 56 342 68 342 c 0
 80 342 90 332 90 320 c 2
 90 22 l 2
 90 10 100 0 112 0 c 0
 124 0 135 10 135 22 c 2
 135 320 l 2
 135 357 105 388 68 388 c 0
EndSplineSet
Validated: 9
EndChar

StartChar: Y
Encoding: 89 89 57
Width: 180
VWidth: 824
HStem: 432 46<45 88.5947>
VStem: 0 45<0.0072937 22 410 432 478.007 500 678 699.993> 90 45<478.405 500 678 699.993>
LayerCount: 2
Fore
SplineSet
22 700 m 0
 10 700 0 690 0 678 c 2
 0 22 l 2
 0 10 10 0 22 0 c 0
 34 0 45 10 45 22 c 2
 45 410 l 2
 45 422 55 432 67 432 c 0
 104 432 135 463 135 500 c 1
 135 678 l 2
 135 690 124 700 112 700 c 0
 100 700 90 690 90 678 c 2
 90 500 l 1
 90 488 79 478 67 478 c 0
 55 478 45 488 45 500 c 1
 45 678 l 2
 45 690 34 700 22 700 c 0
EndSplineSet
Validated: 9
EndChar

StartChar: Z
Encoding: 90 90 58
Width: 180
VWidth: 824
HStem: 0 45<46.4053 68 112 134.992> 432 46<46.4053 89.4877> 655 45<0.0072937 22 68 89.4877>
VStem: 0 45<46.4053 68 410 431.595> 90 45<478.405 500 632 653.595>
LayerCount: 2
Fore
SplineSet
22 700 m 2
 10 700 0 690 0 678 c 0
 0 666 10 655 22 655 c 0
 68 655 l 2
 80 655 90 644 90 632 c 2
 90 500 l 2
 90 488 80 478 68 478 c 0
 31 478 0 447 0 410 c 1
 0 68 l 2
 0 31 31 0 68 0 c 0
 112 0 l 2
 124 0 135 10 135 22 c 0
 135 34 124 45 112 45 c 2
 68 45 l 2
 56 45 45 56 45 68 c 2
 45 410 l 2
 45 422 56 432 68 432 c 0
 105 432 135 463 135 500 c 1
 135 632 l 2
 135 669 105 700 68 700 c 1
 22 700 l 2
EndSplineSet
Validated: 9
EndChar

StartChar: bracket_open
Encoding: 91 91 59
Width: 180
VWidth: 824
HStem: -45 45<46.4053 68 112 134.992> 700 45<46.4053 68 112 134.992>
VStem: 0 45<0.512341 22 678 699.488>
LayerCount: 2
Fore
SplineSet
68 745 m 2
 31 745 0 715 0 678 c 2
 0 22 l 2
 0 -15 31 -45 68 -45 c 2
 112 -45 l 2
 124 -45 135 -34 135 -22 c 0
 135 -10 124 0 112 0 c 2
 68 0 l 2
 56 0 45 10 45 22 c 2
 45 678 l 2
 45 690 56 700 68 700 c 2
 112 700 l 2
 124 700 135 710 135 722 c 0
 135 734 124 745 112 745 c 2
 68 745 l 2
EndSplineSet
Validated: 9
EndChar

StartChar: backslash
Encoding: 92 92 60
Width: 180
VWidth: 824
HStem: 432 46<46.4053 89.4877>
VStem: 0 45<478.405 500 678 699.993> 90 45<0.0072937 22 410 431.595>
LayerCount: 2
Fore
SplineSet
22 700 m 0
 10 700 0 690 0 678 c 2
 0 500 l 2
 0 463 31 432 68 432 c 0
 80 432 90 422 90 410 c 2
 90 22 l 2
 90 10 100 0 112 0 c 0
 124 0 135 10 135 22 c 2
 135 410 l 2
 135 447 105 478 68 478 c 0
 56 478 45 488 45 500 c 2
 45 678 l 2
 45 690 34 700 22 700 c 0
EndSplineSet
Validated: 9
EndChar

StartChar: bracket_close
Encoding: 93 93 61
Width: 180
VWidth: 824
HStem: -45 45<0.0072937 22 68 89.4877> 700 45<0.0072937 22 68 89.4877>
VStem: 90 45<0.512341 22 678 699.488>
LayerCount: 2
Fore
SplineSet
22 745 m 2
 10 745 0 734 0 722 c 0
 0 710 10 700 22 700 c 2
 68 700 l 2
 80 700 90 690 90 678 c 2
 90 22 l 2
 90 10 80 0 68 0 c 2
 22 0 l 2
 10 0 0 -10 0 -22 c 0
 0 -34 10 -45 22 -45 c 2
 68 -45 l 2
 105 -45 135 -15 135 22 c 2
 135 678 l 2
 135 715 105 745 68 745 c 2
 22 745 l 2
EndSplineSet
Validated: 9
EndChar

StartChar: power
Encoding: 94 94 62
Width: 180
VWidth: 824
HStem: 655 45<45.7067 89.7402>
VStem: 0 45<565.008 588 632 653.595> 90 45<565.008 588 632 653.595>
LayerCount: 2
Fore
SplineSet
68 700 m 0
 31 700 0 669 0 632 c 2
 0 588 l 2
 0 576 10 565 22 565 c 0
 34 565 45 576 45 588 c 2
 45 632 l 2
 45 644 56 655 68 655 c 0
 80 655 90 644 90 632 c 2
 90 588 l 2
 90 576 100 565 112 565 c 0
 124 565 135 576 135 588 c 2
 135 632 l 2
 135 669 105 700 68 700 c 0
EndSplineSet
Validated: 9
EndChar

StartChar: underscore
Encoding: 95 95 63
Width: 225
VWidth: 824
Flags: W
HStem: -45 45<0.0072937 22 158 179.993>
VStem: 0 180<-45 -2.99992e-07>
LayerCount: 2
Fore
SplineSet
22 0 m 2
 10 0 0 -10 0 -22 c 0
 0 -34 10 -45 22 -45 c 2
 154 -45 l 1
 155 -45 157 -45 158 -45 c 0
 170 -45 180 -34 180 -22 c 0
 180 -10 170 0 158 0 c 0
 157 0 155 0 154 -0 c 0
 22 0 l 2
EndSplineSet
Validated: 9
EndChar

StartChar: accent
Encoding: 96 96 64
Width: 90
VWidth: 824
Flags: W
HStem: 565 135<0.0072937 44.992>
VStem: 0 45<565.008 588 678 699.993>
LayerCount: 2
Fore
SplineSet
22 700 m 0
 10 700 0 690 0 678 c 2
 0 588 l 2
 0 576 10 565 22 565 c 0
 34 565 45 576 45 588 c 2
 45 678 l 2
 45 690 34 700 22 700 c 0
EndSplineSet
Validated: 9
EndChar

StartChar: a
Encoding: 97 97 65
Width: 180
VWidth: 824
HStem: 0 45<45.7067 89.7402> 228 44<46.4053 89.9709> 455 45<45.7067 89.7402>
VStem: 0 45<46.4053 68 205 226.488 318.007 340 432 453.595> 90 45<46.4053 68 205 227.992 272 295 432 453.595>
CounterMasks: 1 e0
LayerCount: 2
Fore
SplineSet
68 500 m 0
 31 500 0 469 0 432 c 2
 0 340 l 2
 0 328 10 318 22 318 c 0
 34 318 45 328 45 340 c 2
 45 432 l 2
 45 444 56 455 68 455 c 0
 80 455 90 444 90 432 c 2
 90 295 l 2
 90 283 80 272 68 272 c 0
 31 272 0 242 0 205 c 2
 0 68 l 2
 0 31 31 0 68 0 c 0
 105 0 135 31 135 68 c 2
 135 432 l 2
 135 469 105 500 68 500 c 0
68 228 m 0
 80 228 90 217 90 205 c 2
 90 68 l 2
 90 56 80 45 68 45 c 0
 56 45 45 56 45 68 c 2
 45 205 l 2
 45 217 56 228 68 228 c 0
EndSplineSet
Validated: 9
EndChar

StartChar: b
Encoding: 98 98 66
Width: 180
VWidth: 824
HStem: 0 45<45.7067 89.7402> 455 45<45.008 89.4877>
VStem: 0 45<46.4053 68 432 454.992 500.007 522 678 699.993> 90 45<46.4053 68 432 453.595>
LayerCount: 2
Fore
SplineSet
22 700 m 0
 10 700 0 690 0 678 c 2
 0 68 l 2
 0 31 31 0 68 0 c 0
 105 0 135 31 135 68 c 2
 135 432 l 2
 135 469 105 500 68 500 c 0
 56 500 45 510 45 522 c 2
 45 678 l 2
 45 690 34 700 22 700 c 0
68 455 m 0
 80 455 90 444 90 432 c 2
 90 68 l 2
 90 56 80 45 68 45 c 0
 56 45 45 56 45 68 c 2
 45 432 l 2
 45 444 56 455 68 455 c 0
EndSplineSet
Validated: 9
EndChar

StartChar: c
Encoding: 99 99 67
Width: 180
VWidth: 824
HStem: 0 45<45.7067 89.7402> 455 45<45.7067 89.7402>
VStem: 0 45<46.4053 68 432 453.595> 90 45<46.4053 68 112 134.992 365.008 388 432 453.595>
LayerCount: 2
Fore
SplineSet
68 500 m 0
 31 500 0 469 0 432 c 2
 0 68 l 2
 0 31 31 0 68 0 c 0
 105 0 135 31 135 68 c 2
 135 112 l 2
 135 124 124 135 112 135 c 0
 100 135 90 124 90 112 c 2
 90 68 l 2
 90 56 80 45 68 45 c 0
 56 45 45 56 45 68 c 2
 45 432 l 2
 45 444 56 455 68 455 c 0
 80 455 90 444 90 432 c 2
 90 388 l 2
 90 376 100 365 112 365 c 0
 124 365 135 376 135 388 c 2
 135 432 l 2
 135 469 105 500 68 500 c 0
EndSplineSet
Validated: 9
EndChar

StartChar: d
Encoding: 100 100 68
Width: 180
VWidth: 824
HStem: 0 45<45.7067 89.7402> 455 45<46.4053 89.9927>
VStem: 0 45<46.4053 68 432 453.595> 90 45<46.4053 68 432 454.992 500 522 678 699.993>
LayerCount: 2
Fore
SplineSet
112 700 m 0
 100 700 90 690 90 678 c 1
 90 522 l 2
 90 510 80 500 68 500 c 0
 31 500 0 469 0 432 c 1
 0 68 l 2
 0 31 31 0 68 0 c 0
 105 0 135 31 135 68 c 1
 135 678 l 2
 135 690 124 700 112 700 c 0
68 455 m 0
 80 455 90 444 90 432 c 2
 90 68 l 2
 90 56 80 45 68 45 c 0
 56 45 45 56 45 68 c 1
 45 432 l 2
 45 444 56 455 68 455 c 0
EndSplineSet
Validated: 9
EndChar

StartChar: e
Encoding: 101 101 69
Width: 180
VWidth: 824
HStem: 0 45<45.7067 89.7402> 228 44<45.0319 89.4877> 455 45<45.7067 89.7402>
VStem: 0 45<46.4053 68 205 227.992 272.008 295 432 453.595> 90 45<46.4053 68 160 181.993 273.512 295 432 453.595>
CounterMasks: 1 e0
LayerCount: 2
Fore
SplineSet
68 500 m 0
 31 500 0 469 0 432 c 2
 0 68 l 2
 0 31 31 0 68 0 c 0
 105 0 135 31 135 68 c 2
 135 160 l 2
 135 172 124 182 112 182 c 0
 100 182 90 172 90 160 c 2
 90 68 l 2
 90 56 80 45 68 45 c 0
 56 45 45 56 45 68 c 2
 45 205 l 2
 45 217 56 228 68 228 c 0
 105 228 135 258 135 295 c 2
 135 432 l 2
 135 469 105 500 68 500 c 0
68 455 m 0
 80 455 90 444 90 432 c 2
 90 295 l 2
 90 283 80 272 68 272 c 0
 56 272 45 283 45 295 c 2
 45 432 l 2
 45 444 56 455 68 455 c 0
EndSplineSet
Validated: 9
EndChar

StartChar: f
Encoding: 102 102 70
Width: 90
VWidth: 824
Flags: HW
HStem: 500 45<-44.992 -0.0072937 45.008 68 90 111.993> 655 45<45.7067 89.7402>
VStem: 0 45<0.0072937 22 478 499.993 545.008 568 632 653.595> 90 45<588.007 610 632 653.595>
LayerCount: 2
Fore
SplineSet
68 700 m 0
 31 700 0 669 0 632 c 2
 0 568 l 2
 0 556 -10 545 -22 545 c 0
 -34 545 -45 534 -45 522 c 0
 -45 510 -34 500 -22 500 c 0
 -10 500 0 490 0 478 c 2
 0 22 l 2
 0 10 10 0 22 0 c 0
 34 0 45 10 45 22 c 2
 45 478 l 2
 45 490 56.1383031919 500 68 500 c 2
 68 500 l 2
 80 500 90 510 90 522 c 0
 90 534 80 545 68 545 c 1
 68 545 l 2
 56.1383031919 545 45 556 45 568 c 2
 45 632 l 2
 45 644 56 655 68 655 c 0
 80 655 90 644 90 632 c 2
 90 610 l 2
 90 598 100 588 112 588 c 0
 124 588 135 598 135 610 c 2
 135 632 l 2
 135 669 105 700 68 700 c 0
EndSplineSet
EndChar

StartChar: g
Encoding: 103 103 71
Width: 180
VWidth: 824
HStem: -200 45<45.7067 89.7402> 0 45<46.4053 89.9927> 455 45<45.7067 89.7402>
VStem: 0 45<-153.595 -132 -88 -65.008 46.4053 68 432 453.595> 90 45<-153.595 -132 -22 -2.99992e-07 45.008 68 432 453.595>
LayerCount: 2
Fore
SplineSet
68 500 m 0
 31 500 0 469 0 432 c 2
 0 68 l 2
 0 31 31 0 68 0 c 0
 80 0 90 -10 90 -22 c 2
 90 -132 l 2
 90 -144 80 -155 68 -155 c 0
 56 -155 45 -144 45 -132 c 2
 45 -88 l 2
 45 -76 34 -65 22 -65 c 0
 10 -65 0 -76 0 -88 c 2
 0 -132 l 2
 0 -169 31 -200 68 -200 c 0
 105 -200 135 -169 135 -132 c 2
 135 432 l 2
 135 469 105 500 68 500 c 0
68 455 m 0
 80 455 90 444 90 432 c 2
 90 68 l 2
 90 56 80 45 68 45 c 0
 56 45 45 56 45 68 c 2
 45 432 l 2
 45 444 56 455 68 455 c 0
EndSplineSet
Validated: 9
EndChar

StartChar: h
Encoding: 104 104 72
Width: 180
VWidth: 824
HStem: 455 45<45.008 89.4877>
VStem: 0 45<0.0072937 22 432 454.992 500.007 522 678 699.993> 90 45<0.0072937 22 432 453.595>
LayerCount: 2
Fore
SplineSet
22 700 m 0
 10 700 0 690 0 678 c 2
 0 22 l 2
 0 10 10 0 22 0 c 0
 34 0 45 10 45 22 c 2
 45 432 l 2
 45 444 56 455 68 455 c 0
 80 455 90 444 90 432 c 2
 90 22 l 2
 90 10 100 0 112 0 c 0
 124 0 135 10 135 22 c 2
 135 432 l 2
 135 469 105 500 68 500 c 0
 56 500 45 510 45 522 c 2
 45 678 l 2
 45 690 34 700 22 700 c 0
EndSplineSet
Validated: 9
EndChar

StartChar: i
Encoding: 105 105 73
Width: 90
VWidth: 824
Flags: W
HStem: 545 45<0.0072937 44.992>
VStem: 0 45<0.0072937 22 478 499.993 545.008 589.993>
LayerCount: 2
Fore
SplineSet
22 590 m 0
 10 590 0 580 0 568 c 0
 0 556 10 545 22 545 c 0
 34 545 45 556 45 568 c 0
 45 580 34 590 22 590 c 0
22 500 m 0
 10 500 0 490 0 478 c 2
 0 22 l 2
 0 10 10 0 22 0 c 0
 34 0 45 10 45 22 c 1
 45 478 l 2
 45 490 34 500 22 500 c 0
EndSplineSet
Validated: 9
EndChar

StartChar: j
Encoding: 106 106 74
Width: 90
VWidth: 824
Flags: W
HStem: -200 45<-44.2933 -0.259817> 545 45<0.0072937 44.992>
VStem: -90 45<-153.595 -132 -88 -65.008> 0 45<-153.595 -132 478 499.993 545.008 589.993>
LayerCount: 2
Fore
SplineSet
22 590 m 0
 10 590 0 580 0 568 c 0
 0 556 10 545 22 545 c 0
 34 545 45 556 45 568 c 0
 45 580 34 590 22 590 c 0
22 500 m 0
 10 500 0 490 0 478 c 2
 0 -132 l 2
 0 -144 -10 -155 -22 -155 c 0
 -34 -155 -45 -144 -45 -132 c 2
 -45 -88 l 2
 -45 -76 -56 -65 -68 -65 c 0
 -80 -65 -90 -76 -90 -88 c 2
 -90 -132 l 2
 -90 -169 -59 -200 -22 -200 c 0
 15 -200 45 -169 45 -132 c 2
 45 478 l 2
 45 490 34 500 22 500 c 0
EndSplineSet
Validated: 9
EndChar

StartChar: k
Encoding: 107 107 75
Width: 180
VWidth: 824
HStem: 228 44<45.0319 89.4877> 318 44<45.0319 89.4877>
VStem: 0 45<0.0072937 22 205 227.992 272.008 317.992 362.008 385 678 699.993> 90 45<0.0072937 22 205 226.488 363.512 385 478 499.993>
LayerCount: 2
Fore
SplineSet
22 700 m 0
 10 700 0 690 0 678 c 2
 0 22 l 2
 0 10 10 0 22 0 c 0
 34 0 45 10 45 22 c 2
 45 205 l 2
 45 217 56 228 68 228 c 0
 80 228 90 217 90 205 c 2
 90 22 l 2
 90 10 100 0 112 0 c 0
 124 0 135 10 135 22 c 2
 135 205 l 2
 135 242 105 272 68 272 c 0
 56 272 45 283 45 295 c 0
 45 307 56 318 68 318 c 0
 105 318 135 348 135 385 c 2
 135 478 l 2
 135 490 124 500 112 500 c 0
 100 500 90 490 90 478 c 2
 90 385 l 2
 90 373 80 362 68 362 c 0
 56 362 45 373 45 385 c 2
 45 678 l 2
 45 690 34 700 22 700 c 0
EndSplineSet
Validated: 9
EndChar

StartChar: l
Encoding: 108 108 76
Width: 90
VWidth: 824
Flags: W
VStem: 0 45<0.0072937 22 678 699.993>
LayerCount: 2
Fore
SplineSet
22 700 m 0
 10 700 0 690 0 678 c 2
 0 22 l 2
 0 10 10 0 22 0 c 0
 34 0 45 10 45 22 c 2
 45 678 l 2
 45 690 34 700 22 700 c 0
EndSplineSet
Validated: 9
EndChar

StartChar: m
Encoding: 109 109 77
Width: 270
VWidth: 824
Flags: W
HStem: 455 45<46.4053 89.9927 135.008 179.488>
VStem: 0 45<0.0072937 22 432 453.595> 90 45<0.0072937 22 432 454.992> 180 45<0.0072937 22 432 453.595>
CounterMasks: 1 70
LayerCount: 2
Fore
SplineSet
68 500 m 2
 31 500 0 469 0 432 c 2
 0 22 l 2
 0 10 10 0 22 0 c 0
 34 0 45 10 45 22 c 2
 45 432 l 2
 45 444 56 455 68 455 c 0
 80 455 90 444 90 432 c 2
 90 22 l 2
 90 10 100 0 112 0 c 0
 124 0 135 10 135 22 c 2
 135 432 l 2
 135 444 146 455 158 455 c 0
 170 455 180 444 180 432 c 2
 180 22 l 2
 180 10 190 0 202 0 c 0
 214 0 225 10 225 22 c 2
 225 432 l 2
 225 469 195 500 158 500 c 2
 68 500 l 2
EndSplineSet
Validated: 9
EndChar

StartChar: n
Encoding: 110 110 78
Width: 180
VWidth: 824
HStem: 455 45<45.7067 89.7402>
VStem: 0 45<0.0072937 22 432 453.595> 90 45<0.0072937 22 432 453.595>
LayerCount: 2
Fore
SplineSet
68 500 m 0
 31 500 0 469 0 432 c 2
 0 22 l 2
 0 10 10 0 22 0 c 0
 34 0 45 10 45 22 c 2
 45 432 l 2
 45 444 56 455 68 455 c 0
 80 455 90 444 90 432 c 2
 90 22 l 2
 90 10 100 0 112 0 c 0
 124 0 135 10 135 22 c 2
 135 432 l 2
 135 469 105 500 68 500 c 0
EndSplineSet
Validated: 9
EndChar

StartChar: o
Encoding: 111 111 79
Width: 180
VWidth: 824
HStem: -0 45<45.7067 89.7402> 455 45<45.7067 89.7402>
VStem: 0 45<46.4053 68 432 453.595> 90 45<46.4053 68 432 453.595>
LayerCount: 2
Fore
SplineSet
68 500 m 0
 31 500 0 469 0 432 c 2
 0 68 l 2
 0 31 31 0 68 -0 c 0
 105 0 135 31 135 68 c 2
 135 432 l 2
 135 469 105 500 68 500 c 0
68 455 m 0
 80 455 90 444 90 432 c 2
 90 68 l 2
 90 56 80 45 68 45 c 0
 56 45 45 56 45 68 c 2
 45 432 l 2
 45 444 56 455 68 455 c 0
EndSplineSet
Validated: 9
EndChar

StartChar: p
Encoding: 112 112 80
Width: 180
VWidth: 824
HStem: -0 45<45.008 89.4877> 455 45<45.7067 89.7402>
VStem: 0 45<-199.993 -178 -22 -0.0072937 45.008 68 432 453.595> 90 45<46.4053 68 432 453.595>
LayerCount: 2
Fore
SplineSet
68 500 m 0
 31 500 0 469 0 432 c 2
 0 -178 l 2
 0 -190 10 -200 22 -200 c 0
 34 -200 45 -190 45 -178 c 2
 45 -22 l 2
 45 -10 56 0 68 -0 c 0
 105 0 135 31 135 68 c 2
 135 432 l 2
 135 469 105 500 68 500 c 0
68 455 m 0
 80 455 90 444 90 432 c 2
 90 68 l 2
 90 56 80 45 68 45 c 0
 56 45 45 56 45 68 c 2
 45 432 l 2
 45 444 56 455 68 455 c 0
EndSplineSet
Validated: 9
EndChar

StartChar: q
Encoding: 113 113 81
Width: 180
VWidth: 824
HStem: -0 45<46.4053 89.9927> 455 45<45.7067 89.7402>
VStem: 0 45<46.4053 68 432 453.595> 90 45<-199.993 -178 -22 -2.99992e-07 45.008 68 432 453.595>
LayerCount: 2
Fore
SplineSet
68 500 m 0
 31 500 0 469 0 432 c 2
 0 68 l 2
 0 31 31 0 68 -0 c 0
 80 0 90 -10 90 -22 c 2
 90 -178 l 2
 90 -190 100 -200 112 -200 c 0
 124 -200 135 -190 135 -178 c 2
 135 432 l 2
 135 469 105 500 68 500 c 0
68 455 m 0
 80 455 90 444 90 432 c 2
 90 68 l 2
 90 56 80 45 68 45 c 0
 56 45 45 56 45 68 c 2
 45 432 l 2
 45 444 56 455 68 455 c 0
EndSplineSet
Validated: 9
EndChar

StartChar: r
Encoding: 114 114 82
Width: 135
VWidth: 824
Flags: W
HStem: 455 45<46.4053 89.9927>
VStem: 0 45<0.0072937 22 432 453.595>
LayerCount: 2
Fore
SplineSet
68 500 m 0
 31 500 0 469 0 432 c 2
 0 22 l 2
 0 10 10 0 22 0 c 0
 34 0 45 10 45 22 c 2
 45 432 l 2
 45 444 56 455 68 455 c 0
 80 455 90 466 90 478 c 0
 90 490 80 500 68 500 c 0
EndSplineSet
Validated: 9
EndChar

StartChar: s
Encoding: 115 115 83
Width: 180
VWidth: 824
HStem: 0 45<45.7067 89.7402> 275 45<46.4053 89.4877> 455 45<45.7067 89.7402>
VStem: 0 45<46.4053 68 208 229.993 320.512 342 432 453.595> 90 45<46.4053 68 252 273.595 365.008 388 432 453.595>
LayerCount: 2
Fore
SplineSet
68 500 m 0
 31 500 0 469 0 432 c 2
 0 342 l 2
 0 305 31 275 68 275 c 0
 80 275 90 264 90 252 c 2
 90 68 l 2
 90 56 80 45 68 45 c 0
 56 45 45 56 45 68 c 2
 45 208 l 2
 45 220 34 230 22 230 c 0
 10 230 0 220 0 208 c 2
 0 68 l 2
 0 31 31 0 68 0 c 0
 105 0 135 31 135 68 c 2
 135 252 l 2
 135 289 105 320 68 320 c 0
 56 320 45 330 45 342 c 2
 45 432 l 2
 45 444 56 455 68 455 c 0
 80 455 90 444 90 432 c 2
 90 388 l 2
 90 376 100 365 112 365 c 0
 124 365 135 376 135 388 c 2
 135 432 l 2
 135 469 105 500 68 500 c 0
EndSplineSet
Validated: 9
EndChar

StartChar: t
Encoding: 116 116 84
Width: 90
VWidth: 824
Flags: W
HStem: 500 45<-44.992 -0.0072937 45.008 89.9927>
VStem: 0 45<0.0072937 22 478 499.993 545.008 568 678 699.993>
LayerCount: 2
Fore
SplineSet
22 700 m 0
 10 700 0 690 0 678 c 2
 0 568 l 2
 0 556 -10 545 -22 545 c 0
 -34 545 -45 534 -45 522 c 0
 -45 510 -34 500 -22 500 c 0
 -10 500 0 490 0 478 c 2
 0 22 l 2
 0 10 10 0 22 0 c 0
 34 0 45 10 45 22 c 2
 45 478 l 2
 45 490 56 500 68 500 c 0
 80 500 90 510 90 522 c 0
 90 534 80 545 68 545 c 0
 56 545 45 556 45 568 c 2
 45 678 l 2
 45 690 34 700 22 700 c 0
EndSplineSet
Validated: 9
EndChar

StartChar: u
Encoding: 117 117 85
Width: 180
VWidth: 824
HStem: -0 45<45.7067 89.7402>
VStem: 0 45<46.4053 68 478 499.993> 90 45<46.4053 68 478 499.993>
LayerCount: 2
Fore
SplineSet
22 500 m 0
 10 500 0 490 0 478 c 2
 0 68 l 2
 0 31 31 0 68 -0 c 0
 105 0 135 31 135 68 c 2
 135 478 l 2
 135 490 124 500 112 500 c 0
 100 500 90 490 90 478 c 1
 90 68 l 2
 90 56 80 45 68 45 c 0
 56 45 45 56 45 68 c 2
 45 478 l 2
 45 490 34 500 22 500 c 0
EndSplineSet
Validated: 9
EndChar

StartChar: v
Encoding: 118 118 86
Width: 180
VWidth: 824
HStem: -0 45<45.7067 89.7402>
VStem: 0 45<46.4053 68 478 499.993> 90 45<46.4053 68 478 499.993>
LayerCount: 2
Fore
SplineSet
22 500 m 0
 10 500 0 490 0 478 c 2
 0 68 l 2
 0 31 31 0 68 -0 c 0
 105 0 135 31 135 68 c 2
 135 478 l 2
 135 490 124 500 112 500 c 0
 100 500 90 490 90 478 c 1
 90 68 l 2
 90 56 80 45 68 45 c 0
 56 45 45 56 45 68 c 2
 45 478 l 2
 45 490 34 500 22 500 c 0
EndSplineSet
Validated: 9
EndChar

StartChar: w
Encoding: 119 119 87
Width: 270
VWidth: 824
Flags: W
HStem: 0 45<46.4053 89.9927 135.008 179.488>
VStem: 0 45<46.4053 68 478 499.993> 90 45<45.008 68 478 499.993> 180 45<46.4053 68 478 499.993>
CounterMasks: 1 70
LayerCount: 2
Fore
SplineSet
22 500 m 0
 10 500 0 490 0 478 c 2
 0 68 l 2
 0 31 31 0 68 0 c 2
 158 0 l 2
 195 0 225 31 225 68 c 2
 225 478 l 2
 225 490 214 500 202 500 c 0
 190 500 180 490 180 478 c 2
 180 68 l 2
 180 56 170 45 158 45 c 0
 146 45 135 56 135 68 c 2
 135 478 l 2
 135 490 124 500 112 500 c 0
 100 500 90 490 90 478 c 2
 90 68 l 2
 90 56 80 45 68 45 c 0
 56 45 45 56 45 68 c 2
 45 478 l 2
 45 490 34 500 22 500 c 0
EndSplineSet
Validated: 9
EndChar

StartChar: x
Encoding: 120 120 88
Width: 180
VWidth: 824
HStem: 182 46<45.7027 89.7438> 272 46<45.7027 89.7438>
VStem: 0 45<0.0072937 22 160 181.595 318.405 340 478 499.993> 90 45<0.0072937 22 160 181.595 318.405 340 478 499.993>
LayerCount: 2
Fore
SplineSet
22 500 m 0
 10 500 0 490 0 478 c 2
 0 340 l 2
 0 303 31 272 68 272 c 0
 105 272 135 303 135 340 c 2
 135 478 l 2
 135 490 124 500 112 500 c 0
 100 500 90 490 90 478 c 2
 90 340 l 2
 90 328 80 318 68 318 c 0
 56 318 45 328 45 340 c 2
 45 478 l 2
 45 490 34 500 22 500 c 0
68 228 m 0
 31 228 0 197 0 160 c 2
 0 22 l 2
 0 10 10 0 22 0 c 0
 34 0 45 10 45 22 c 2
 45 160 l 2
 45 172 56 182 68 182 c 0
 80 182 90 172 90 160 c 2
 90 22 l 2
 90 10 100 0 112 0 c 0
 124 0 135 10 135 22 c 2
 135 160 l 2
 135 197 105 228 68 228 c 0
EndSplineSet
Validated: 9
EndChar

StartChar: y
Encoding: 121 121 89
Width: 180
VWidth: 824
HStem: 0 45<46.4053 89.9927>
VStem: 0 45<46.4053 68 478 499.993> 90 45<-199.993 -178 -22 -2.99992e-07 45.008 68 478 499.993>
LayerCount: 2
Fore
SplineSet
22 500 m 0
 10 500 0 490 0 478 c 1
 0 68 l 2
 0 31 31 0 68 0 c 0
 80 0 90 -10 90 -22 c 2
 90 -178 l 2
 90 -190 100 -200 112 -200 c 0
 124 -200 135 -190 135 -178 c 2
 135 478 l 2
 135 490 124 500 112 500 c 0
 100 500 90 490 90 478 c 1
 90 68 l 2
 90 56 80 45 68 45 c 0
 56 45 45 56 45 68 c 2
 45 478 l 2
 45 490 34 500 22 500 c 0
EndSplineSet
Validated: 9
EndChar

StartChar: z
Encoding: 122 122 90
Width: 180
VWidth: 824
HStem: 0 45<46.4053 68 112 134.992> 275 45<46.4053 89.4877> 455 45<0.0072937 22 68 89.4877>
VStem: 0 45<46.4053 68 252 273.595> 90 45<320.512 342 432 453.595>
LayerCount: 2
Fore
SplineSet
22 500 m 2
 10 500 0 490 0 478 c 0
 0 466 10 455 22 455 c 2
 68 455 l 2
 80 455 90 444 90 432 c 2
 90 342 l 2
 90 330 80 320 68 320 c 0
 31 320 0 289 0 252 c 1
 0 68 l 2
 0 31 31 0 68 0 c 0
 112 0 l 2
 124 0 135 10 135 22 c 0
 135 34 124 45 112 45 c 2
 68 45 l 2
 56 45 45 56 45 68 c 1
 45 252 l 2
 45 264 56 275 68 275 c 0
 105 275 135 305 135 342 c 1
 135 432 l 2
 135 469 105 500 68 500 c 1
 22 500 l 2
EndSplineSet
Validated: 9
EndChar

StartChar: braces_open
Encoding: 123 123 91
Width: 225
VWidth: 824
Flags: W
HStem: -45 45<90.0073 112 158 179.993> 327 45<0.0072937 44.992> 700 45<90.5123 112 158 179.993>
VStem: 0 90<327 372> 45 45<0.512341 22 305 326.993 372.008 698.595>
LayerCount: 2
Fore
SplineSet
112 745 m 1xe8
 75 745 45 714 45 677 c 1
 45 395 l 2xe8
 45 383 34 372 22 372 c 0
 10 372 0 362 0 350 c 0xf0
 0 338 10 327 22 327 c 0
 34 327 45 317 45 305 c 1
 45 22 l 1
 90 22 l 1
 90 677 l 1
 90 678 l 2
 90 690 100 700 112 700 c 0
 158 700 l 2
 170 700 180 710 180 722 c 0
 180 734 170 745 158 745 c 2
 112 745 l 1xe8
45 22 m 1
 45 -15 75 -45 112 -45 c 0
 158 -45 l 2
 170 -45 180 -34 180 -22 c 0
 180 -10 170 0 158 0 c 2
 112 0 l 1
 100 0 90 10 90 22 c 1
 45 22 l 1
EndSplineSet
Validated: 5
EndChar

StartChar: or
Encoding: 124 124 92
Width: 90
VWidth: 824
Flags: W
VStem: 0 45<-89.9927 -68 768 789.993>
LayerCount: 2
Fore
SplineSet
22 790 m 0
 10 790 0 780 0 768 c 2
 0 -68 l 2
 0 -80 10 -90 22 -90 c 0
 34 -90 45 -80 45 -68 c 2
 45 768 l 2
 45 780 34 790 22 790 c 0
EndSplineSet
Validated: 9
EndChar

StartChar: braces_close
Encoding: 125 125 93
Width: 225
VWidth: 824
Flags: W
HStem: -45 45<0.0072937 22 68 89.4877> 328 44<135.032 179.993> 700 45<0.0072937 22 68 89.4877>
VStem: 90 90<328 372> 90 45<0.512341 22 305 327.992 372.008 395 678 699.488>
CounterMasks: 1 e0
LayerCount: 2
Fore
SplineSet
22 745 m 2xe8
 10 745 0 734 0 722 c 0
 0 710 10 700 22 700 c 2
 68 700 l 2
 80 700 90 690 90 678 c 2
 90 22 l 2
 90 10 80 0 68 0 c 2
 22 0 l 2
 10 0 0 -10 0 -22 c 0
 0 -34 10 -45 22 -45 c 2
 68 -45 l 2
 105 -45 135 -15 135 22 c 2
 135 305 l 2xe8
 135 317 146 328 158 328 c 0
 170 328 180 338 180 350 c 0xf0
 180 362 170 372 158 372 c 0
 146 372 135 383 135 395 c 2
 135 678 l 2
 135 715 105 745 68 745 c 2
 22 745 l 2xe8
EndSplineSet
Validated: 9
EndChar

StartChar: snake
Encoding: 126 126 94
Width: 270
VWidth: 824
Flags: W
HStem: 182 46<135.703 179.744> 272 46<45.7027 89.7438>
VStem: 0 45<205.008 228 250 271.595> 90 45<228.405 271.595> 180 45<228.405 250 272 294.992>
CounterMasks: 1 38
LayerCount: 2
Fore
SplineSet
68 318 m 0
 31 318 0 287 0 250 c 2
 0 228 l 2
 0 216 10 205 22 205 c 0
 34 205 45 216 45 228 c 2
 45 250 l 2
 45 262 56 272 68 272 c 0
 80 272 90 262 90 250 c 0
 90 213 121 182 158 182 c 0
 195 182 225 213 225 250 c 2
 225 272 l 2
 225 284 214 295 202 295 c 0
 190 295 180 284 180 272 c 2
 180 250 l 2
 180 238 170 228 158 228 c 0
 146 228 135 238 135 250 c 0
 135 287 105 318 68 318 c 0
EndSplineSet
Validated: 9
EndChar

StartChar: degree
Encoding: 176 176 95
Width: 180
VWidth: 824
HStem: 565 45<45.7067 89.7402> 655 45<45.7067 89.7402>
VStem: 0 45<610.26 654.293> 90 45<610.26 654.293>
LayerCount: 2
Fore
SplineSet
68 700 m 0
 31 700 0 669 0 632 c 0
 0 595 31 565 68 565 c 0
 105 565 135 595 135 632 c 0
 135 669 105 700 68 700 c 0
68 655 m 0
 80 655 90 644 90 632 c 0
 90 620 80 610 68 610 c 0
 56 610 45 620 45 632 c 0
 45 644 56 655 68 655 c 0
EndSplineSet
Validated: 9
EndChar

StartChar: "+AOQA"
Encoding: 228 228 96
Width: 180
VWidth: 824
HStem: 0 45<45.7067 89.7402> 228 44<46.4053 89.9709> 455 45<45.7067 89.7402> 545 45<0.0072937 44.992 90.0073 134.992>
VStem: 0 45<46.4053 68 205 226.488 365.008 388 432 453.595 545.008 589.993> 90 45<46.4053 68 205 227.992 272 295 432 453.595 545.008 589.993>
LayerCount: 2
Fore
SplineSet
22 590 m 0
 10 590 0 580 0 568 c 0
 0 556 10 545 22 545 c 0
 34 545 45 556 45 568 c 0
 45 580 34 590 22 590 c 0
112 590 m 0
 100 590 90 580 90 568 c 0
 90 556 100 545 112 545 c 0
 124 545 135 556 135 568 c 0
 135 580 124 590 112 590 c 0
68 500 m 0
 31 500 0 469 0 432 c 2
 0 388 l 2
 0 376 10 365 22 365 c 0
 34 365 45 376 45 388 c 2
 45 432 l 2
 45 444 56 455 68 455 c 0
 80 455 90 444 90 432 c 2
 90 295 l 2
 90 283 80 272 68 272 c 0
 31 272 0 242 0 205 c 2
 0 68 l 2
 0 31 31 0 68 0 c 0
 105 0 135 31 135 68 c 2
 135 432 l 2
 135 469 105 500 68 500 c 0
68 228 m 0
 80 228 90 217 90 205 c 2
 90 68 l 2
 90 56 80 45 68 45 c 0
 56 45 45 56 45 68 c 2
 45 205 l 2
 45 217 56 228 68 228 c 0
EndSplineSet
Validated: 521
EndChar

StartChar: "+APYA"
Encoding: 246 246 97
Width: 180
VWidth: 824
HStem: 0 45<45.7067 89.7402> 455 45<45.7067 89.7402> 545 45<0.0072937 44.992 90.0073 134.992>
VStem: 0 45<46.4053 68 432 453.595 545.008 589.993> 90 45<46.4053 68 432 453.595 545.008 589.993>
LayerCount: 2
Fore
SplineSet
22 590 m 0
 10 590 0 580 0 568 c 0
 0 556 10 545 22 545 c 0
 34 545 45 556 45 568 c 0
 45 580 34 590 22 590 c 0
112 590 m 0
 100 590 90 580 90 568 c 0
 90 556 100 545 112 545 c 0
 124 545 135 556 135 568 c 0
 135 580 124 590 112 590 c 0
68 500 m 0
 31 500 0 469 0 432 c 2
 0 68 l 2
 0 31 31 0 68 0 c 0
 105 0 135 31 135 68 c 2
 135 432 l 2
 135 469 105 500 68 500 c 0
68 455 m 0
 80 455 90 444 90 432 c 2
 90 68 l 2
 90 56 80 45 68 45 c 0
 56 45 45 56 45 68 c 2
 45 432 l 2
 45 444 56 455 68 455 c 0
EndSplineSet
Validated: 521
EndChar

StartChar: "+APwA"
Encoding: 252 252 98
Width: 180
VWidth: 824
HStem: 0 45<45.7067 89.7402> 545 45<0.00801849 44.9927 90.008 134.993>
VStem: 0 45<46.4053 68 478 499.993 545.008 589.993> 90 45<46.4053 68 478 499.993 545.008 589.993>
LayerCount: 2
Fore
SplineSet
23 590 m 0
 11 590 0 580 0 568 c 0
 0 556 11 545 23 545 c 0
 35 545 45 556 45 568 c 0
 45 580 35 590 23 590 c 0
113 590 m 0
 101 590 90 580 90 568 c 0
 90 556 101 545 113 545 c 0
 125 545 135 556 135 568 c 0
 135 580 125 590 113 590 c 0
22 500 m 0
 10 500 0 490 0 478 c 2
 0 68 l 2
 0 31 31 0 68 0 c 0
 105 0 135 31 135 68 c 1
 135 478 l 2
 135 490 124 500 112 500 c 0
 100 500 90 490 90 478 c 1
 90 68 l 2
 90 56 80 45 68 45 c 0
 56 45 45 56 45 68 c 1
 45 478 l 2
 45 490 34 500 22 500 c 0
EndSplineSet
Validated: 521
EndChar

StartChar: "+AMQA"
Encoding: 196 196 99
Width: 180
VWidth: 824
HStem: 432 46<45 90> 655 45<45.7067 89.7402> 745 45<0.0072937 44.992 90.0073 134.992>
VStem: 0 45<0.0072937 22 410 431.993 478.007 500 632 653.595 745.008 789.993> 90 45<0.0072937 22 410 431.993 478.007 500 632 653.595 745.008 789.993>
LayerCount: 2
Fore
SplineSet
22 790 m 0
 10 790 0 780 0 768 c 0
 0 756 10 745 22 745 c 0
 34 745 45 756 45 768 c 0
 45 780 34 790 22 790 c 0
112 790 m 0
 100 790 90 780 90 768 c 0
 90 756 100 745 112 745 c 0
 124 745 135 756 135 768 c 0
 135 780 124 790 112 790 c 0
68 700 m 0
 31 700 0 669 0 632 c 1
 0 22 l 2
 0 10 10 0 22 0 c 0
 34 0 45 10 45 22 c 2
 45 410 l 2
 45 422 56 432 68 432 c 0
 80 432 90 422 90 410 c 2
 90 22 l 2
 90 10 100 0 112 0 c 0
 124 0 135 10 135 22 c 2
 135 632 l 2
 135 669 105 700 68 700 c 0
68 655 m 0
 80 655 90 644 90 632 c 2
 90 500 l 2
 90 488 80 478 68 478 c 0
 56 478 45 488 45 500 c 1
 45 632 l 2
 45 644 56 655 68 655 c 0
EndSplineSet
Validated: 521
EndChar

StartChar: "+ANYA"
Encoding: 214 214 100
Width: 180
VWidth: 824
HStem: 0 45<45.7067 89.7402> 655 45<45.7067 89.7402> 745 45<0.0072937 44.992 90.0073 134.992>
VStem: 0 45<46.4053 68 632 653.595 745.008 789.993> 90 45<46.4053 68 632 653.595 745.008 789.993>
LayerCount: 2
Fore
SplineSet
22 790 m 0
 10 790 0 780 0 768 c 0
 0 756 10 745 22 745 c 0
 34 745 45 756 45 768 c 0
 45 780 34 790 22 790 c 0
112 790 m 0
 100 790 90 780 90 768 c 0
 90 756 100 745 112 745 c 0
 124 745 135 756 135 768 c 0
 135 780 124 790 112 790 c 0
68 700 m 0
 31 700 0 669 0 632 c 2
 0 68 l 2
 0 31 31 0 68 0 c 0
 105 0 135 31 135 68 c 2
 135 632 l 2
 135 669 105 700 68 700 c 0
68 655 m 0
 80 655 90 644 90 632 c 2
 90 68 l 2
 90 56 80 45 68 45 c 0
 56 45 45 56 45 68 c 2
 45 632 l 2
 45 644 56 655 68 655 c 0
EndSplineSet
Validated: 521
EndChar

StartChar: "+ANwA"
Encoding: 220 220 101
Width: 180
VWidth: 824
HStem: 0 45<45.7067 89.7402> 745 45<0.00801849 44.9927 90.008 134.993>
VStem: 0 45<46.4053 68 678 699.993 745.008 789.993> 90 45<46.4053 68 678 699.993 745.008 789.993>
LayerCount: 2
Fore
SplineSet
23 790 m 0
 11 790 0 780 0 768 c 0
 0 756 11 745 23 745 c 0
 35 745 45 756 45 768 c 0
 45 780 35 790 23 790 c 0
113 790 m 0
 101 790 90 780 90 768 c 0
 90 756 101 745 113 745 c 0
 125 745 135 756 135 768 c 0
 135 780 125 790 113 790 c 0
22 700 m 0
 10 700 0 690 0 678 c 2
 0 68 l 2
 0 31 31 0 68 0 c 0
 105 0 135 31 135 68 c 2
 135 678 l 2
 135 690 124 700 112 700 c 0
 100 700 90 690 90 678 c 2
 90 68 l 2
 90 56 80 45 68 45 c 0
 56 45 45 56 45 68 c 2
 45 678 l 2
 45 690 34 700 22 700 c 0
EndSplineSet
Validated: 521
EndChar

StartChar: euro
Encoding: 256 8364 102
Width: 225
VWidth: 824
Flags: W
HStem: 0 45<90.5123 112 158 179.993> 342 46<0.0072937 44.992 90.0073 112 135 157.992> 432 46<0.0072937 44.992 90.0073 112 135 157.992> 655 45<90.5123 112 158 179.993>
VStem: 0 158<342.008 387.992 432.008 477.992> 45 45<46.4053 68 320 341.993 388.007 431.993 478.007 500 632 653.595>
LayerCount: 2
Fore
SplineSet
112 700 m 2xf8
 75 700 45 669 45 632 c 1
 45 500 l 2xf4
 45 488 34 478 22 478 c 0
 10 478 0 467 0 455 c 0xf8
 0 443 10 432 22 432 c 0
 34 432 45 422 45 410 c 0xf4
 45 398 34 388 22 388 c 0
 10 388 0 377 0 365 c 0xf8
 0 353 10 342 22 342 c 0
 34 342 45 332 45 320 c 2
 45 68 l 2xf4
 45 31 75 0 112 0 c 0
 158 0 l 2
 170 0 180 10 180 22 c 0
 180 34 170 45 158 45 c 2xf8
 112 45 l 2
 100 45 90 56 90 68 c 1
 90 320 l 2xf4
 90 332 100 342 112 342 c 0
 135 342 l 2
 147 342 158 353 158 365 c 0xf8
 158 377 147 388 135 388 c 2
 112 388 l 2
 100 388 90 398 90 410 c 0xf4
 90 422 100 432 112 432 c 0
 135 432 l 2
 147 432 158 443 158 455 c 0xf8
 158 467 147 478 135 478 c 2
 112 478 l 2
 100 478 90 488 90 500 c 1
 90 632 l 2xf4
 90 644 100 655 112 655 c 0
 158 655 l 2
 170 655 180 666 180 678 c 0
 180 690 170 700 158 700 c 2
 112 700 l 2xf8
EndSplineSet
Validated: 9
EndChar

StartChar: sad_face
Encoding: 180 180 103
Width: 315
VWidth: 824
Flags: W
HStem: 455 45<46.4053 68 202 223.595> 545 135<68.0073 111.993 158.007 201.993>
VStem: 0 45<410.007 453.595> 68 44<545.008 568 658 679.993> 158 44<545.008 568 658 679.993> 225 45<410.007 453.595>
LayerCount: 2
Fore
SplineSet
90 680 m 0
 78 680 68 670 68 658 c 2
 68 568 l 2
 68 556 78 545 90 545 c 0
 102 545 112 556 112 568 c 2
 112 658 l 2
 112 670 102 680 90 680 c 0
180 680 m 0
 168 680 158 670 158 658 c 2
 158 568 l 2
 158 556 168 545 180 545 c 0
 192 545 202 556 202 568 c 2
 202 658 l 2
 202 670 192 680 180 680 c 0
68 500 m 2
 31 500 0 469 0 432 c 0
 0 420 10 410 22 410 c 0
 34 410 45 420 45 432 c 0
 45 444 56 455 68 455 c 2
 202 455 l 2
 214 455 225 444 225 432 c 0
 225 420 236 410 248 410 c 0
 260 410 270 420 270 432 c 0
 270 469 239 500 202 500 c 2
 68 500 l 2
EndSplineSet
Validated: 9
EndChar

StartChar: happy_face
Encoding: 167 167 104
Width: 315
VWidth: 824
Flags: W
HStem: 432 46<46.4053 68 202 223.595> 545 135<68.0073 111.993 158.007 201.993>
VStem: 0 45<478.405 521.993> 68 44<545.008 568 658 679.993> 158 44<545.008 568 658 679.993> 225 45<478.405 521.993>
LayerCount: 2
Fore
SplineSet
90 680 m 0
 78 680 68 670 68 658 c 2
 68 568 l 2
 68 556 78 545 90 545 c 0
 102 545 112 556 112 568 c 1
 112 658 l 2
 112 670 102 680 90 680 c 0
180 680 m 0
 168 680 158 670 158 658 c 2
 158 568 l 2
 158 556 168 545 180 545 c 0
 192 545 202 556 202 568 c 2
 202 658 l 2
 202 670 192 680 180 680 c 0
22 522 m 0
 10 522 0 512 0 500 c 0
 0 463 31 432 68 432 c 1
 202 432 l 2
 239 432 270 463 270 500 c 0
 270 512 260 522 248 522 c 0
 236 522 225 512 225 500 c 0
 225 488 214 478 202 478 c 2
 68 478 l 2
 56 478 45 488 45 500 c 0
 45 512 34 522 22 522 c 0
EndSplineSet
Validated: 9
EndChar

StartChar: g_j
Encoding: 257 -1 105
Width: 270
VWidth: 824
Flags: W
HStem: -200 45<46.4053 89.9927 135.008 179.488> 0 45<46.4053 89.9927> 455 45<45.7067 89.7402> 545 45<180.007 224.992>
VStem: 0 45<-153.595 -132 -88 -65.008 46.4053 68 432 453.595> 90 45<-154.992 -132 -22 -2.99992e-07 45.008 68 432 453.595> 180 45<-153.595 -132 478 499.993 545.008 589.993>
CounterMasks: 1 0e
LayerCount: 2
Fore
SplineSet
202 590 m 0
 190 590 180 580 180 568 c 0
 180 556 190 545 202 545 c 0
 214 545 225 556 225 568 c 0
 225 580 214 590 202 590 c 0
68 500 m 0
 31 500 0 469 0 432 c 1
 0 68 l 2
 0 31 31 0 68 0 c 0
 80 0 90 -10 90 -22 c 2
 90 -132 l 2
 90 -144 80 -155 68 -155 c 0
 56 -155 45 -144 45 -132 c 1
 45 -88 l 2
 45 -76 34 -65 22 -65 c 0
 10 -65 0 -76 0 -88 c 2
 0 -132 l 2
 0 -169 31 -200 68 -200 c 0
 158 -200 l 2
 195 -200 225 -169 225 -132 c 1
 225 478 l 2
 225 490 214 500 202 500 c 0
 190 500 180 490 180 478 c 2
 180 -132 l 2
 180 -144 170 -155 158 -155 c 0
 146 -155 135 -144 135 -132 c 2
 135 432 l 2
 135 469 105 500 68 500 c 0
68 455 m 0
 80 455 90 444 90 432 c 2
 90 68 l 2
 90 56 80 45 68 45 c 0
 56 45 45 56 45 68 c 1
 45 432 l 2
 45 444 56 455 68 455 c 0
EndSplineSet
Validated: 9
Ligature2: "'liga' Standard Ligatures in Latin lookup 0 subtable" g j
EndChar

StartChar: j_j
Encoding: 258 -1 106
Width: 180
VWidth: 824
Flags: W
HStem: -200 45<-43.5947 -0.0072937 45.008 89.4877> 545 45<0.0072937 44.992 90.0073 134.992>
VStem: -90 45<-153.595 -132 -88 -65.008> 0 45<-154.992 -132 478 499.993 545.008 589.993> 90 45<-153.595 -132 478 499.993 545.008 589.993>
CounterMasks: 1 38
LayerCount: 2
Fore
SplineSet
22 590 m 0
 10 590 0 580 0 568 c 0
 0 556 10 545 22 545 c 0
 34 545 45 556 45 568 c 0
 45 580 34 590 22 590 c 0
112 590 m 0
 100 590 90 580 90 568 c 0
 90 556 100 545 112 545 c 0
 124 545 135 556 135 568 c 0
 135 580 124 590 112 590 c 0
22 500 m 0
 10 500 0 490 0 478 c 2
 0 -88 l 1
 0 -132 l 2
 0 -144 -10 -155 -22 -155 c 0
 -34 -155 -45 -144 -45 -132 c 2
 -45 -88 l 2
 -45 -76 -56 -65 -68 -65 c 0
 -80 -65 -90 -76 -90 -88 c 2
 -90 -132 l 2
 -90 -169 -59 -200 -22 -200 c 2
 68 -200 l 2
 105 -200 135 -169 135 -132 c 2
 135 478 l 2
 135 490 124 500 112 500 c 0
 100 500 90 490 90 478 c 2
 90 -132 l 2
 90 -144 80 -155 68 -155 c 0
 56 -155 45 -144 45 -132 c 2
 45 -88 l 1
 45 478 l 2
 45 490 34 500 22 500 c 0
EndSplineSet
Validated: 9
Ligature2: "'liga' Standard Ligatures in Latin lookup 0 subtable" j j
EndChar

StartChar: q_j
Encoding: 259 -1 107
Width: 270
VWidth: 824
Flags: W
HStem: -200 45<135.707 179.74> 0 45<46.4053 89.9927> 455 45<45.7067 89.7402> 545 45<180.007 224.992>
VStem: 0 45<46.4053 68 432 453.595> 90 45<-153.595 -132 -22 -2.99992e-07 45.008 68 432 453.595> 180 45<-153.595 -132 478 499.993 545.008 589.993>
CounterMasks: 1 0e
LayerCount: 2
Fore
SplineSet
202 590 m 0
 190 590 180 580 180 568 c 0
 180 556 190 545 202 545 c 0
 214 545 225 556 225 568 c 0
 225 580 214 590 202 590 c 0
68 500 m 0
 31 500 0 469 0 432 c 2
 0 68 l 2
 0 31 31 0 68 0 c 0
 80 0 90 -10 90 -22 c 2
 90 -132 l 2
 90 -169 121 -200 158 -200 c 0
 195 -200 225 -169 225 -132 c 2
 225 478 l 2
 225 490 214 500 202 500 c 0
 190 500 180 490 180 478 c 2
 180 -132 l 2
 180 -144 170 -155 158 -155 c 0
 146 -155 135 -144 135 -132 c 2
 135 432 l 2
 135 469 105 500 68 500 c 0
68 455 m 0
 80 455 90 444 90 432 c 2
 90 68 l 2
 90 56 80 45 68 45 c 0
 56 45 45 56 45 68 c 2
 45 432 l 2
 45 444 56 455 68 455 c 0
EndSplineSet
Validated: 9
Ligature2: "'liga' Standard Ligatures in Latin lookup 0 subtable" q j
EndChar

StartChar: y_j
Encoding: 260 -1 108
Width: 270
VWidth: 824
Flags: W
HStem: -200 45<135.707 179.74> 0 45<46.4053 89.9927> 545 45<180.007 224.992>
VStem: 0 45<46.4053 68 478 499.993> 90 45<-153.595 -132 -22 -2.99992e-07 45.008 68 478 499.993> 180 45<-153.595 -132 478 499.993 545.008 589.993>
CounterMasks: 1 1c
LayerCount: 2
Fore
SplineSet
202 590 m 0
 190 590 180 580 180 568 c 0
 180 556 190 545 202 545 c 0
 214 545 225 556 225 568 c 0
 225 580 214 590 202 590 c 0
22 500 m 0
 10 500 0 490 0 478 c 2
 0 68 l 2
 0 31 31 0 68 0 c 0
 80 0 90 -10 90 -22 c 2
 90 -132 l 2
 90 -169 121 -200 158 -200 c 0
 195 -200 225 -169 225 -132 c 2
 225 478 l 2
 225 490 214 500 202 500 c 0
 190 500 180 490 180 478 c 2
 180 -132 l 2
 180 -144 170 -155 158 -155 c 0
 146 -155 135 -144 135 -132 c 2
 135 478 l 2
 135 490 124 500 112 500 c 0
 100 500 90 490 90 478 c 2
 90 68 l 2
 90 56 80 45 68 45 c 0
 56 45 45 56 45 68 c 2
 45 478 l 2
 45 490 34 500 22 500 c 0
EndSplineSet
Validated: 9
Ligature2: "'liga' Standard Ligatures in Latin lookup 0 subtable" y j
EndChar

StartChar: parentheses_j
Encoding: 261 -1 109
Width: 270
VWidth: 824
Flags: W
HStem: -200 45<135.707 179.74> -110 45<46.4053 89.4877> 545 45<180.007 224.992> 790 45<45.7067 89.4481>
VStem: 0 45<-63.5947 -42 767 788.595> 90 45<-153.595 -110.512 745.007 789.367> 180 45<-153.595 -132 478 499.993 545.008 589.993>
CounterMasks: 1 0e
LayerCount: 2
Fore
SplineSet
68 835 m 1
 31 835 0 804 0 767 c 1
 0 -42 l 2
 0 -79 31 -110 68 -110 c 0
 80 -110 90 -120 90 -132 c 0
 90 -169 121 -200 158 -200 c 0
 195 -200 225 -169 225 -132 c 2
 225 478 l 2
 225 490 214 500 202 500 c 0
 190 500 180 490 180 478 c 2
 180 -132 l 2
 180 -144 170 -155 158 -155 c 0
 146 -155 135 -144 135 -132 c 0
 135 -95 105 -65 68 -65 c 0
 56 -65 45 -54 45 -42 c 1
 45 767 l 2
 45 779 56 790 68 790 c 0
 80 790 90 779 90 767 c 1
 90 755 100 745 112 745 c 0
 124 745 135 755 135 767 c 1
 135 768 l 0
 135 769 135 769 135 770 c 0
 133 806 104 835 68 835 c 1
202 590 m 0
 190 590 180 580 180 568 c 0
 180 556 190 545 202 545 c 0
 214 545 225 556 225 568 c 0
 225 580 214 590 202 590 c 0
EndSplineSet
Validated: 9
Ligature2: "'liga' Standard Ligatures lookup 0 subtable" parentheses_open j
EndChar

StartChar: f_b
Encoding: 262 -1 110
Width: 270
VWidth: 824
Flags: W
HStem: 0 45<135.707 179.74> 455 45<135.008 179.488> 500 45<-44.992 -0.0072937 45.008 89.9927> 655 45<45.7067 89.7402>
VStem: 0 45<0.0072937 22 478 499.993 545.008 568 632 653.595> 90 45<46.4053 68 432 454.992 545.008 568 632 653.595> 180 45<46.4053 68 432 453.595>
CounterMasks: 1 0e
LayerCount: 2
Fore
SplineSet
68 700 m 0xde
 31 700 0 669 0 632 c 1
 0 568 l 2
 0 556 -10 545 -22 545 c 0
 -34 545 -45 534 -45 522 c 0
 -45 510 -34 500 -22 500 c 0
 -10 500 0 490 0 478 c 2
 0 22 l 2
 0 10 10 0 22 0 c 0
 34 0 45 10 45 22 c 2
 45 478 l 2
 45 490 56 500 68 500 c 0xbe
 80 500 90 490 90 478 c 2
 90 68 l 2
 90 31 121 0 158 0 c 0
 195 0 225 31 225 68 c 2
 225 432 l 2
 225 469 195 500 158 500 c 0
 146 500 135 510 135 522 c 2
 135 632 l 2
 135 669 105 700 68 700 c 0xde
68 655 m 0
 80 655 90 644 90 632 c 2
 90 568 l 2
 90 556 80 545 68 545 c 0
 56 545 45 556 45 568 c 2
 45 632 l 2
 45 644 56 655 68 655 c 0
158 455 m 0xde
 170 455 180 444 180 432 c 2
 180 68 l 2
 180 56 170 45 158 45 c 0
 146 45 135 56 135 68 c 2
 135 432 l 2
 135 444 146 455 158 455 c 0xde
EndSplineSet
Validated: 9
Ligature2: "'liga' Standard Ligatures in Latin lookup 0 subtable" f b
EndChar

StartChar: f_f
Encoding: 263 64256 111
Width: 180
VWidth: 824
Flags: W
HStem: 500 45<-44.992 -0.0072937 45.008 89.9927 135.008 158 180 201.993> 655 45<46.4053 89.9927 135.008 179.488>
VStem: 0 45<0.0072937 22 478 499.993 545.008 568 632 653.595> 90 45<0.0072937 22 478 499.993 545.008 568 632 654.992> 180 45<588.007 610 632 653.595>
CounterMasks: 1 38
LayerCount: 2
Fore
SplineSet
68 700 m 2
 31 700 0 669 0 632 c 2
 0 568 l 2
 0 556 -10 545 -22 545 c 0
 -34 545 -45 534 -45 522 c 0
 -45 510 -34 500 -22 500 c 0
 -10 500 0 490 0 478 c 2
 0 22 l 2
 0 10 10 0 22 0 c 0
 34 0 45 10 45 22 c 2
 45 478 l 2
 45 490 56 500 68 500 c 0
 80 500 90 490 90 478 c 2
 90 22 l 2
 90 10 100 0 112 0 c 0
 124 0 135 10 135 22 c 2
 135 478 l 2
 135 490 146 500 158 500 c 2
 180 500 l 2
 192 500 202 510 202 522 c 0
 202 534 192 545 180 545 c 2
 158 545 l 2
 146 545 135 556 135 568 c 2
 135 610 l 1
 135 632 l 2
 135 644 146 655 158 655 c 0
 170 655 180 644 180 632 c 2
 180 610 l 2
 180 598 190 588 202 588 c 0
 214 588 225 598 225 610 c 2
 225 632 l 2
 225 669 195 700 158 700 c 2
 68 700 l 2
68 655 m 0
 80 655 90 644 90 632 c 2
 90 610 l 1
 90 568 l 2
 90 556 80 545 68 545 c 0
 56 545 45 556 45 568 c 2
 45 632 l 2
 45 644 56 655 68 655 c 0
EndSplineSet
Validated: 9
Ligature2: "'liga' Standard Ligatures in Latin lookup 0 subtable" f f
EndChar

StartChar: f_h
Encoding: 264 -1 112
Width: 270
VWidth: 824
Flags: W
HStem: 455 45<135.008 179.488> 500 45<-44.992 -0.0072937 45.008 89.9927> 655 45<45.7067 89.7402>
VStem: 0 45<0.0072937 22 478 499.993 545.008 568 632 653.595> 90 45<0.0072937 22 432 454.992 545.008 568 632 653.595> 180 45<0.0072937 22 432 453.595>
CounterMasks: 1 1c
LayerCount: 2
Fore
SplineSet
68 700 m 0xbc
 31 700 0 669 0 632 c 1
 0 568 l 2
 0 556 -10 545 -22 545 c 0
 -34 545 -45 534 -45 522 c 0
 -45 510 -34 500 -22 500 c 0
 -10 500 0 490 0 478 c 2
 0 22 l 2
 0 10 10 0 22 0 c 0
 34 0 45 10 45 22 c 2
 45 478 l 2
 45 490 56 500 68 500 c 0x7c
 80 500 90 490 90 478 c 2
 90 22 l 2
 90 10 100 0 112 0 c 0
 124 0 135 10 135 22 c 2
 135 432 l 2
 135 444 146 455 158 455 c 0
 170 455 180 444 180 432 c 2
 180 22 l 2
 180 10 190 0 202 0 c 0
 214 0 225 10 225 22 c 2
 225 432 l 2
 225 469 195 500 158 500 c 0
 146 500 135 510 135 522 c 2
 135 632 l 2
 135 669 105 700 68 700 c 0xbc
68 655 m 0
 80 655 90 644 90 632 c 2
 90 568 l 2
 90 556 80 545 68 545 c 0
 56 545 45 556 45 568 c 1
 45 632 l 2
 45 644 56 655 68 655 c 0
EndSplineSet
Validated: 9
Ligature2: "'liga' Standard Ligatures in Latin lookup 0 subtable" f h
EndChar

StartChar: f_k
Encoding: 265 -1 113
Width: 270
VWidth: 824
Flags: W
HStem: 228 44<135.032 179.488> 318 44<135.032 179.488> 500 45<-44.992 -0.0072937 45.008 89.9927> 655 45<45.7067 89.7402>
VStem: 0 45<0.0072937 22 478 499.993 545.008 568 632 653.595> 90 45<0.0072937 22 205 227.992 272.008 317.992 362.008 385 478 499.993 545.008 568 632 653.595> 180 45<0.0072937 22 205 226.488 363.512 385 478 499.993>
CounterMasks: 1 0e
LayerCount: 2
Fore
SplineSet
68 700 m 0
 31 700 0 669 0 632 c 2
 0 568 l 2
 0 556 -10 545 -22 545 c 0
 -34 545 -45 534 -45 522 c 0
 -45 510 -34 500 -22 500 c 0
 -10 500 0 490 0 478 c 2
 0 22 l 2
 0 10 10 0 22 0 c 0
 34 0 45 10 45 22 c 2
 45 478 l 2
 45 490 56 500 68 500 c 0
 80 500 90 490 90 478 c 2
 90 22 l 2
 90 10 100 0 112 0 c 0
 124 0 135 10 135 22 c 2
 135 205 l 2
 135 217 146 228 158 228 c 0
 170 228 180 217 180 205 c 2
 180 22 l 2
 180 10 190 0 202 0 c 0
 214 0 225 10 225 22 c 2
 225 205 l 2
 225 242 195 272 158 272 c 0
 146 272 135 283 135 295 c 0
 135 307 146 318 158 318 c 0
 195 318 225 348 225 385 c 2
 225 478 l 2
 225 490 214 500 202 500 c 0
 190 500 180 490 180 478 c 2
 180 385 l 2
 180 373 170 362 158 362 c 0
 146 362 135 373 135 385 c 2
 135 632 l 2
 135 669 105 700 68 700 c 0
68 655 m 0
 80 655 90 644 90 632 c 2
 90 568 l 2
 90 556 80 545 68 545 c 0
 56 545 45 556 45 568 c 2
 45 632 l 2
 45 644 56 655 68 655 c 0
EndSplineSet
Validated: 9
Ligature2: "'liga' Standard Ligatures in Latin lookup 0 subtable" f k
EndChar

StartChar: f_l
Encoding: 266 64258 114
Width: 180
VWidth: 824
Flags: W
HStem: 500 45<-44.992 -0.0072937 45.008 89.9927> 655 45<45.7067 89.7402>
VStem: 0 45<0.0072937 22 478 499.993 545.008 568 632 653.595> 90 45<0.0072937 22 478 499.993 545.008 568 632 653.595>
LayerCount: 2
Fore
SplineSet
68 700 m 0
 31 700 0 669 0 632 c 2
 0 568 l 2
 0 556 -10 545 -22 545 c 0
 -34 545 -45 534 -45 522 c 0
 -45 510 -34 500 -22 500 c 0
 -10 500 0 490 0 478 c 1
 0 22 l 2
 0 10 10 0 22 0 c 0
 34 0 45 10 45 22 c 2
 45 478 l 2
 45 490 56 500 68 500 c 0
 80 500 90 490 90 478 c 2
 90 22 l 2
 90 10 100 0 112 0 c 0
 124 0 135 10 135 22 c 2
 135 632 l 2
 135 669 105 700 68 700 c 0
68 655 m 0
 80 655 90 644 90 632 c 2
 90 568 l 2
 90 556 80 545 68 545 c 0
 56 545 45 556 45 568 c 2
 45 632 l 2
 45 644 56 655 68 655 c 0
EndSplineSet
Validated: 9
Ligature2: "'liga' Standard Ligatures in Latin lookup 0 subtable" f l
EndChar

StartChar: d_f
Encoding: 267 -1 115
Width: 270
VWidth: 824
Flags: W
HStem: 0 45<45.7067 89.7402> 455 45<46.4053 89.9927> 500 45<135.008 179.993 225.008 248 270 291.993> 655 45<225.707 269.74>
VStem: 0 45<46.4053 68 432 453.595> 90 45<46.4053 68 432 454.992 545.008 568 678 699.993> 180 45<0.0072937 22 478 499.993 545.008 568 632 653.595> 270 45<588.007 610 632 653.595>
LayerCount: 2
Fore
SplineSet
112 700 m 0xbf
 100 700 90 690 90 678 c 2
 90 522 l 2
 90 510 80 500 68 500 c 0xdf
 31 500 0 469 0 432 c 2
 0 68 l 2
 0 31 31 0 68 0 c 0
 105 0 135 31 135 68 c 2
 135 478 l 2
 135 490 146 500 158 500 c 0
 170 500 180 490 180 478 c 2
 180 22 l 2
 180 10 190 0 202 0 c 0
 214 0 225 10 225 22 c 2
 225 478 l 2
 225 490 236 500 248 500 c 2
 270 500 l 2
 282 500 292 510 292 522 c 0
 292 534 282 545 270 545 c 2
 248 545 l 2
 236 545 225 556 225 568 c 2
 225 632 l 2
 225 644 236 655 248 655 c 0
 260 655 270 644 270 632 c 2
 270 610 l 2
 270 598 280 588 292 588 c 0
 304 588 315 598 315 610 c 2
 315 632 l 2
 315 669 285 700 248 700 c 0
 211 700 180 669 180 632 c 2
 180 568 l 2
 180 556 170 545 158 545 c 0
 146 545 135 556 135 568 c 2
 135 678 l 2
 135 690 124 700 112 700 c 0xbf
68 455 m 0
 80 455 90 444 90 432 c 2
 90 68 l 2
 90 56 80 45 68 45 c 0
 56 45 45 56 45 68 c 2
 45 432 l 2
 45 444 56 455 68 455 c 0
EndSplineSet
Validated: 9
Ligature2: "'liga' Standard Ligatures in Latin lookup 0 subtable" d f
EndChar

StartChar: d_f_b
Encoding: 268 -1 116
Width: 450
VWidth: 824
Flags: W
HStem: 0 45<45.7067 89.7402 315.707 359.74> 455 45<46.4053 89.9927 315.008 359.488> 500 45<135.008 179.993 225.008 269.993> 655 45<225.707 269.74>
VStem: 0 45<46.4053 68 432 453.595> 90 45<46.4053 68 432 454.992 545.008 568 678 699.993> 180 45<0.0072937 22 478 499.993 545.008 568 632 653.595> 270 45<46.4053 68 432 454.992 545.008 568 632 653.595> 360 45<46.4053 68 432 453.595>
LayerCount: 2
Fore
SplineSet
112 700 m 0xbf80
 100 700 90 690 90 678 c 1
 90 522 l 2
 90 510 80 500 68 500 c 0xdf80
 31 500 0 469 0 432 c 1
 0 68 l 2
 0 31 31 0 68 0 c 0
 105 0 135 31 135 68 c 1
 135 478 l 2
 135 490 146 500 158 500 c 0
 170 500 180 490 180 478 c 2
 180 22 l 2
 180 10 190 0 202 0 c 0
 214 0 225 10 225 22 c 2
 225 478 l 2
 225 490 236 500 248 500 c 0xbf80
 260 500 270 490 270 478 c 2
 270 68 l 2
 270 31 301 0 338 0 c 0
 375 0 405 31 405 68 c 2
 405 432 l 2
 405 469 375 500 338 500 c 0xdf80
 326 500 315 510 315 522 c 2
 315 632 l 2
 315 669 285 700 248 700 c 0
 211 700 180 669 180 632 c 2
 180 568 l 2
 180 556 170 545 158 545 c 0
 146 545 135 556 135 568 c 2
 135 678 l 2
 135 690 124 700 112 700 c 0xbf80
248 655 m 0
 260 655 270 644 270 632 c 2
 270 568 l 2
 270 556 260 545 248 545 c 0xbf80
 236 545 225 556 225 568 c 2
 225 632 l 2
 225 644 236 655 248 655 c 0
68 455 m 0xdf80
 80 455 90 444 90 432 c 2
 90 68 l 2
 90 56 80 45 68 45 c 0
 56 45 45 56 45 68 c 2
 45 432 l 2
 45 444 56 455 68 455 c 0xdf80
338 455 m 0
 350 455 360 444 360 432 c 2
 360 68 l 2
 360 56 350 45 338 45 c 0
 326 45 315 56 315 68 c 2
 315 432 l 2
 315 444 326 455 338 455 c 0
EndSplineSet
Validated: 9
Ligature2: "'liga' Standard Ligatures in Latin lookup 0 subtable" d f b
EndChar

StartChar: d_f_f
Encoding: 269 -1 117
Width: 360
VWidth: 824
Flags: W
HStem: 0 45<45.7067 89.7402> 455 45<46.4053 89.9927> 500 45<135.008 179.993 225.008 269.993 315.008 338 360 381.993> 655 45<226.405 269.993 315.008 359.488>
VStem: 0 45<46.4053 68 432 453.595> 90 45<46.4053 68 432 454.992 545.008 568 678 699.993> 180 45<0.0072937 22 478 499.993 545.008 568 632 653.595> 270 45<0.0072937 22 478 499.993 545.008 568 632 654.992> 360 45<588.007 610 632 653.595>
LayerCount: 2
Fore
SplineSet
112 700 m 0xbf80
 100 700 90 690 90 678 c 1
 90 522 l 2
 90 510 80 500 68 500 c 0xdf80
 31 500 0 469 0 432 c 2
 0 68 l 2
 0 31 31 0 68 0 c 0
 105 0 135 31 135 68 c 2
 135 478 l 2
 135 490 146 500 158 500 c 0
 170 500 180 490 180 478 c 2
 180 22 l 2
 180 10 190 0 202 0 c 0
 214 0 225 10 225 22 c 2
 225 478 l 2
 225 490 236 500 248 500 c 0
 260 500 270 490 270 478 c 2
 270 22 l 2
 270 10 280 0 292 0 c 0
 304 0 315 10 315 22 c 2
 315 478 l 2
 315 490 326 500 338 500 c 2
 360 500 l 2
 372 500 382 510 382 522 c 0
 382 534 372 545 360 545 c 2
 338 545 l 2
 326 545 315 556 315 568 c 2
 315 610 l 1
 315 632 l 2
 315 644 326 655 338 655 c 0
 350 655 360 644 360 632 c 2
 360 610 l 2
 360 598 370 588 382 588 c 0
 394 588 405 598 405 610 c 2
 405 632 l 2
 405 669 375 700 338 700 c 2
 248 700 l 2
 211 700 180 669 180 632 c 2
 180 568 l 2
 180 556 170 545 158 545 c 0
 146 545 135 556 135 568 c 2
 135 678 l 2
 135 690 124 700 112 700 c 0xbf80
248 655 m 0
 260 655 270 644 270 632 c 2
 270 610 l 1
 270 568 l 2
 270 556 260 545 248 545 c 0xbf80
 236 545 225 556 225 568 c 2
 225 632 l 2
 225 644 236 655 248 655 c 0
68 455 m 0xdf80
 80 455 90 444 90 432 c 2
 90 68 l 2
 90 56 80 45 68 45 c 0
 56 45 45 56 45 68 c 2
 45 432 l 2
 45 444 56 455 68 455 c 0xdf80
EndSplineSet
Validated: 9
Ligature2: "'liga' Standard Ligatures in Latin lookup 0 subtable" d f f
EndChar

StartChar: d_f_h
Encoding: 270 -1 118
Width: 450
VWidth: 824
Flags: W
HStem: 0 45<45.7067 89.7402> 455 45<46.4053 89.9927 315.008 359.488> 500 45<135.008 179.993 225.008 269.993> 655 45<225.707 269.74>
VStem: 0 45<46.4053 68 432 453.595> 90 45<46.4053 68 432 454.992 545.008 568 678 699.993> 180 45<0.0072937 22 478 499.993 545.008 568 632 653.595> 270 45<0.0072937 22 432 454.992 545.008 568 632 653.595> 360 45<0.0072937 22 432 453.595>
LayerCount: 2
Fore
SplineSet
112 700 m 0xbf80
 100 700 90 690 90 678 c 1
 90 522 l 2
 90 510 80 500 68 500 c 0xdf80
 31 500 0 469 0 432 c 1
 0 68 l 2
 0 31 31 0 68 0 c 0
 105 0 135 31 135 68 c 1
 135 478 l 2
 135 490 146 500 158 500 c 0
 170 500 180 490 180 478 c 2
 180 22 l 2
 180 10 190 0 202 0 c 0
 214 0 225 10 225 22 c 2
 225 478 l 2
 225 490 236 500 248 500 c 0xbf80
 260 500 270 490 270 478 c 2
 270 22 l 2
 270 10 280 0 292 0 c 0
 304 0 315 10 315 22 c 2
 315 432 l 2
 315 444 326 455 338 455 c 0
 350 455 360 444 360 432 c 2
 360 22 l 2
 360 10 370 0 382 0 c 0
 394 0 405 10 405 22 c 2
 405 432 l 2
 405 469 375 500 338 500 c 0xdf80
 326 500 315 510 315 522 c 2
 315 632 l 2
 315 669 285 700 248 700 c 0
 211 700 180 669 180 632 c 2
 180 568 l 2
 180 556 170 545 158 545 c 0
 146 545 135 556 135 568 c 2
 135 678 l 2
 135 690 124 700 112 700 c 0xbf80
248 655 m 0
 260 655 270 644 270 632 c 2
 270 568 l 2
 270 556 260 545 248 545 c 0xbf80
 236 545 225 556 225 568 c 2
 225 632 l 2
 225 644 236 655 248 655 c 0
68 455 m 0xdf80
 80 455 90 444 90 432 c 2
 90 68 l 2
 90 56 80 45 68 45 c 0
 56 45 45 56 45 68 c 1
 45 432 l 2
 45 444 56 455 68 455 c 0xdf80
EndSplineSet
Validated: 9
Ligature2: "'liga' Standard Ligatures in Latin lookup 0 subtable" d f h
EndChar

StartChar: d_f_k
Encoding: 271 -1 119
Width: 450
VWidth: 824
Flags: W
HStem: 0 45<45.7067 89.7402> 228 44<315.032 359.488> 318 44<315.032 359.488> 455 45<46.4053 89.9927> 500 45<135.008 179.993 225.008 269.993> 655 45<225.707 269.74>
VStem: 0 45<46.4053 68 432 453.595> 90 45<46.4053 68 432 454.992 545.008 568 678 699.993> 180 45<0.0072937 22 478 499.993 545.008 568 632 653.595> 270 45<0.0072937 22 205 227.992 272.008 317.992 362.008 385 478 499.993 545.008 568 632 653.595> 360 45<0.0072937 22 205 226.488 363.512 385 478 499.993>
LayerCount: 2
Fore
SplineSet
112 700 m 0xefe0
 100 700 90 690 90 678 c 2
 90 522 l 2
 90 510 80 500 68 500 c 0xf7e0
 31 500 0 469 0 432 c 2
 0 68 l 2
 0 31 31 0 68 0 c 0
 105 0 135 31 135 68 c 2
 135 478 l 2
 135 490 146 500 158 500 c 0
 170 500 180 490 180 478 c 2
 180 22 l 2
 180 10 190 0 202 0 c 0
 214 0 225 10 225 22 c 2
 225 478 l 2
 225 490 236 500 248 500 c 0
 260 500 270 490 270 478 c 2
 270 22 l 2
 270 10 280 0 292 0 c 0
 304 0 315 10 315 22 c 2
 315 205 l 2
 315 217 326 228 338 228 c 0
 350 228 360 217 360 205 c 2
 360 22 l 2
 360 10 370 0 382 0 c 0
 394 0 405 10 405 22 c 2
 405 205 l 2
 405 242 375 272 338 272 c 0
 326 272 315 283 315 295 c 0
 315 307 326 318 338 318 c 0
 375 318 405 348 405 385 c 2
 405 478 l 2
 405 490 394 500 382 500 c 0
 370 500 360 490 360 478 c 2
 360 385 l 2
 360 373 350 362 338 362 c 0
 326 362 315 373 315 385 c 2
 315 632 l 2
 315 669 285 700 248 700 c 0
 211 700 180 669 180 632 c 2
 180 568 l 2
 180 556 170 545 158 545 c 0
 146 545 135 556 135 568 c 2
 135 678 l 2
 135 690 124 700 112 700 c 0xefe0
248 655 m 0
 260 655 270 644 270 632 c 2
 270 568 l 2
 270 556 260 545 248 545 c 0xefe0
 236 545 225 556 225 568 c 2
 225 632 l 2
 225 644 236 655 248 655 c 0
68 455 m 0xf7e0
 80 455 90 444 90 432 c 2
 90 68 l 2
 90 56 80 45 68 45 c 0
 56 45 45 56 45 68 c 2
 45 432 l 2
 45 444 56 455 68 455 c 0xf7e0
EndSplineSet
Validated: 9
Ligature2: "'liga' Standard Ligatures in Latin lookup 0 subtable" d f k
EndChar

StartChar: d_f_l
Encoding: 272 -1 120
Width: 360
VWidth: 824
Flags: W
HStem: 0 45<45.7067 89.7402> 455 45<46.4053 89.9927> 500 45<135.008 179.993 225.008 269.993> 655 45<225.707 269.74>
VStem: 0 45<46.4053 68 432 453.595> 90 45<46.4053 68 432 454.992 545.008 568 678 699.993> 180 45<0.0072937 22 478 499.993 545.008 568 632 653.595> 270 45<0.0072937 22 478 499.993 545.008 568 632 653.595>
LayerCount: 2
Fore
SplineSet
112 700 m 0xbf
 100 700 90 690 90 678 c 2
 90 522 l 2
 90 510 80 500 68 500 c 0xdf
 31 500 0 469 0 432 c 2
 0 68 l 2
 0 31 31 0 68 0 c 0
 105 0 135 31 135 68 c 2
 135 478 l 2
 135 490 146 500 158 500 c 0
 170 500 180 490 180 478 c 2
 180 22 l 2
 180 10 190 0 202 0 c 0
 214 0 225 10 225 22 c 2
 225 478 l 2
 225 490 236 500 248 500 c 0
 260 500 270 490 270 478 c 2
 270 23 l 1
 270 22 l 0
 270 10 280 0 292 0 c 0
 304 0 315 10 315 22 c 0
 315 23 l 0
 315 632 l 2
 315 669 285 700 248 700 c 0
 211 700 180 669 180 632 c 2
 180 568 l 2
 180 556 170 545 158 545 c 0
 146 545 135 556 135 568 c 2
 135 678 l 2
 135 690 124 700 112 700 c 0xbf
248 655 m 0
 260 655 270 644 270 632 c 2
 270 568 l 2
 270 556 260 545 248 545 c 0xbf
 236 545 225 556 225 568 c 2
 225 632 l 2
 225 644 236 655 248 655 c 0
68 455 m 0xdf
 80 455 90 444 90 432 c 2
 90 68 l 2
 90 56 80 45 68 45 c 0
 56 45 45 56 45 68 c 2
 45 432 l 2
 45 444 56 455 68 455 c 0xdf
EndSplineSet
Validated: 9
Ligature2: "'liga' Standard Ligatures in Latin lookup 0 subtable" d f l
EndChar

StartChar: f_i
Encoding: 273 64257 121
Width: 180
VWidth: 824
Flags: W
HStem: 500 45<-44.992 -0.0072937 45.008 89.9927> 655 45<45.7067 89.7402>
VStem: -0 45<0.0072937 22 478 499.993 545.008 568 632 653.595> 90 45<0.0072937 22 478 499.993 565.008 588 632 653.595>
LayerCount: 2
Fore
SplineSet
68 700 m 0
 31 700 0 669 -0 632 c 1
 -0 568 l 2
 0 556 -10 545 -22 545 c 0
 -34 545 -45 534 -45 522 c 0
 -45 510 -34 500 -22 500 c 0
 -10 500 0 490 -0 478 c 1
 -0 22 l 2
 0 10 10 0 22 0 c 0
 34 0 45 10 45 22 c 1
 45 478 l 2
 45 490 56 500 68 500 c 0
 80 500 90 510 90 522 c 0
 90 534 80 545 68 545 c 0
 56 545 45 556 45 568 c 2
 45 632 l 2
 45 644 56 655 68 655 c 0
 80 655 90 644 90 632 c 2
 90 588 l 2
 90 576 100 565 112 565 c 0
 124 565 135 576 135 588 c 2
 135 632 l 2
 135 669 105 700 68 700 c 0
112 500 m 0
 100 500 90 490 90 478 c 2
 90 22 l 2
 90 10 100 0 112 0 c 0
 124 0 135 10 135 22 c 2
 135 478 l 2
 135 490 124 500 112 500 c 0
EndSplineSet
Validated: 9
Ligature2: "'liga' Standard Ligatures in Latin lookup 0 subtable" f i
EndChar

StartChar: f_j
Encoding: 274 -1 122
Width: 180
VWidth: 824
Flags: W
HStem: -200 45<45.7067 89.7402> 500 45<-44.992 -0.0072937 45.008 89.9927> 655 45<45.7067 89.7402>
VStem: 0 45<-153.595 -132 -88 -65.008 0.0072937 22 478 499.993 545.008 568 632 653.595> 90 45<-153.595 -132 478 499.993 565.008 588 632 653.595>
LayerCount: 2
Fore
SplineSet
68 700 m 0
 31 700 0 669 0 632 c 2
 0 568 l 2
 0 556 -10 545 -22 545 c 0
 -34 545 -45 534 -45 522 c 0
 -45 510 -34 500 -22 500 c 0
 -10 500 0 490 0 478 c 2
 0 22 l 2
 0 10 10 0 22 0 c 0
 34 0 45 10 45 22 c 2
 45 478 l 2
 45 490 56 500 68 500 c 0
 80 500 90 510 90 522 c 0
 90 534 80 545 68 545 c 0
 56 545 45 556 45 568 c 2
 45 632 l 2
 45 644 56 655 68 655 c 0
 80 655 90 644 90 632 c 1
 90 588 l 2
 90 576 100 565 112 565 c 0
 124 565 135 576 135 588 c 2
 135 632 l 2
 135 669 105 700 68 700 c 0
112 500 m 0
 100 500 90 490 90 478 c 1
 90 -132 l 2
 90 -144 80 -155 68 -155 c 0
 56 -155 45 -144 45 -132 c 2
 45 -88 l 2
 45 -76 34 -65 22 -65 c 0
 10 -65 0 -76 0 -88 c 2
 0 -132 l 2
 0 -169 31 -200 68 -200 c 0
 105 -200 135 -169 135 -132 c 2
 135 478 l 2
 135 490 124 500 112 500 c 0
EndSplineSet
Validated: 9
Ligature2: "'liga' Standard Ligatures in Latin lookup 0 subtable" f j
EndChar

StartChar: d_f_i
Encoding: 275 -1 123
Width: 360
VWidth: 824
Flags: W
HStem: 0 45<45.7067 89.7402> 455 45<46.4053 89.9927> 500 45<135.008 179.993 225.008 269.993> 655 45<225.707 269.74>
VStem: 0 45<46.4053 68 432 453.595> 90 45<46.4053 68 432 454.992 545.008 568 678 699.993> 180 45<0.0072937 22 478 499.993 545.008 568 632 653.595> 270 45<0.0072937 22 478 499.993 565.008 588 632 653.595>
LayerCount: 2
Fore
SplineSet
112 700 m 0xbf
 100 700 90 690 90 678 c 2
 90 522 l 2
 90 510 80 500 68 500 c 0xdf
 31 500 0 469 0 432 c 2
 0 68 l 2
 0 31 31 0 68 0 c 0
 105 0 135 31 135 68 c 2
 135 478 l 2
 135 490 146 500 158 500 c 0
 170 500 180 490 180 478 c 2
 180 22 l 2
 180 10 190 0 202 0 c 0
 214 0 225 10 225 22 c 2
 225 478 l 2
 225 490 236 500 248 500 c 0
 260 500 270 510 270 522 c 0
 270 534 260 545 248 545 c 0
 236 545 225 556 225 568 c 2
 225 632 l 2
 225 644 236 655 248 655 c 0
 260 655 270 644 270 632 c 2
 270 588 l 2
 270 576 280 565 292 565 c 0
 304 565 315 576 315 588 c 2
 315 632 l 2
 315 669 285 700 248 700 c 0
 211 700 180 669 180 632 c 2
 180 568 l 2
 180 556 170 545 158 545 c 0
 146 545 135 556 135 568 c 2
 135 678 l 2
 135 690 124 700 112 700 c 0xbf
292 500 m 0xbf
 280 500 270 490 270 478 c 2
 270 22 l 2
 270 10 280 0 292 0 c 0
 304 0 315 10 315 22 c 2
 315 478 l 2
 315 490 304 500 292 500 c 0xbf
68 455 m 0xdf
 80 455 90 444 90 432 c 2
 90 68 l 2
 90 56 80 45 68 45 c 0
 56 45 45 56 45 68 c 2
 45 432 l 2
 45 444 56 455 68 455 c 0xdf
EndSplineSet
Validated: 9
Ligature2: "'liga' Standard Ligatures in Latin lookup 0 subtable" d f i
EndChar

StartChar: d_f_j
Encoding: 276 -1 124
Width: 360
VWidth: 824
Flags: W
HStem: -200 45<225.707 269.74> 0 45<45.7067 89.7402> 455 45<46.4053 89.9927> 500 45<135.008 179.993 225.008 269.993> 655 45<225.707 269.74>
VStem: 0 45<46.4053 68 432 453.595> 90 45<46.4053 68 432 454.992 545.008 568 678 699.993> 180 45<-153.595 -132 -88 -65.008 0.0072937 22 478 499.993 545.008 568 632 653.595> 270 45<-153.595 -132 478 499.993 565.008 588 632 653.595>
LayerCount: 2
Fore
SplineSet
112 700 m 0xdf80
 100 700 90 690 90 678 c 2
 90 522 l 2
 90 510 80 500 68 500 c 0xef80
 31 500 0 469 0 432 c 2
 0 68 l 2
 0 31 31 0 68 0 c 0
 105 0 135 31 135 68 c 2
 135 478 l 2
 135 490 146 500 158 500 c 0
 170 500 180 490 180 478 c 2
 180 22 l 2
 180 10 190 0 202 0 c 0
 214 0 225 10 225 22 c 2
 225 478 l 2
 225 490 236 500 248 500 c 0
 260 500 270 510 270 522 c 0
 270 534 260 545 248 545 c 0
 236 545 225 556 225 568 c 2
 225 632 l 2
 225 644 236 655 248 655 c 0
 260 655 270 644 270 632 c 2
 270 588 l 2
 270 576 280 565 292 565 c 0
 304 565 315 576 315 588 c 2
 315 632 l 2
 315 669 285 700 248 700 c 0
 211 700 180 669 180 632 c 2
 180 568 l 2
 180 556 170 545 158 545 c 0
 146 545 135 556 135 568 c 2
 135 678 l 2
 135 690 124 700 112 700 c 0xdf80
292 500 m 0xdf80
 280 500 270 490 270 478 c 2
 270 -132 l 2
 270 -144 260 -155 248 -155 c 0
 236 -155 225 -144 225 -132 c 2
 225 -88 l 2
 225 -76 214 -65 202 -65 c 0
 190 -65 180 -76 180 -88 c 2
 180 -132 l 2
 180 -169 211 -200 248 -200 c 0
 285 -200 315 -169 315 -132 c 2
 315 478 l 2
 315 490 304 500 292 500 c 0xdf80
68 455 m 0xef80
 80 455 90 444 90 432 c 2
 90 68 l 2
 90 56 80 45 68 45 c 0
 56 45 45 56 45 68 c 2
 45 432 l 2
 45 444 56 455 68 455 c 0xef80
EndSplineSet
Validated: 9
Ligature2: "'liga' Standard Ligatures in Latin lookup 0 subtable" d f j
EndChar

StartChar: f_t
Encoding: 277 64261 125
Width: 190
VWidth: 824
Flags: W
HStem: 500 45<-44.992 -0.0072937 45.008 89.9927 135.008 179.993> 655 45<45.7067 89.7402>
VStem: 0 45<0.0072937 22 478 499.993 545.008 568 632 653.595> 90 45<0.0072937 22 478 499.993 545.008 568 632 653.595>
LayerCount: 2
Fore
SplineSet
68 700 m 0
 31 700 0 669 0 632 c 2
 0 568 l 2
 0 556 -10 545 -22 545 c 0
 -34 545 -45 534 -45 522 c 0
 -45 510 -34 500 -22 500 c 0
 -10 500 0 490 0 478 c 2
 0 22 l 2
 0 10 10 0 22 0 c 0
 34 0 45 10 45 22 c 2
 45 478 l 2
 45 490 56 500 68 500 c 0
 80 500 90 490 90 478 c 2
 90 22 l 2
 90 10 100 0 112 0 c 0
 124 0 135 10 135 22 c 2
 135 478 l 2
 135 490 146 500 158 500 c 0
 170 500 180 510 180 522 c 0
 180 534 170 545 158 545 c 0
 146 545 135 556 135 568 c 2
 135 632 l 2
 135 669 105 700 68 700 c 0
68 655 m 0
 80 655 90 644 90 632 c 2
 90 568 l 2
 90 556 80 545 68 545 c 0
 56 545 45 556 45 568 c 2
 45 632 l 2
 45 644 56 655 68 655 c 0
EndSplineSet
Validated: 9
Ligature2: "'liga' Standard Ligatures in Latin lookup 0 subtable" f t
EndChar

StartChar: d_f_t
Encoding: 278 -1 126
Width: 360
VWidth: 824
Flags: W
HStem: 0 45<45.7067 89.7402> 455 45<46.4053 89.9927> 500 45<135.008 179.993 225.008 269.993 315.008 359.993> 655 45<225.707 269.74>
VStem: 0 45<46.4053 68 432 453.595> 90 45<46.4053 68 432 454.992 545.008 568 678 699.993> 180 45<0.0072937 22 478 499.993 545.008 568 632 653.595> 270 45<0.0072937 22 478 499.993 545.008 568 632 653.595>
LayerCount: 2
Fore
SplineSet
112 700 m 0xbf
 100 700 90 690 90 678 c 2
 90 522 l 2
 90 510 80 500 68 500 c 0xdf
 31 500 0 469 0 432 c 2
 0 68 l 2
 0 31 31 0 68 0 c 0
 105 0 135 31 135 68 c 2
 135 478 l 2
 135 490 146 500 158 500 c 0
 170 500 180 490 180 478 c 2
 180 22 l 2
 180 10 190 0 202 0 c 0
 214 0 225 10 225 22 c 2
 225 478 l 2
 225 490 236 500 248 500 c 0
 260 500 270 490 270 478 c 2
 270 22 l 2
 270 10 280 0 292 0 c 0
 304 0 315 10 315 22 c 2
 315 478 l 2
 315 490 326 500 338 500 c 0
 350 500 360 510 360 522 c 0
 360 534 350 545 338 545 c 0
 326 545 315 556 315 568 c 2
 315 632 l 2
 315 669 285 700 248 700 c 0
 211 700 180 669 180 632 c 2
 180 568 l 2
 180 556 170 545 158 545 c 0
 146 545 135 556 135 568 c 2
 135 678 l 2
 135 690 124 700 112 700 c 0xbf
248 655 m 0
 260 655 270 644 270 632 c 2
 270 568 l 2
 270 556 260 545 248 545 c 0xbf
 236 545 225 556 225 568 c 2
 225 632 l 2
 225 644 236 655 248 655 c 0
68 455 m 0xdf
 80 455 90 444 90 432 c 2
 90 68 l 2
 90 56 80 45 68 45 c 0
 56 45 45 56 45 68 c 2
 45 432 l 2
 45 444 56 455 68 455 c 0xdf
EndSplineSet
Validated: 9
Ligature2: "'liga' Standard Ligatures in Latin lookup 0 subtable" d f t
EndChar

StartChar: d_b
Encoding: 279 -1 127
Width: 270
VWidth: 824
Flags: W
HStem: 0 45<135.707 179.74> 455 45<135.008 179.488> 500 45<-44.992 -0.0072937 45.008 89.9927>
VStem: 0 45<0.0072937 22 478 499.993 545.008 568 678 699.993> 90 45<46.4053 68 432 454.992 545.008 568 678 699.993> 180 45<46.4053 68 432 453.595>
CounterMasks: 1 1c
LayerCount: 2
Fore
SplineSet
22 700 m 0xbc
 10 700 0 690 0 678 c 2
 0 568 l 2
 0 556 -10 545 -22 545 c 0
 -34 545 -45 534 -45 522 c 0
 -45 510 -34 500 -22 500 c 0
 -10 500 0 490 0 478 c 1
 0 22 l 2
 0 10 10 0 22 0 c 0
 34 0 45 10 45 22 c 2
 45 478 l 2
 45 490 56 500 68 500 c 0xbc
 80 500 90 490 90 478 c 2
 90 68 l 2
 90 31 121 0 158 0 c 0
 195 0 225 31 225 68 c 2
 225 432 l 2
 225 469 195 500 158 500 c 0xdc
 146 500 135 510 135 522 c 2
 135 678 l 2
 135 690 124 700 112 700 c 0
 100 700 90 690 90 678 c 1
 90 568 l 2
 90 556 80 545 68 545 c 0
 56 545 45 556 45 568 c 1
 45 678 l 2
 45 690 34 700 22 700 c 0xbc
158 455 m 0xdc
 170 455 180 444 180 432 c 2
 180 68 l 2
 180 56 170 45 158 45 c 0
 146 45 135 56 135 68 c 2
 135 432 l 2
 135 444 146 455 158 455 c 0xdc
EndSplineSet
Validated: 9
Ligature2: "'liga' Standard Ligatures in Latin lookup 0 subtable" t b
EndChar

StartChar: t_h
Encoding: 280 -1 128
Width: 270
VWidth: 824
Flags: W
HStem: 455 45<135.008 179.488> 500 45<-44.992 -0.0072937 45.008 89.9927>
VStem: 0 45<0.0072937 22 478 499.993 545.008 568 678 699.993> 90 45<0.0072937 22 432 454.992 545.008 568 678 699.993> 180 45<0.0072937 22 432 453.595>
CounterMasks: 1 38
LayerCount: 2
Fore
SplineSet
22 700 m 0x78
 10 700 0 690 0 678 c 2
 0 568 l 2
 0 556 -10 545 -22 545 c 0
 -34 545 -45 534 -45 522 c 0
 -45 510 -34 500 -22 500 c 0
 -10 500 0 490 0 478 c 2
 0 22 l 2
 0 10 10 0 22 0 c 0
 34 0 45 10 45 22 c 2
 45 478 l 2
 45 490 56 500 68 500 c 0x78
 80 500 90 490 90 478 c 2
 90 22 l 2
 90 10 100 0 112 0 c 0
 124 0 135 10 135 22 c 2
 135 432 l 2
 135 444 146 455 158 455 c 0
 170 455 180 444 180 432 c 2
 180 22 l 2
 180 10 190 0 202 0 c 0
 214 0 225 10 225 22 c 2
 225 432 l 2
 225 469 195 500 158 500 c 0xb8
 146 500 135 510 135 522 c 2
 135 678 l 2
 135 690 124 700 112 700 c 0
 100 700 90 690 90 678 c 2
 90 568 l 2
 90 556 80 545 68 545 c 0
 56 545 45 556 45 568 c 2
 45 678 l 2
 45 690 34 700 22 700 c 0x78
EndSplineSet
Validated: 9
Ligature2: "'liga' Standard Ligatures in Latin lookup 0 subtable" t h
EndChar

StartChar: t_k
Encoding: 281 -1 129
Width: 270
VWidth: 824
Flags: W
HStem: 228 44<135.032 179.488> 318 44<135.032 179.488> 500 45<-44.992 -0.0072937 45.008 89.9927>
VStem: 0 45<0.0072937 22 478 499.993 545.008 568 678 699.993> 90 45<0.0072937 22 205 227.992 272.008 317.992 362.008 385 478 499.993 545.008 568 678 699.993> 180 45<0.0072937 22 205 226.488 363.512 385 478 499.993>
CounterMasks: 1 1c
LayerCount: 2
Fore
SplineSet
22 700 m 0
 10 700 0 690 0 678 c 2
 0 568 l 2
 0 556 -10 545 -22 545 c 0
 -34 545 -45 534 -45 522 c 0
 -45 510 -34 500 -22 500 c 0
 -10 500 0 490 0 478 c 2
 0 22 l 2
 0 10 10 0 22 0 c 0
 34 0 45 10 45 22 c 2
 45 478 l 2
 45 490 56 500 68 500 c 0
 80 500 90 490 90 478 c 2
 90 22 l 2
 90 10 100 0 112 0 c 0
 124 0 135 10 135 22 c 2
 135 205 l 2
 135 217 146 228 158 228 c 0
 170 228 180 217 180 205 c 2
 180 22 l 2
 180 10 190 0 202 0 c 0
 214 0 225 10 225 22 c 2
 225 205 l 2
 225 242 195 272 158 272 c 0
 146 272 135 283 135 295 c 0
 135 307 146 318 158 318 c 0
 195 318 225 348 225 385 c 2
 225 478 l 2
 225 490 214 500 202 500 c 0
 190 500 180 490 180 478 c 2
 180 385 l 2
 180 373 170 362 158 362 c 0
 146 362 135 373 135 385 c 2
 135 678 l 2
 135 690 124 700 112 700 c 0
 100 700 90 690 90 678 c 2
 90 568 l 2
 90 556 80 545 68 545 c 0
 56 545 45 556 45 568 c 2
 45 678 l 2
 45 690 34 700 22 700 c 0
EndSplineSet
Validated: 9
Ligature2: "'liga' Standard Ligatures in Latin lookup 0 subtable" t k
EndChar

StartChar: t_l
Encoding: 282 -1 130
Width: 180
VWidth: 824
Flags: W
HStem: 500 45<-44.992 -0.0072937 45.008 89.9927>
VStem: 0 45<0.0072937 22 478 499.993 545.008 568 678 699.993> 90 45<0.0072937 22 478 499.993 545.008 568 678 699.993>
LayerCount: 2
Fore
SplineSet
22 700 m 0
 10 700 0 690 0 678 c 2
 0 568 l 2
 0 556 -10 545 -22 545 c 0
 -34 545 -45 534 -45 522 c 0
 -45 510 -34 500 -22 500 c 0
 -10 500 0 490 0 478 c 2
 0 22 l 2
 0 10 10 0 22 0 c 0
 34 0 45 10 45 22 c 2
 45 478 l 2
 45 490 56 500 68 500 c 0
 80 500 90 490 90 478 c 2
 90 22 l 2
 90 10 100 0 112 0 c 0
 124 0 135 10 135 22 c 2
 135 678 l 2
 135 690 124 700 112 700 c 0
 100 700 90 690 90 678 c 2
 90 568 l 2
 90 556 80 545 68 545 c 0
 56 545 45 556 45 568 c 2
 45 678 l 2
 45 690 34 700 22 700 c 0
EndSplineSet
Validated: 9
Ligature2: "'liga' Standard Ligatures in Latin lookup 0 subtable" t l
EndChar

StartChar: d_t
Encoding: 283 -1 131
Width: 270
VWidth: 824
Flags: W
HStem: 0 45<45.7067 89.7402> 455 45<46.4053 89.9927> 500 45<135.008 179.993 225.008 269.993>
VStem: 0 45<46.4053 68 432 453.595> 90 45<46.4053 68 432 454.992 545.008 568 678 699.993> 180 45<0.0072937 22 478 499.993 545.008 568 678 699.993>
CounterMasks: 1 1c
LayerCount: 2
Fore
SplineSet
112 700 m 0xbc
 100 700 90 690 90 678 c 1
 90 522 l 2
 90 510 80 500 68 500 c 0xdc
 31 500 0 469 0 432 c 2
 0 68 l 2
 0 31 31 0 68 0 c 0
 105 0 135 31 135 68 c 2
 135 478 l 2
 135 490 146 500 158 500 c 0
 170 500 180 490 180 478 c 2
 180 22 l 2
 180 10 190 0 202 0 c 0
 214 0 225 10 225 22 c 2
 225 478 l 2
 225 490 236 500 248 500 c 0
 260 500 270 510 270 522 c 0
 270 534 260 545 248 545 c 0
 236 545 225 556 225 568 c 2
 225 678 l 2
 225 690 214 700 202 700 c 0
 190 700 180 690 180 678 c 2
 180 568 l 2
 180 556 170 545 158 545 c 0
 146 545 135 556 135 568 c 2
 135 678 l 2
 135 690 124 700 112 700 c 0xbc
68 455 m 0
 80 455 90 444 90 432 c 1
 90 68 l 2
 90 56 80 45 68 45 c 0
 56 45 45 56 45 68 c 2
 45 432 l 2
 45 444 56 455 68 455 c 0
EndSplineSet
Validated: 9
Ligature2: "'liga' Standard Ligatures in Latin lookup 0 subtable" d t
EndChar

StartChar: d_t_b
Encoding: 284 -1 132
Width: 450
VWidth: 824
Flags: W
HStem: 0 45<45.7067 89.7402 315.707 359.74> 455 45<46.4053 89.9927 315.008 359.488> 500 45<135.008 179.993 225.008 269.993>
VStem: 0 45<46.4053 68 432 453.595> 90 45<46.4053 68 432 454.992 545.008 568 678 699.993> 180 45<0.0072937 22 478 499.993 545.008 568 678 699.993> 270 45<46.4053 68 432 454.992 545.008 568 678 699.993> 360 45<46.4053 68 432 453.595>
LayerCount: 2
Fore
SplineSet
112 700 m 0xbf
 100 700 90 690 90 678 c 2
 90 522 l 2
 90 510 80 500 68 500 c 0xdf
 31 500 0 469 0 432 c 2
 0 68 l 2
 0 31 31 0 68 0 c 0
 105 0 135 31 135 68 c 2
 135 478 l 2
 135 490 146 500 158 500 c 0
 170 500 180 490 180 478 c 2
 180 22 l 2
 180 10 190 0 202 0 c 0
 214 0 225 10 225 22 c 2
 225 478 l 2
 225 490 236 500 248 500 c 0xbf
 260 500 270 490 270 478 c 2
 270 68 l 2
 270 31 301 0 338 0 c 0
 375 0 405 31 405 68 c 2
 405 432 l 2
 405 469 375 500 338 500 c 0xdf
 326 500 315 510 315 522 c 2
 315 678 l 2
 315 690 304 700 292 700 c 0
 280 700 270 690 270 678 c 2
 270 568 l 2
 270 556 260 545 248 545 c 0
 236 545 225 556 225 568 c 2
 225 678 l 2
 225 690 214 700 202 700 c 0
 190 700 180 690 180 678 c 2
 180 568 l 2
 180 556 170 545 158 545 c 0
 146 545 135 556 135 568 c 2
 135 678 l 2
 135 690 124 700 112 700 c 0xbf
68 455 m 0
 80 455 90 444 90 432 c 2
 90 68 l 2
 90 56 80 45 68 45 c 0
 56 45 45 56 45 68 c 2
 45 432 l 2
 45 444 56 455 68 455 c 0
338 455 m 0
 350 455 360 444 360 432 c 2
 360 68 l 2
 360 56 350 45 338 45 c 0
 326 45 315 56 315 68 c 2
 315 432 l 2
 315 444 326 455 338 455 c 0
EndSplineSet
Validated: 9
Ligature2: "'liga' Standard Ligatures in Latin lookup 0 subtable" d t b
EndChar

StartChar: d_t_h
Encoding: 285 -1 133
Width: 450
VWidth: 824
Flags: W
HStem: 0 45<45.7067 89.7402> 455 45<46.4053 89.9927 315.008 359.488> 500 45<135.008 179.993 225.008 269.993>
VStem: 0 45<46.4053 68 432 453.595> 90 45<46.4053 68 432 454.992 545.008 568 678 699.993> 180 45<0.0072937 22 478 499.993 545.008 568 678 699.993> 270 45<0.0072937 22 432 454.992 545.008 568 678 699.993> 360 45<0.0072937 22 432 453.595>
LayerCount: 2
Fore
SplineSet
112 700 m 0xbf
 100 700 90 690 90 678 c 2
 90 522 l 2
 90 510 80 500 68 500 c 0xdf
 31 500 0 469 0 432 c 2
 0 68 l 2
 0 31 31 0 68 0 c 0
 105 0 135 31 135 68 c 2
 135 478 l 2
 135 490 146 500 158 500 c 0
 170 500 180 490 180 478 c 2
 180 22 l 2
 180 10 190 0 202 0 c 0
 214 0 225 10 225 22 c 2
 225 478 l 2
 225 490 236 500 248 500 c 0xbf
 260 500 270 490 270 478 c 2
 270 22 l 2
 270 10 280 0 292 0 c 0
 304 0 315 10 315 22 c 2
 315 432 l 2
 315 444 326 455 338 455 c 0
 350 455 360 444 360 432 c 2
 360 22 l 2
 360 10 370 0 382 0 c 0
 394 0 405 10 405 22 c 2
 405 432 l 2
 405 469 375 500 338 500 c 0xdf
 326 500 315 510 315 522 c 2
 315 678 l 2
 315 690 304 700 292 700 c 0
 280 700 270 690 270 678 c 2
 270 568 l 2
 270 556 260 545 248 545 c 0
 236 545 225 556 225 568 c 2
 225 678 l 2
 225 690 214 700 202 700 c 0
 190 700 180 690 180 678 c 2
 180 568 l 2
 180 556 170 545 158 545 c 0
 146 545 135 556 135 568 c 2
 135 678 l 2
 135 690 124 700 112 700 c 0xbf
68 455 m 0
 80 455 90 444 90 432 c 2
 90 68 l 2
 90 56 80 45 68 45 c 0
 56 45 45 56 45 68 c 2
 45 432 l 2
 45 444 56 455 68 455 c 0
EndSplineSet
Validated: 9
Ligature2: "'liga' Standard Ligatures in Latin lookup 0 subtable" d t h
EndChar

StartChar: d_t_k
Encoding: 286 -1 134
Width: 450
VWidth: 824
Flags: W
HStem: 0 45<45.7067 89.7402> 228 44<315.032 359.488> 318 44<315.032 359.488> 455 45<46.4053 89.9927> 500 45<135.008 179.993 225.008 269.993>
VStem: 0 45<46.4053 68 432 453.595> 90 45<46.4053 68 432 454.992 545.008 568 678 699.993> 180 45<0.0072937 22 478 499.993 545.008 568 678 699.993> 270 45<0.0072937 22 205 227.992 272.008 317.992 362.008 385 478 499.993 545.008 568 678 699.993> 360 45<0.0072937 22 205 226.488 363.512 385 478 499.993>
LayerCount: 2
Fore
SplineSet
112 700 m 0xefc0
 100 700 90 690 90 678 c 2
 90 522 l 2
 90 510 80 500 68 500 c 0xf7c0
 31 500 0 469 0 432 c 2
 0 68 l 2
 0 31 31 0 68 0 c 0
 105 0 135 31 135 68 c 2
 135 478 l 2
 135 490 146 500 158 500 c 0
 170 500 180 490 180 478 c 2
 180 22 l 2
 180 10 190 0 202 0 c 0
 214 0 225 10 225 22 c 2
 225 478 l 2
 225 490 236 500 248 500 c 0
 260 500 270 490 270 478 c 2
 270 22 l 2
 270 10 280 0 292 0 c 0
 304 0 315 10 315 22 c 2
 315 205 l 2
 315 217 326 228 338 228 c 0
 350 228 360 217 360 205 c 2
 360 22 l 2
 360 10 370 0 382 0 c 0
 394 0 405 10 405 22 c 2
 405 205 l 2
 405 242 375 272 338 272 c 0
 326 272 315 283 315 295 c 0
 315 307 326 318 338 318 c 0
 375 318 405 348 405 385 c 2
 405 478 l 2
 405 490 394 500 382 500 c 0
 370 500 360 490 360 478 c 2
 360 385 l 2
 360 373 350 362 338 362 c 0
 326 362 315 373 315 385 c 2
 315 678 l 2
 315 690 304 700 292 700 c 0
 280 700 270 690 270 678 c 2
 270 568 l 2
 270 556 260 545 248 545 c 0
 236 545 225 556 225 568 c 2
 225 678 l 2
 225 690 214 700 202 700 c 0
 190 700 180 690 180 678 c 2
 180 568 l 2
 180 556 170 545 158 545 c 0
 146 545 135 556 135 568 c 2
 135 678 l 2
 135 690 124 700 112 700 c 0xefc0
68 455 m 0
 80 455 90 444 90 432 c 2
 90 68 l 2
 90 56 80 45 68 45 c 0
 56 45 45 56 45 68 c 2
 45 432 l 2
 45 444 56 455 68 455 c 0
EndSplineSet
Validated: 9
Ligature2: "'liga' Standard Ligatures in Latin lookup 0 subtable" d t k
EndChar

StartChar: d_t_l
Encoding: 287 -1 135
Width: 360
VWidth: 824
Flags: W
HStem: 0 45<45.7067 89.7402> 455 45<46.4053 89.9927> 500 45<135.008 179.993 225.008 269.993>
VStem: 0 45<46.4053 68 432 453.595> 90 45<46.4053 68 432 454.992 545.008 568 678 699.993> 180 45<0.0072937 22 478 499.993 545.008 568 678 699.993> 270 45<0.0072937 22 478 499.993 545.008 568 678 699.993>
LayerCount: 2
Fore
SplineSet
112 700 m 0xbe
 100 700 90 690 90 678 c 2
 90 522 l 2
 90 510 80 500 68 500 c 0xde
 31 500 0 469 0 432 c 2
 0 68 l 2
 0 31 31 0 68 0 c 0
 105 0 135 31 135 68 c 2
 135 478 l 2
 135 490 146 500 158 500 c 0
 170 500 180 490 180 478 c 2
 180 22 l 2
 180 10 190 0 202 0 c 0
 214 0 225 10 225 22 c 2
 225 478 l 2
 225 490 236 500 248 500 c 0
 260 500 270 490 270 478 c 2
 270 22 l 2
 270 10 280 0 292 0 c 0
 304 0 315 10 315 22 c 2
 315 678 l 2
 315 690 304 700 292 700 c 0
 280 700 270 690 270 678 c 2
 270 568 l 2
 270 556 260 545 248 545 c 0
 236 545 225 556 225 568 c 2
 225 678 l 2
 225 690 214 700 202 700 c 0
 190 700 180 690 180 678 c 2
 180 568 l 2
 180 556 170 545 158 545 c 0
 146 545 135 556 135 568 c 2
 135 678 l 2
 135 690 124 700 112 700 c 0xbe
68 455 m 0
 80 455 90 444 90 432 c 2
 90 68 l 2
 90 56 80 45 68 45 c 0
 56 45 45 56 45 68 c 2
 45 432 l 2
 45 444 56 455 68 455 c 0
EndSplineSet
Validated: 9
Ligature2: "'liga' Standard Ligatures in Latin lookup 0 subtable" d t l
EndChar

StartChar: l_t
Encoding: 288 -1 136
Width: 180
VWidth: 824
Flags: W
HStem: 500 45<45.008 89.9927 135.008 179.993>
VStem: 0 45<0.0072937 22 478 499.993 545.008 568 678 699.993> 90 45<0.0072937 22 478 499.993 545.008 568 678 699.993>
LayerCount: 2
Fore
SplineSet
22 700 m 0
 10 700 0 690 0 678 c 2
 0 22 l 2
 0 10 10 0 22 0 c 0
 34 0 45 10 45 22 c 1
 45 478 l 2
 45 490 56 500 68 500 c 0
 80 500 90 490 90 478 c 2
 90 22 l 2
 90 10 100 0 112 0 c 0
 124 0 135 10 135 22 c 2
 135 478 l 2
 135 490 146 500 158 500 c 0
 170 500 180 510 180 522 c 0
 180 534 170 545 158 545 c 0
 146 545 135 556 135 568 c 2
 135 678 l 2
 135 690 124 700 112 700 c 0
 100 700 90 690 90 678 c 1
 90 568 l 2
 90 556 80 545 68 545 c 0
 56 545 45 556 45 568 c 2
 45 678 l 2
 45 690 34 700 22 700 c 0
EndSplineSet
Validated: 9
Ligature2: "'liga' Standard Ligatures in Latin lookup 0 subtable" l t
EndChar

StartChar: l_f
Encoding: 289 -1 137
Width: 180
VWidth: 824
Flags: W
HStem: 500 45<45.008 89.9927 135.008 158 180 201.993> 655 45<135.707 179.74>
VStem: 0 45<0.0072937 22 478 499.993 545.008 568 678 699.993> 90 45<0.0072937 22 478 499.993 545.008 568 632 653.595> 180 45<588.007 610 632 653.595>
CounterMasks: 1 38
LayerCount: 2
Fore
SplineSet
22 700 m 0
 10 700 0 690 0 678 c 2
 0 22 l 2
 0 10 10 0 22 0 c 0
 34 0 45 10 45 22 c 2
 45 478 l 2
 45 490 56 500 68 500 c 0
 80 500 90 490 90 478 c 1
 90 22 l 2
 90 10 100 0 112 0 c 0
 124 0 135 10 135 22 c 2
 135 478 l 2
 135 490 146 500 158 500 c 2
 180 500 l 2
 192 500 202 510 202 522 c 0
 202 534 192 545 180 545 c 2
 158 545 l 2
 146 545 135 556 135 568 c 2
 135 632 l 2
 135 644 146 655 158 655 c 0
 170 655 180 644 180 632 c 2
 180 610 l 2
 180 598 190 588 202 588 c 0
 214 588 225 598 225 610 c 2
 225 632 l 2
 225 669 195 700 158 700 c 0
 121 700 90 669 90 632 c 1
 90 568 l 2
 90 556 80 545 68 545 c 0
 56 545 45 556 45 568 c 2
 45 678 l 2
 45 690 34 700 22 700 c 0
EndSplineSet
Validated: 9
Ligature2: "'liga' Standard Ligatures in Latin lookup 0 subtable" l f
EndChar

StartChar: l_t_b
Encoding: 290 -1 138
Width: 360
VWidth: 824
Flags: W
HStem: 0 45<225.707 269.74> 455 45<225.008 269.488> 500 45<45.008 89.9927 135.008 179.993>
VStem: 0 45<0.0072937 22 478 499.993 545.008 568 678 699.993> 90 45<0.0072937 22 478 499.993 545.008 568 678 699.993> 180 45<46.4053 68 432 454.992 545.008 568 678 699.993> 270 45<46.4053 68 432 453.595>
LayerCount: 2
Fore
SplineSet
22 700 m 0xbe
 10 700 0 690 0 678 c 1
 0 22 l 2
 0 10 10 0 22 0 c 0
 34 0 45 10 45 22 c 2
 45 478 l 2
 45 490 56 500 68 500 c 0
 80 500 90 490 90 478 c 2
 90 22 l 2
 90 10 100 0 112 0 c 0
 124 0 135 10 135 22 c 2
 135 478 l 2
 135 490 146 500 158 500 c 0xbe
 170 500 180 490 180 478 c 2
 180 68 l 2
 180 31 211 0 248 0 c 0
 285 0 315 31 315 68 c 2
 315 432 l 2
 315 469 285 500 248 500 c 0xde
 236 500 225 510 225 522 c 2
 225 678 l 2
 225 690 214 700 202 700 c 0
 190 700 180 690 180 678 c 2
 180 568 l 2
 180 556 170 545 158 545 c 0
 146 545 135 556 135 568 c 2
 135 678 l 2
 135 690 124 700 112 700 c 0
 100 700 90 690 90 678 c 1
 90 568 l 2
 90 556 80 545 68 545 c 0
 56 545 45 556 45 568 c 2
 45 678 l 2
 45 690 34 700 22 700 c 0xbe
248 455 m 0xde
 260 455 270 444 270 432 c 2
 270 68 l 2
 270 56 260 45 248 45 c 0
 236 45 225 56 225 68 c 2
 225 432 l 2
 225 444 236 455 248 455 c 0xde
EndSplineSet
Validated: 9
Ligature2: "'liga' Standard Ligatures in Latin lookup 0 subtable" l t b
EndChar

StartChar: l_t_h
Encoding: 291 -1 139
Width: 360
VWidth: 824
Flags: W
HStem: 455 45<225.008 269.488> 500 45<45.008 89.9927 135.008 179.993>
VStem: 0 45<0.0072937 22 478 499.993 545.008 568 678 699.993> 90 45<0.0072937 22 478 499.993 545.008 568 678 699.993> 180 45<0.0072937 22 432 454.992 545.008 568 678 699.993> 270 45<0.0072937 22 432 453.595>
LayerCount: 2
Fore
SplineSet
22 700 m 0x7c
 10 700 0 690 0 678 c 2
 0 22 l 2
 0 10 10 0 22 0 c 0
 34 0 45 10 45 22 c 2
 45 478 l 2
 45 490 56 500 68 500 c 0
 80 500 90 490 90 478 c 1
 90 22 l 2
 90 10 100 0 112 0 c 0
 124 0 135 10 135 22 c 2
 135 478 l 2
 135 490 146 500 158 500 c 0x7c
 170 500 180 490 180 478 c 2
 180 22 l 2
 180 10 190 0 202 0 c 0
 214 0 225 10 225 22 c 2
 225 432 l 2
 225 444 236 455 248 455 c 0
 260 455 270 444 270 432 c 2
 270 22 l 2
 270 10 280 0 292 0 c 0
 304 0 315 10 315 22 c 2
 315 432 l 2
 315 469 285 500 248 500 c 0xbc
 236 500 225 510 225 522 c 2
 225 678 l 2
 225 690 214 700 202 700 c 0
 190 700 180 690 180 678 c 2
 180 568 l 2
 180 556 170 545 158 545 c 0
 146 545 135 556 135 568 c 2
 135 678 l 2
 135 690 124 700 112 700 c 0
 100 700 90 690 90 678 c 1
 90 568 l 2
 90 556 80 545 68 545 c 0
 56 545 45 556 45 568 c 2
 45 678 l 2
 45 690 34 700 22 700 c 0x7c
EndSplineSet
Validated: 9
Ligature2: "'liga' Standard Ligatures in Latin lookup 0 subtable" l t h
EndChar

StartChar: l_t_k
Encoding: 292 -1 140
Width: 360
VWidth: 824
Flags: W
HStem: 228 44<225.032 269.488> 318 44<225.032 269.488> 500 45<45.008 89.9927 135.008 179.993>
VStem: 0 45<0.0072937 22 478 499.993 545.008 568 678 699.993> 90 45<0.0072937 22 478 499.993 545.008 568 678 699.993> 180 45<0.0072937 22 205 227.992 272.008 317.992 362.008 385 478 499.993 545.008 568 678 699.993> 270 45<0.0072937 22 205 226.488 363.512 385 478 499.993>
LayerCount: 2
Fore
SplineSet
22 700 m 0
 10 700 0 690 0 678 c 2
 0 22 l 2
 0 10 10 0 22 0 c 0
 34 0 45 10 45 22 c 2
 45 478 l 2
 45 490 56 500 68 500 c 0
 80 500 90 490 90 478 c 2
 90 22 l 2
 90 10 100 0 112 0 c 0
 124 0 135 10 135 22 c 2
 135 478 l 2
 135 490 146 500 158 500 c 0
 170 500 180 490 180 478 c 2
 180 22 l 2
 180 10 190 0 202 0 c 0
 214 0 225 10 225 22 c 2
 225 205 l 2
 225 217 236 228 248 228 c 0
 260 228 270 217 270 205 c 2
 270 22 l 2
 270 10 280 0 292 0 c 0
 304 0 315 10 315 22 c 2
 315 205 l 2
 315 242 285 272 248 272 c 0
 236 272 225 283 225 295 c 0
 225 307 236 318 248 318 c 0
 285 318 315 348 315 385 c 2
 315 478 l 2
 315 490 304 500 292 500 c 0
 280 500 270 490 270 478 c 2
 270 385 l 2
 270 373 260 362 248 362 c 0
 236 362 225 373 225 385 c 2
 225 678 l 2
 225 690 214 700 202 700 c 0
 190 700 180 690 180 678 c 2
 180 568 l 2
 180 556 170 545 158 545 c 0
 146 545 135 556 135 568 c 2
 135 678 l 2
 135 690 124 700 112 700 c 0
 100 700 90 690 90 678 c 1
 90 568 l 2
 90 556 80 545 68 545 c 0
 56 545 45 556 45 568 c 1
 45 678 l 2
 45 690 34 700 22 700 c 0
EndSplineSet
Validated: 9
Ligature2: "'liga' Standard Ligatures in Latin lookup 0 subtable" l t k
EndChar

StartChar: l_t_l
Encoding: 293 -1 141
Width: 180
VWidth: 824
HStem: 500 45<45.008 89.9927 135.008 179.993>
VStem: 0 45<0.00801849 23 478 499.993 545.008 568 678 699.993> 90 45<0.0072937 22 478 499.993 545.008 568 678 699.993> 180 45<0.00801849 23 478 499.993 545.008 568 678 699.993>
CounterMasks: 1 70
LayerCount: 2
Fore
SplineSet
22 700 m 0
 10 700 0 690 0 678 c 2
 0 22 l 2
 0 10 10 0 22 0 c 0
 34 0 45 11 45 23 c 1
 45 478 l 2
 45 490 56 500 68 500 c 0
 80 500 90 490 90 478 c 2
 90 22 l 2
 90 10 100 0 112 0 c 0
 124 0 135 10 135 22 c 2
 135 478 l 2
 135 490 146 500 158 500 c 0
 170 500 180 490 180 478 c 2
 180 22 l 2
 180 10 190 0 202 0 c 0
 214 0 225 11 225 23 c 1
 225 678 l 2
 225 690 214 700 202 700 c 0
 190 700 180 690 180 678 c 2
 180 568 l 2
 180 556 170 545 158 545 c 0
 146 545 135 556 135 568 c 2
 135 678 l 2
 135 690 124 700 112 700 c 0
 100 700 90 690 90 678 c 2
 90 568 l 2
 90 556 80 545 68 545 c 0
 56 545 45 556 45 568 c 2
 45 678 l 2
 45 690 34 700 22 700 c 0
EndSplineSet
Validated: 9
Ligature2: "'liga' Standard Ligatures in Latin lookup 0 subtable" l t l
EndChar

StartChar: l_f_b
Encoding: 294 -1 142
Width: 360
VWidth: 824
Flags: W
HStem: 0 45<225.707 269.74> 455 45<225.008 269.488> 500 45<45.008 89.9927 135.008 179.993> 655 45<135.707 179.74>
VStem: 0 45<0.0072937 22 478 499.993 545.008 568 678 699.993> 90 45<0.0072937 22 478 499.993 545.008 568 632 653.595> 180 45<46.4053 68 432 454.992 545.008 568 632 653.595> 270 45<46.4053 68 432 453.595>
LayerCount: 2
Fore
SplineSet
22 700 m 0xbf
 10 700 0 690 0 678 c 2
 0 22 l 2
 0 10 10 0 22 0 c 0
 34 0 45 10 45 22 c 2
 45 478 l 2
 45 490 56 500 68 500 c 0
 80 500 90 490 90 478 c 2
 90 22 l 2
 90 10 100 0 112 0 c 0
 124 0 135 10 135 22 c 2
 135 478 l 2
 135 490 146 500 158 500 c 0xbf
 170 500 180 490 180 478 c 2
 180 68 l 2
 180 31 211 0 248 0 c 0
 285 0 315 31 315 68 c 2
 315 432 l 2
 315 469 285 500 248 500 c 0xdf
 236 500 225 510 225 522 c 2
 225 632 l 2
 225 669 195 700 158 700 c 0
 121 700 90 669 90 632 c 1
 90 568 l 2
 90 556 80 545 68 545 c 0
 56 545 45 556 45 568 c 1
 45 678 l 2
 45 690 34 700 22 700 c 0xbf
158 655 m 0
 170 655 180 644 180 632 c 2
 180 568 l 2
 180 556 170 545 158 545 c 0
 146 545 135 556 135 568 c 2
 135 632 l 2
 135 644 146 655 158 655 c 0
248 455 m 0xdf
 260 455 270 444 270 432 c 2
 270 68 l 2
 270 56 260 45 248 45 c 0
 236 45 225 56 225 68 c 2
 225 432 l 2
 225 444 236 455 248 455 c 0xdf
EndSplineSet
Validated: 9
Ligature2: "'liga' Standard Ligatures in Latin lookup 0 subtable" l f b
EndChar

StartChar: l_f_f
Encoding: 295 -1 143
Width: 270
VWidth: 824
Flags: W
HStem: 1026 45<505.512 549.992 595.007 638.595> 1181 45<415.007 459.992 505.007 549.992 595.007 661.993>
VStem: 370 45<1026.01 1180.99 1226.01 1725.99> 460 45<1072.41 1180.99 1226.01 1725.99> 550 45<1071.01 1180.99 1226.01 1725.99> 640 45<1072.41 1138.99>
LayerCount: 2
Fore
SplineSet
392 1026 m 0
 380 1026 370 1037 370 1049 c 2
 370 1704 l 2
 370 1716 380 1726 392 1726 c 0
 404 1726 415 1716 415 1704 c 2
 415 1249 l 2
 415 1237 425 1226 437 1226 c 0
 449 1226 460 1237 460 1249 c 2
 460 1704 l 2
 460 1716 470 1726 482 1726 c 0
 494 1726 505 1716 505 1704 c 2
 505 1249 l 2
 505 1237 515 1226 527 1226 c 0
 539 1226 550 1237 550 1249 c 2
 550 1704 l 2
 550 1716 560 1726 572 1726 c 0
 584 1726 595 1716 595 1704 c 2
 595 1249 l 2
 595 1237 605 1226 617 1226 c 2
 640 1226 l 2
 652 1226 662 1216 662 1204 c 0
 662 1192 652 1181 640 1181 c 2
 617 1181 l 2
 605 1181 595 1171 595 1159 c 2
 595 1116 l 1
 595 1094 l 2
 595 1082 605 1071 617 1071 c 0
 629 1071 640 1082 640 1094 c 2
 640 1116 l 2
 640 1128 650 1139 662 1139 c 0
 674 1139 685 1128 685 1116 c 2
 685 1094 l 2
 685 1057 654 1026 617 1026 c 2
 527 1026 l 2
 490 1026 460 1057 460 1094 c 2
 460 1159 l 2
 460 1171 449 1181 437 1181 c 0
 425 1181 415 1171 415 1159 c 2
 415 1049 l 2
 415 1037 404 1026 392 1026 c 0
527 1071 m 0
 539 1071 550 1082 550 1094 c 2
 550 1116 l 1
 550 1159 l 2
 550 1171 539 1181 527 1181 c 0
 515 1181 505 1171 505 1159 c 2
 505 1094 l 2
 505 1082 515 1071 527 1071 c 0
EndSplineSet
Validated: 1
LCarets2: 2 0 0
Ligature2: "'liga' Standard Ligatures in Latin lookup 0 subtable" l f f
EndChar

StartChar: l_f_h
Encoding: 296 -1 144
Width: 360
VWidth: 824
Flags: W
HStem: 455 45<225 269.488> 500 45<45.008 89.9927 135.008 179.993> 655 45<135.707 179.74>
VStem: 0 45<0.0072937 22 478 499.993 545.008 568 678 699.993> 90 45<0.0072937 22 478 499.993 545.008 568 632 653.595> 180 45<0.0072937 22 433 454.993 500.007 522 632 653.595> 270 45<0.0072937 22 432 453.595>
LayerCount: 2
Fore
SplineSet
22 700 m 1x7e
 10 700 0 690 0 678 c 1
 0 22 l 2
 0 10 10 0 22 0 c 0
 34 0 45 10 45 22 c 2
 45 478 l 2
 45 490 56 500 68 500 c 0
 80 500 90 490 90 478 c 2
 90 22 l 2
 90 10 100 0 112 0 c 0
 124 0 135 10 135 22 c 2
 135 478 l 2
 135 490 146 500 158 500 c 0
 170 500 180 490 180 478 c 1
 180 500 l 1
 180 545 l 1
 180 568 l 1
 180 556 170 545 158 545 c 0x7e
 146 545 135 556 135 568 c 2
 135 632 l 2
 135 644 146 655 158 655 c 0
 170 655 180 644 180 632 c 1
 180 22 l 2
 180 10 191 0 203 0 c 0
 215 0 225 10 225 22 c 2
 225 433 l 2
 225 445 236 455 248 455 c 0
 260 455 270 444 270 432 c 2
 270 22 l 2
 270 10 280 0 292 0 c 0
 304 0 315 10 315 22 c 2
 315 432 l 2
 315 469 285 500 248 500 c 0xbe
 236 500 225 510 225 522 c 1
 225 632 l 1
 225 669 195 700 158 700 c 0
 121 700 90 669 90 632 c 1
 90 568 l 2
 90 556 80 545 68 545 c 0
 56 545 45 556 45 568 c 2
 45 678 l 2
 45 690 34 700 22 700 c 1x7e
EndSplineSet
Validated: 5
Ligature2: "'liga' Standard Ligatures in Latin lookup 0 subtable" l f h
EndChar

StartChar: l_f_k
Encoding: 297 -1 145
Width: 360
VWidth: 824
Flags: W
HStem: 228 44<225.032 269.488> 318 44<225.032 269.488> 500 45<45.008 89.9927 135.008 179.993> 655 45<135.707 179.74>
VStem: 0 45<0.0072937 22 478 499.993 545.008 568 678 699.993> 90 45<0.0072937 22 478 499.993 545.008 568 632 653.595> 180 45<0.0072937 22 205 227.992 272.008 317.992 362.008 385 478 499.993 545.008 568 632 653.595> 270 45<0.0072937 22 205 226.488 363.512 385 478 499.993>
LayerCount: 2
Fore
SplineSet
22 700 m 0
 10 700 0 690 0 678 c 1
 0 22 l 2
 0 10 10 0 22 0 c 0
 34 0 45 10 45 22 c 2
 45 478 l 2
 45 490 56 500 68 500 c 0
 80 500 90 490 90 478 c 2
 90 22 l 2
 90 10 100 0 112 0 c 0
 124 0 135 10 135 22 c 2
 135 478 l 2
 135 490 146 500 158 500 c 0
 170 500 180 490 180 478 c 2
 180 22 l 2
 180 10 190 0 202 0 c 0
 214 0 225 10 225 22 c 2
 225 205 l 2
 225 217 236 228 248 228 c 0
 260 228 270 217 270 205 c 2
 270 22 l 2
 270 10 280 0 292 0 c 0
 304 0 315 10 315 22 c 2
 315 205 l 2
 315 242 285 272 248 272 c 0
 236 272 225 283 225 295 c 0
 225 307 236 318 248 318 c 0
 285 318 315 348 315 385 c 2
 315 478 l 2
 315 490 304 500 292 500 c 0
 280 500 270 490 270 478 c 2
 270 385 l 2
 270 373 260 362 248 362 c 0
 236 362 225 373 225 385 c 2
 225 632 l 2
 225 669 195 700 158 700 c 0
 121 700 90 669 90 632 c 1
 90 568 l 2
 90 556 80 545 68 545 c 0
 56 545 45 556 45 568 c 2
 45 678 l 2
 45 690 34 700 22 700 c 0
158 655 m 0
 170 655 180 644 180 632 c 2
 180 568 l 2
 180 556 170 545 158 545 c 0
 146 545 135 556 135 568 c 2
 135 632 l 2
 135 644 146 655 158 655 c 0
EndSplineSet
Validated: 9
Ligature2: "'liga' Standard Ligatures in Latin lookup 0 subtable" l f k
EndChar

StartChar: l_f_l
Encoding: 298 -1 146
Width: 270
VWidth: 824
Flags: W
HStem: 500 45<45.008 89.9927 135.008 179.993> 655 45<135.707 179.74>
VStem: 0 45<0.0072937 22 478 499.993 545.008 568 678 699.993> 90 45<0.0072937 22 478 499.993 545.008 568 632 653.595> 180 45<0.0072937 22 478 499.993 545.008 568 632 653.595>
CounterMasks: 1 38
LayerCount: 2
Fore
SplineSet
22 700 m 0
 10 700 0 690 0 678 c 2
 0 22 l 2
 0 10 10 0 22 0 c 0
 34 0 45 10 45 22 c 2
 45 478 l 2
 45 490 56 500 68 500 c 0
 80 500 90 490 90 478 c 2
 90 22 l 2
 90 10 100 0 112 0 c 0
 124 0 135 10 135 22 c 2
 135 478 l 2
 135 490 146 500 158 500 c 0
 170 500 180 490 180 478 c 2
 180 23 l 1
 180 22 l 0
 180 10 190 0 202 0 c 0
 214 0 225 10 225 22 c 0
 225 23 l 0
 225 632 l 2
 225 669 195 700 158 700 c 0
 121 700 90 669 90 632 c 2
 90 568 l 2
 90 556 80 545 68 545 c 0
 56 545 45 556 45 568 c 2
 45 678 l 2
 45 690 34 700 22 700 c 0
158 655 m 0
 170 655 180 644 180 632 c 2
 180 568 l 2
 180 556 170 545 158 545 c 0
 146 545 135 556 135 568 c 2
 135 632 l 2
 135 644 146 655 158 655 c 0
EndSplineSet
Validated: 9
Ligature2: "'liga' Standard Ligatures in Latin lookup 0 subtable" l f l
EndChar

StartChar: f_f_l
Encoding: 299 64260 147
Width: 270
VWidth: 824
Flags: W
HStem: 500 45<-44.992 -0.0072937 45.008 89.9927 135.008 179.993> 655 45<45.5123 67 68 89.9927 135.007 178.595>
VStem: 0 45<0.0072937 22 478 499.993 545.008 568 632 653.595> 90 45<0.0072937 22 478 499.993 545.008 568 632 655> 180 45<0.00801849 23 478 499.993 545.008 568 632 654.488>
CounterMasks: 1 38
LayerCount: 2
Fore
SplineSet
67 700 m 2
 30 700 0 669 0 632 c 1
 0 568 l 2
 0 556 -10 545 -22 545 c 0
 -34 545 -45 534 -45 522 c 0
 -45 510 -34 500 -22 500 c 0
 -10 500 0 490 0 478 c 2
 0 22 l 2
 0 10 10 0 22 0 c 0
 34 0 45 10 45 22 c 2
 45 478 l 2
 45 490 56 500 68 500 c 0
 80 500 90 490 90 478 c 2
 90 22 l 2
 90 10 100 0 112 0 c 0
 124 0 135 10 135 22 c 2
 135 478 l 2
 135 490 146 500 158 500 c 0
 170 500 180 490 180 478 c 2
 180 22 l 2
 180 10 190 0 202 -0 c 0
 214 0 225 11 225 23 c 1
 225 632 l 1
 225 633 l 2
 225 670 194 700 157 700 c 1
 67 700 l 2
67 655 m 2
 68 655 l 2
 80 655 90 644 90 632 c 2
 90 610 l 1
 90 568 l 2
 90 556 80 545 68 545 c 0
 56 545 45 556 45 568 c 2
 45 632 l 2
 45 644 55 655 67 655 c 2
158 655 m 2
 170 655 180 644 180 632 c 1
 180 568 l 2
 180 556 170 545 158 545 c 0
 146 545 135 556 135 568 c 2
 135 610 l 1
 135 632 l 2
 135 644 145 655 157 655 c 1
 158 655 l 2
EndSplineSet
Validated: 9
Ligature2: "'liga' Standard Ligatures in Latin lookup 0 subtable" f f l
EndChar

StartChar: "f_+APYA"
Encoding: 300 -1 148
Width: 270
VWidth: 824
Flags: W
HStem: 0 45<135.707 179.74> 455 45<135.707 179.74> 500 45<-44.992 -0.0072937 45.008 89.9927> 542 46<180.007 224.992> 655 45<45.7067 89.7402>
VStem: 0 45<0.0072937 22 478 499.993 545.008 568 632 653.595> 90 45<46.4053 68 432 453.595 542.008 565 632 653.595> 180 45<46.4053 68 432 453.595 542.008 587.992>
CounterMasks: 1 07
LayerCount: 2
Fore
SplineSet
68 700 m 0x9f
 31 700 0 669 0 632 c 2
 0 568 l 2
 0 556 -10 545 -22 545 c 0
 -34 545 -45 534 -45 522 c 0
 -45 510 -34 500 -22 500 c 0
 -10 500 0 490 0 478 c 2
 0 22 l 2
 0 10 10 0 22 0 c 0
 34 0 45 10 45 22 c 2
 45 478 l 2
 45 490 56 500 68 500 c 0
 80 500 90 510 90 522 c 0
 90 534 80 545 68 545 c 0xaf
 56 545 45 556 45 568 c 2
 45 632 l 2
 45 644 56 655 68 655 c 0
 80 655 90 644 90 632 c 2
 90 565 l 2
 90 553 100 542 112 542 c 0
 124 542 135 553 135 565 c 2
 135 632 l 2
 135 669 105 700 68 700 c 0x9f
202 588 m 0x9f
 190 588 180 577 180 565 c 0
 180 553 190 542 202 542 c 0
 214 542 225 553 225 565 c 0
 225 577 214 588 202 588 c 0x9f
158 500 m 0xcf
 121 500 90 469 90 432 c 2
 90 68 l 2
 90 31 121 0 158 0 c 0
 195 0 225 31 225 68 c 2
 225 432 l 2
 225 469 195 500 158 500 c 0xcf
158 455 m 0
 170 455 180 444 180 432 c 2
 180 68 l 2
 180 56 170 45 158 45 c 0
 146 45 135 56 135 68 c 2
 135 432 l 2
 135 444 146 455 158 455 c 0
EndSplineSet
Validated: 521
Ligature2: "'liga' Standard Ligatures in Latin lookup 0 subtable" f 
EndChar

StartChar: "f_+APwA"
Encoding: 301 -1 149
Width: 270
VWidth: 824
Flags: W
HStem: 0 45<135.707 179.74> 500 45<-44.992 -0.0072937 45.008 89.9927> 545 45<180.007 224.992> 655 45<45.7067 89.7402>
VStem: 0 45<0.0072937 22 477 499.992 545 567 632 653.595> 90 45<46.4053 68 478 499.993 545.008 568 632 653.595> 180 45<46.4053 68 478 499.993 545.008 589.993>
CounterMasks: 1 0e
LayerCount: 2
Fore
SplineSet
68 700 m 0xbe
 31 700 0 669 0 632 c 2
 0 567 l 2
 0 555 -10 545 -22 545 c 0
 -34 545 -45 534 -45 522 c 0
 -45 510 -34 500 -22 500 c 1
 -10 500 0 489 0 477 c 2
 0 22 l 2
 0 10 10 0 22 0 c 0
 34 0 45 10 45 22 c 2
 45 477 l 2
 45 489 56 500 68 500 c 1
 80 500 90 510 90 522 c 0
 90 534 80 545 68 545 c 2
 67 545 l 1xde
 55 545 45 555 45 567 c 1
 45 632 l 2
 45 644 56 655 68 655 c 0
 80 655 90 644 90 632 c 2
 90 568 l 2
 90 556 100 545 112 545 c 0
 124 545 135 556 135 568 c 2
 135 632 l 2
 135 669 105 700 68 700 c 0xbe
202 590 m 0xbe
 190 590 180 580 180 568 c 0
 180 556 190 545 202 545 c 0
 214 545 225 556 225 568 c 0
 225 580 214 590 202 590 c 0xbe
112 500 m 0xde
 100 500 90 490 90 478 c 2
 90 68 l 2
 90 31 121 0 158 0 c 0
 195 0 225 31 225 68 c 2
 225 478 l 2
 225 490 214 500 202 500 c 0
 190 500 180 490 180 478 c 2
 180 68 l 2
 180 56 170 45 158 45 c 0
 146 45 135 56 135 68 c 2
 135 478 l 2
 135 490 124 500 112 500 c 0xde
EndSplineSet
Validated: 521
Ligature2: "'liga' Standard Ligatures in Latin lookup 0 subtable" f 
EndChar

StartChar: "f_+AOQA"
Encoding: 302 -1 150
Width: 270
VWidth: 824
Flags: W
HStem: 0 45<135.707 179.74> 228 44<136.405 179.971> 455 45<135.707 179.74> 500 45<-44.992 -0.0072937 45.008 89.9927> 545 45<180.007 224.992> 655 45<45.7067 89.7402>
VStem: 0 45<0.0072937 22 478 499.993 545.008 568 632 653.595> 90 45<46.4053 68 205 226.488 365.008 388 432 453.595 545.008 568 632 653.595> 180 45<46.4053 68 205 227.992 272 295 432 453.595 545.008 589.993>
CounterMasks: 1 0380
LayerCount: 2
Fore
SplineSet
68 700 m 0xcf80
 31 700 0 669 0 632 c 2
 0 568 l 2
 0 556 -10 545 -22 545 c 0
 -34 545 -45 534 -45 522 c 0
 -45 510 -34 500 -22 500 c 0
 -10 500 0 490 0 478 c 2
 0 22 l 2
 0 10 10 0 22 0 c 0
 34 0 45 10 45 22 c 2
 45 478 l 2
 45 490 56 500 68 500 c 0
 80 500 90 510 90 522 c 0
 90 534 80 545 68 545 c 0xd780
 56 545 45 556 45 568 c 2
 45 632 l 2
 45 644 56 655 68 655 c 0
 80 655 90 644 90 632 c 2
 90 568 l 2
 90 556 100 545 112 545 c 0
 124 545 135 556 135 568 c 2
 135 632 l 2
 135 669 105 700 68 700 c 0xcf80
202 590 m 0xcf80
 190 590 180 580 180 568 c 0
 180 556 190 545 202 545 c 0
 214 545 225 556 225 568 c 0
 225 580 214 590 202 590 c 0xcf80
158 500 m 0xe780
 121 500 90 469 90 432 c 2
 90 388 l 2
 90 376 100 365 112 365 c 0
 124 365 135 376 135 388 c 2
 135 432 l 2
 135 444 146 455 158 455 c 0
 170 455 180 444 180 432 c 2
 180 295 l 2
 180 283 170 272 158 272 c 0
 121 272 90 242 90 205 c 2
 90 68 l 2
 90 31 121 0 158 0 c 0
 195 0 225 31 225 68 c 2
 225 432 l 2
 225 469 195 500 158 500 c 0xe780
158 228 m 0
 170 228 180 217 180 205 c 2
 180 68 l 2
 180 56 170 45 158 45 c 0
 146 45 135 56 135 68 c 2
 135 205 l 2
 135 217 146 228 158 228 c 0
EndSplineSet
Validated: 521
Ligature2: "'liga' Standard Ligatures in Latin lookup 0 subtable" f 
EndChar

StartChar: "d_f_+APYA"
Encoding: 303 -1 151
Width: 450
VWidth: 824
Flags: W
HStem: 0 45<45.7067 89.7402 315.707 359.74> 455 45<46.4053 89.9927 315.707 359.74> 500 45<135.008 179.993 225.008 269.993> 542 46<360.007 404.992> 655 45<225.707 269.74>
VStem: 0 45<46.4053 68 432 453.595> 90 45<46.4053 68 432 454.992 545.008 568 678 699.993> 180 45<0.0072937 22 478 499.993 545.008 568 632 653.595> 270 45<46.4053 68 432 453.595 542.008 565 632 653.595> 360 45<46.4053 68 432 453.595 542.008 587.992>
LayerCount: 2
Fore
SplineSet
112 700 m 0xafc0
 100 700 90 690 90 678 c 1
 90 522 l 2
 90 510 80 500 68 500 c 0xcfc0
 31 500 0 469 0 432 c 2
 0 68 l 2
 0 31 31 0 68 0 c 0
 105 0 135 31 135 68 c 2
 135 478 l 2
 135 490 146 500 158 500 c 0
 170 500 180 490 180 478 c 2
 180 22 l 2
 180 10 190 0 202 0 c 0
 214 0 225 10 225 22 c 2
 225 478 l 2
 225 490 236 500 248 500 c 0
 260 500 270 510 270 522 c 0
 270 534 260 545 248 545 c 0xafc0
 236 545 225 556 225 568 c 2
 225 632 l 2
 225 644 236 655 248 655 c 0
 260 655 270 644 270 632 c 2
 270 565 l 2
 270 553 280 542 292 542 c 0x9fc0
 304 542 315 553 315 565 c 2
 315 632 l 2
 315 669 285 700 248 700 c 0
 211 700 180 669 180 632 c 2
 180 568 l 2
 180 556 170 545 158 545 c 0
 146 545 135 556 135 568 c 2
 135 678 l 2
 135 690 124 700 112 700 c 0xafc0
382 588 m 0x9fc0
 370 588 360 577 360 565 c 0
 360 553 370 542 382 542 c 0
 394 542 405 553 405 565 c 0
 405 577 394 588 382 588 c 0x9fc0
338 500 m 0xcfc0
 301 500 270 469 270 432 c 2
 270 68 l 2
 270 31 301 0 338 0 c 0
 375 0 405 31 405 68 c 2
 405 432 l 2
 405 469 375 500 338 500 c 0xcfc0
68 455 m 0
 80 455 90 444 90 432 c 1
 90 68 l 2
 90 56 80 45 68 45 c 0
 56 45 45 56 45 68 c 2
 45 432 l 2
 45 444 56 455 68 455 c 0
338 455 m 0
 350 455 360 444 360 432 c 2
 360 68 l 2
 360 56 350 45 338 45 c 0
 326 45 315 56 315 68 c 2
 315 432 l 2
 315 444 326 455 338 455 c 0
EndSplineSet
Validated: 521
Ligature2: "'liga' Standard Ligatures in Latin lookup 0 subtable" d f 
EndChar

StartChar: "d_f_+APwA"
Encoding: 304 -1 152
Width: 450
VWidth: 824
Flags: W
HStem: 0 45<45.7067 89.7402 315.707 359.74> 455 45<46.4053 89.9927> 500 45<135.008 179.993 225.008 269.993> 545 45<360.007 404.992> 655 45<225.707 269.74>
VStem: 0 45<46.4053 68 432 453.595> 90 45<46.4053 68 432 454.992 545.008 568 678 699.993> 180 45<0.0072937 22 478 499.993 545.008 568 632 653.595> 270 45<46.4053 68 478 499.993 545.008 568 632 653.595> 360 45<46.4053 68 478 499.993 545.008 589.993>
LayerCount: 2
Fore
SplineSet
112 700 m 0xafc0
 100 700 90 690 90 678 c 2
 90 522 l 2
 90 510 80 500 68 500 c 0xcfc0
 31 500 0 469 0 432 c 2
 0 68 l 2
 0 31 31 0 68 0 c 0
 105 0 135 31 135 68 c 2
 135 478 l 2
 135 490 146 500 158 500 c 0
 170 500 180 490 180 478 c 2
 180 22 l 2
 180 10 190 0 202 0 c 0
 214 0 225 10 225 22 c 2
 225 478 l 2
 225 490 236 500 248 500 c 0
 260 500 270 510 270 522 c 0
 270 534 260 545 248 545 c 0xafc0
 236 545 225 556 225 568 c 2
 225 632 l 2
 225 644 236 655 248 655 c 0
 260 655 270 644 270 632 c 2
 270 568 l 2
 270 556 280 545 292 545 c 0x9fc0
 304 545 315 556 315 568 c 2
 315 632 l 2
 315 669 285 700 248 700 c 0
 211 700 180 669 180 632 c 2
 180 568 l 2
 180 556 170 545 158 545 c 0
 146 545 135 556 135 568 c 2
 135 678 l 2
 135 690 124 700 112 700 c 0xafc0
382 590 m 0x9fc0
 370 590 360 580 360 568 c 0
 360 556 370 545 382 545 c 0
 394 545 405 556 405 568 c 0
 405 580 394 590 382 590 c 0x9fc0
292 500 m 0xafc0
 280 500 270 490 270 478 c 2
 270 68 l 2
 270 31 301 0 338 0 c 0
 375 0 405 31 405 68 c 2
 405 478 l 2
 405 490 394 500 382 500 c 0
 370 500 360 490 360 478 c 2
 360 68 l 2
 360 56 350 45 338 45 c 0
 326 45 315 56 315 68 c 2
 315 478 l 2
 315 490 304 500 292 500 c 0xafc0
68 455 m 0xcfc0
 80 455 90 444 90 432 c 2
 90 68 l 2
 90 56 80 45 68 45 c 0
 56 45 45 56 45 68 c 2
 45 432 l 2
 45 444 56 455 68 455 c 0xcfc0
EndSplineSet
Validated: 521
Ligature2: "'liga' Standard Ligatures in Latin lookup 0 subtable" d f 
EndChar

StartChar: "d_f_+AOQA"
Encoding: 305 -1 153
Width: 450
VWidth: 824
Flags: W
HStem: 0 45<45.2598 89.2933 315.26 359.293> 228 45<315.512 359.992> 455 45<45.5123 89.992 315.256 359.297> 500 45<135.007 179.992 225.007 269.992> 545 45<360.007 404.992> 655 45<225.256 269.297>
VStem: -0 45<46.4053 68 433 454.488> 90 45<46.4053 68 433 454.993 545.008 568 678 699.993> 180 45<0.00801849 23 478 499.993 545.008 568 633 654.488> 270 45<46.4053 68 205 226.595 365.008 388 433 454.488 545.008 568 633 654.488> 360 45<46.4053 68 205 227.992 273.007 295 433 454.488 545.008 589.993>
LayerCount: 2
Fore
SplineSet
112 700 m 0xd7e0
 100 700 90 690 90 678 c 2
 90 523 l 2
 90 511 79 500 67 500 c 0xe7e0
 30 500 0 470 -0 433 c 1
 -0 68 l 2
 0 31 30 0 67 0 c 0
 104 0 135 31 135 68 c 2
 135 478 l 2
 135 490 145 500 157 500 c 0
 169 500 180 490 180 478 c 2
 180 23 l 2
 180 11 190 0 202 0 c 0
 214 0 225 11 225 23 c 2
 225 478 l 2
 225 490 235 500 247 500 c 0
 259 500 270 511 270 523 c 0
 270 535 259 545 247 545 c 0xd7e0
 235 545 225 556 225 568 c 2
 225 633 l 2
 225 645 235 655 247 655 c 0
 259 655 270 645 270 633 c 2
 270 568 l 2
 270 556 280 545 292 545 c 0xcfe0
 304 545 315 556 315 568 c 2
 315 633 l 2
 315 670 284 700 247 700 c 0
 210 700 180 670 180 633 c 2
 180 568 l 2
 180 556 169 545 157 545 c 0
 145 545 135 556 135 568 c 2
 135 678 l 2
 135 690 124 700 112 700 c 0xd7e0
382 590 m 0xcfe0
 370 590 360 580 360 568 c 0
 360 556 370 545 382 545 c 0
 394 545 405 556 405 568 c 0
 405 580 394 590 382 590 c 0xcfe0
337 500 m 0xe7e0
 300 500 270 470 270 433 c 2
 270 388 l 2
 270 376 280 365 292 365 c 0
 304 365 315 376 315 388 c 2
 315 433 l 2
 315 445 325 455 337 455 c 0
 349 455 360 445 360 433 c 2
 360 295 l 2
 360 283 349 273 337 273 c 0
 300 273 270 242 270 205 c 2
 270 68 l 2
 270 31 300 0 337 0 c 0
 374 0 405 31 405 68 c 2
 405 433 l 2
 405 470 374 500 337 500 c 0xe7e0
67 455 m 0
 79 455 90 445 90 433 c 2
 90 68 l 2
 90 56 79 45 67 45 c 0
 55 45 45 56 45 68 c 2
 45 433 l 2
 45 445 55 455 67 455 c 0
337 228 m 0
 349 228 360 217 360 205 c 2
 360 68 l 2
 360 56 349 45 337 45 c 0
 325 45 315 56 315 68 c 2
 315 205 l 2
 315 217 325 228 337 228 c 0
EndSplineSet
Validated: 521
Ligature2: "'liga' Standard Ligatures in Latin lookup 0 subtable" d f 
EndChar

StartChar: "l_f_+APYA"
Encoding: 306 -1 154
Width: 360
VWidth: 824
Flags: W
HStem: 0 45<225.707 269.74> 455 45<225.707 269.74> 500 45<45.008 89.9927 135.008 179.993> 542 46<270.007 314.992> 655 45<135.707 179.74>
VStem: 0 45<0.0072937 22 478 499.993 545.008 568 678 699.993> 90 45<0.0072937 22 478 499.993 545.008 568 632 653.595> 180 45<46.4053 68 432 453.595 542.008 565 632 653.595> 270 45<46.4053 68 432 453.595 542.008 587.992>
LayerCount: 2
Fore
SplineSet
22 700 m 0xaf80
 10 700 0 690 0 678 c 2
 0 22 l 2
 0 10 10 0 22 0 c 0
 34 0 45 10 45 22 c 2
 45 478 l 2
 45 490 56 500 68 500 c 0
 80 500 90 490 90 478 c 2
 90 22 l 2
 90 10 100 0 112 0 c 0
 124 0 135 10 135 22 c 2
 135 478 l 2
 135 490 146 500 158 500 c 0
 170 500 180 510 180 522 c 0
 180 534 170 545 158 545 c 0xaf80
 146 545 135 556 135 568 c 2
 135 632 l 2
 135 644 146 655 158 655 c 0
 170 655 180 644 180 632 c 2
 180 565 l 2
 180 553 190 542 202 542 c 0x9f80
 214 542 225 553 225 565 c 2
 225 632 l 2
 225 669 195 700 158 700 c 0
 121 700 90 669 90 632 c 2
 90 568 l 2
 90 556 80 545 68 545 c 0
 56 545 45 556 45 568 c 2
 45 678 l 2
 45 690 34 700 22 700 c 0xaf80
292 588 m 0x9f80
 280 588 270 577 270 565 c 0
 270 553 280 542 292 542 c 0
 304 542 315 553 315 565 c 0
 315 577 304 588 292 588 c 0x9f80
248 500 m 0xcf80
 211 500 180 469 180 432 c 2
 180 68 l 2
 180 31 211 0 248 0 c 0
 285 0 315 31 315 68 c 2
 315 432 l 2
 315 469 285 500 248 500 c 0xcf80
248 455 m 0
 260 455 270 444 270 432 c 2
 270 68 l 2
 270 56 260 45 248 45 c 0
 236 45 225 56 225 68 c 2
 225 432 l 2
 225 444 236 455 248 455 c 0
EndSplineSet
Validated: 521
Ligature2: "'liga' Standard Ligatures in Latin lookup 0 subtable" l f 
EndChar

StartChar: "l_f_+APwA"
Encoding: 307 -1 155
Width: 360
VWidth: 824
Flags: W
HStem: 0 45<225.707 269.74> 500 45<45.008 89.9927 135.008 179.993> 545 45<270.007 314.992> 655 45<135.707 179.74>
VStem: 0 45<0.0072937 22 478 499.993 545.008 568 678 699.993> 90 45<0.0072937 22 478 499.993 545.008 568 632 653.595> 180 45<46.4053 68 478 499.993 545.008 568 632 653.595> 270 45<46.4053 68 478 499.993 545.008 589.993>
LayerCount: 2
Fore
SplineSet
22 700 m 0xdf
 10 700 0 690 0 678 c 2
 0 22 l 2
 0 10 10 0 22 0 c 0
 34 0 45 10 45 22 c 2
 45 478 l 2
 45 490 56 500 68 500 c 0
 80 500 90 490 90 478 c 2
 90 22 l 2
 90 10 100 0 112 0 c 0
 124 0 135 10 135 22 c 2
 135 478 l 2
 135 490 146 500 158 500 c 0
 170 500 180 510 180 522 c 0
 180 534 170 545 158 545 c 0xdf
 146 545 135 556 135 568 c 2
 135 632 l 2
 135 644 146 655 158 655 c 0
 170 655 180 644 180 632 c 2
 180 568 l 2
 180 556 190 545 202 545 c 0xbf
 214 545 225 556 225 568 c 2
 225 632 l 2
 225 669 195 700 158 700 c 0
 121 700 90 669 90 632 c 2
 90 568 l 2
 90 556 80 545 68 545 c 0
 56 545 45 556 45 568 c 2
 45 678 l 2
 45 690 34 700 22 700 c 0xdf
292 590 m 0xbf
 280 590 270 580 270 568 c 0
 270 556 280 545 292 545 c 0
 304 545 315 556 315 568 c 0
 315 580 304 590 292 590 c 0xbf
202 500 m 0xdf
 190 500 180 490 180 478 c 2
 180 68 l 2
 180 31 211 0 248 0 c 0
 285 0 315 31 315 68 c 2
 315 478 l 2
 315 490 304 500 292 500 c 0
 280 500 270 490 270 478 c 2
 270 68 l 2
 270 56 260 45 248 45 c 0
 236 45 225 56 225 68 c 2
 225 478 l 2
 225 490 214 500 202 500 c 0xdf
EndSplineSet
Validated: 521
Ligature2: "'liga' Standard Ligatures in Latin lookup 0 subtable" l f 
EndChar

StartChar: "l_f_+AOQA"
Encoding: 308 -1 156
Width: 360
VWidth: 824
Flags: W
HStem: 0 45<225.707 269.74> 228 44<226.405 269.971> 455 45<225.707 269.74> 500 45<45.008 89.9927 135.008 179.993> 545 45<270.007 314.992> 655 45<135.707 179.74>
VStem: 0 45<0.0072937 22 478 499.993 545.008 568 678 699.993> 90 45<0.0072937 22 478 499.993 545.008 568 632 653.595> 180 45<46.4053 68 205 226.488 365.008 388 432 453.595 545.008 568 632 653.595> 270 45<46.4053 68 205 227.992 272 295 432 453.595 545.008 589.993>
LayerCount: 2
Fore
SplineSet
22 700 m 0xd7c0
 10 700 0 690 0 678 c 2
 0 22 l 2
 0 10 10 0 22 0 c 0
 34 0 45 10 45 22 c 2
 45 478 l 2
 45 490 56 500 68 500 c 0
 80 500 90 490 90 478 c 2
 90 22 l 2
 90 10 100 0 112 0 c 0
 124 0 135 10 135 22 c 2
 135 478 l 2
 135 490 146 500 158 500 c 0
 170 500 180 510 180 522 c 0
 180 534 170 545 158 545 c 0xd7c0
 146 545 135 556 135 568 c 2
 135 632 l 2
 135 644 146 655 158 655 c 0
 170 655 180 644 180 632 c 2
 180 568 l 2
 180 556 190 545 202 545 c 0xcfc0
 214 545 225 556 225 568 c 2
 225 632 l 2
 225 669 195 700 158 700 c 0
 121 700 90 669 90 632 c 2
 90 568 l 2
 90 556 80 545 68 545 c 0
 56 545 45 556 45 568 c 2
 45 678 l 2
 45 690 34 700 22 700 c 0xd7c0
292 590 m 0xcfc0
 280 590 270 580 270 568 c 0
 270 556 280 545 292 545 c 0
 304 545 315 556 315 568 c 0
 315 580 304 590 292 590 c 0xcfc0
248 500 m 0xe7c0
 211 500 180 469 180 432 c 2
 180 388 l 2
 180 376 190 365 202 365 c 0
 214 365 225 376 225 388 c 2
 225 432 l 2
 225 444 236 455 248 455 c 0
 260 455 270 444 270 432 c 2
 270 295 l 2
 270 283 260 272 248 272 c 0
 211 272 180 242 180 205 c 2
 180 68 l 2
 180 31 211 0 248 0 c 0
 285 0 315 31 315 68 c 2
 315 432 l 2
 315 469 285 500 248 500 c 0xe7c0
248 228 m 0
 260 228 270 217 270 205 c 2
 270 68 l 2
 270 56 260 45 248 45 c 0
 236 45 225 56 225 68 c 2
 225 205 l 2
 225 217 236 228 248 228 c 0
EndSplineSet
Validated: 521
Ligature2: "'liga' Standard Ligatures in Latin lookup 0 subtable" l f 
EndChar

StartChar: "t_f_+APYA"
Encoding: 309 -1 157
Width: 360
VWidth: 824
Flags: W
HStem: 0 45<225.707 269.74> 455 45<225.707 269.74> 500 45<-44.992 -0.0072937 45.008 89.9927 135.008 179.993> 542 46<270.007 314.992> 655 45<135.707 179.74>
VStem: 0 45<0.0072937 22 478 499.993 545.008 568 678 699.993> 90 45<0.0072937 22 478 499.993 545.008 568 632 653.595> 180 45<46.4053 68 432 453.595 542.008 565 632 653.595> 270 45<46.4053 68 432 453.595 542.008 587.992>
LayerCount: 2
Fore
SplineSet
22 700 m 0xaf80
 10 700 0 690 0 678 c 2
 0 568 l 2
 0 556 -10 545 -22 545 c 0
 -34 545 -45 534 -45 522 c 0
 -45 510 -34 500 -22 500 c 0
 -10 500 0 490 0 478 c 2
 0 22 l 2
 0 10 10 0 22 0 c 0
 34 0 45 10 45 22 c 2
 45 478 l 2
 45 490 56 500 68 500 c 0
 80 500 90 490 90 478 c 2
 90 22 l 2
 90 10 100 0 112 0 c 0
 124 0 135 10 135 22 c 2
 135 478 l 2
 135 490 146 500 158 500 c 0
 170 500 180 510 180 522 c 0
 180 534 170 545 158 545 c 0xaf80
 146 545 135 556 135 568 c 2
 135 632 l 2
 135 644 146 655 158 655 c 0
 170 655 180 644 180 632 c 2
 180 565 l 2
 180 553 190 542 202 542 c 0x9f80
 214 542 225 553 225 565 c 2
 225 632 l 2
 225 669 195 700 158 700 c 0
 121 700 90 669 90 632 c 2
 90 568 l 2
 90 556 80 545 68 545 c 0
 56 545 45 556 45 568 c 2
 45 678 l 2
 45 690 34 700 22 700 c 0xaf80
292 588 m 0x9f80
 280 588 270 577 270 565 c 0
 270 553 280 542 292 542 c 0
 304 542 315 553 315 565 c 0
 315 577 304 588 292 588 c 0x9f80
248 500 m 0xcf80
 211 500 180 469 180 432 c 2
 180 68 l 2
 180 31 211 0 248 0 c 0
 285 0 315 31 315 68 c 2
 315 432 l 2
 315 469 285 500 248 500 c 0xcf80
248 455 m 0
 260 455 270 444 270 432 c 2
 270 68 l 2
 270 56 260 45 248 45 c 0
 236 45 225 56 225 68 c 2
 225 432 l 2
 225 444 236 455 248 455 c 0
EndSplineSet
Validated: 521
Ligature2: "'liga' Standard Ligatures in Latin lookup 0 subtable" t f 
EndChar

StartChar: "t_f_+APwA"
Encoding: 310 -1 158
Width: 360
VWidth: 824
Flags: W
HStem: 0 45<225.707 269.74> 500 45<-44.992 -0.0072937 45.008 89.9927 135.008 179.993> 545 45<270.007 314.992> 655 45<135.707 179.74>
VStem: 0 45<0.0072937 22 478 499.993 545.008 568 678 699.993> 90 45<0.0072937 22 478 499.993 545.008 568 632 653.595> 180 45<46.4053 68 478 499.993 545.008 568 632 653.595> 270 45<46.4053 68 478 499.993 545.008 589.993>
LayerCount: 2
Fore
SplineSet
22 700 m 0xdf
 10 700 0 690 0 678 c 2
 0 568 l 2
 0 556 -10 545 -22 545 c 0
 -34 545 -45 534 -45 522 c 0
 -45 510 -34 500 -22 500 c 0
 -10 500 0 490 0 478 c 2
 0 22 l 2
 0 10 10 0 22 0 c 0
 34 0 45 10 45 22 c 2
 45 478 l 2
 45 490 56 500 68 500 c 0
 80 500 90 490 90 478 c 2
 90 22 l 2
 90 10 100 0 112 0 c 0
 124 0 135 10 135 22 c 2
 135 478 l 2
 135 490 146 500 158 500 c 0
 170 500 180 510 180 522 c 0
 180 534 170 545 158 545 c 0xdf
 146 545 135 556 135 568 c 2
 135 632 l 2
 135 644 146 655 158 655 c 0
 170 655 180 644 180 632 c 2
 180 568 l 2
 180 556 190 545 202 545 c 0xbf
 214 545 225 556 225 568 c 2
 225 632 l 2
 225 669 195 700 158 700 c 0
 121 700 90 669 90 632 c 2
 90 568 l 2
 90 556 80 545 68 545 c 0
 56 545 45 556 45 568 c 2
 45 678 l 2
 45 690 34 700 22 700 c 0xdf
292 590 m 0xbf
 280 590 270 580 270 568 c 0
 270 556 280 545 292 545 c 0
 304 545 315 556 315 568 c 0
 315 580 304 590 292 590 c 0xbf
202 500 m 0xdf
 190 500 180 490 180 478 c 2
 180 68 l 2
 180 31 211 0 248 0 c 0
 285 0 315 31 315 68 c 2
 315 478 l 2
 315 490 304 500 292 500 c 0
 280 500 270 490 270 478 c 2
 270 68 l 2
 270 56 260 45 248 45 c 0
 236 45 225 56 225 68 c 2
 225 478 l 2
 225 490 214 500 202 500 c 0xdf
EndSplineSet
Validated: 521
Ligature2: "'liga' Standard Ligatures in Latin lookup 0 subtable" t f 
EndChar

StartChar: "t_f_+AOQA"
Encoding: 311 -1 159
Width: 360
VWidth: 824
Flags: W
HStem: 0 45<225.707 269.74> 228 44<226.405 269.971> 455 45<225.707 269.74> 500 45<-44.992 -0.0072937 45.008 89.9927 135.008 179.993> 545 45<270.007 314.992> 655 45<135.707 179.74>
VStem: 0 45<0.0072937 22 478 499.993 545.008 568 678 699.993> 90 45<0.0072937 22 478 499.993 545.008 568 632 653.595> 180 45<46.4053 68 205 226.488 365.008 388 432 453.595 545.008 568 632 653.595> 270 45<46.4053 68 205 227.992 272 295 432 453.595 545.008 589.993>
LayerCount: 2
Fore
SplineSet
22 700 m 0xd7c0
 10 700 0 690 0 678 c 2
 0 568 l 2
 0 556 -10 545 -22 545 c 0
 -34 545 -45 534 -45 522 c 0
 -45 510 -34 500 -22 500 c 0
 -10 500 0 490 0 478 c 2
 0 22 l 2
 0 10 10 0 22 0 c 0
 34 0 45 10 45 22 c 2
 45 478 l 2
 45 490 56 500 68 500 c 0
 80 500 90 490 90 478 c 2
 90 22 l 2
 90 10 100 0 112 0 c 0
 124 0 135 10 135 22 c 2
 135 478 l 2
 135 490 146 500 158 500 c 0
 170 500 180 510 180 522 c 0
 180 534 170 545 158 545 c 0xd7c0
 146 545 135 556 135 568 c 2
 135 632 l 2
 135 644 146 655 158 655 c 0
 170 655 180 644 180 632 c 2
 180 568 l 2
 180 556 190 545 202 545 c 0xcfc0
 214 545 225 556 225 568 c 2
 225 632 l 2
 225 669 195 700 158 700 c 0
 121 700 90 669 90 632 c 2
 90 568 l 2
 90 556 80 545 68 545 c 0
 56 545 45 556 45 568 c 2
 45 678 l 2
 45 690 34 700 22 700 c 0xd7c0
292 590 m 0xcfc0
 280 590 270 580 270 568 c 0
 270 556 280 545 292 545 c 0
 304 545 315 556 315 568 c 0
 315 580 304 590 292 590 c 0xcfc0
248 500 m 0xe7c0
 211 500 180 469 180 432 c 2
 180 388 l 2
 180 376 190 365 202 365 c 0
 214 365 225 376 225 388 c 2
 225 432 l 2
 225 444 236 455 248 455 c 0
 260 455 270 444 270 432 c 2
 270 295 l 2
 270 283 260 272 248 272 c 0
 211 272 180 242 180 205 c 2
 180 68 l 2
 180 31 211 0 248 0 c 0
 285 0 315 31 315 68 c 2
 315 432 l 2
 315 469 285 500 248 500 c 0xe7c0
248 228 m 0
 260 228 270 217 270 205 c 2
 270 68 l 2
 270 56 260 45 248 45 c 0
 236 45 225 56 225 68 c 2
 225 205 l 2
 225 217 236 228 248 228 c 0
EndSplineSet
Validated: 521
Ligature2: "'liga' Standard Ligatures in Latin lookup 0 subtable" t f 
EndChar

StartChar: "+AN8A"
Encoding: 223 223 160
Width: 180
VWidth: 824
Flags: W
HStem: 0 45<45.008 89.4877> 432 46<45 90> 655 45<45.7067 89.7402>
VStem: 0 45<-199.993 -178 -22 -0.0072937 45.008 68 410 431.993 478.007 500 632 653.595> 90 45<46.4053 68 410 431.993 478.007 500 632 653.595>
LayerCount: 2
Fore
SplineSet
68 700 m 0
 31 700 0 669 0 632 c 2
 0 -178 l 2
 0 -190 10 -200 22 -200 c 0
 34 -200 45 -190 45 -178 c 2
 45 -22 l 2
 45 -10 56 0 68 0 c 0
 105 0 135 31 135 68 c 2
 135 632 l 2
 135 669 105 700 68 700 c 0
68 655 m 0
 80 655 90 644 90 632 c 2
 90 500 l 2
 90 488 80 478 68 478 c 0
 56 478 45 488 45 500 c 2
 45 632 l 2
 45 644 56 655 68 655 c 0
68 432 m 0
 80 432 90 422 90 410 c 2
 90 68 l 2
 90 56 80 45 68 45 c 0
 56 45 45 56 45 68 c 2
 45 410 l 2
 45 422 56 432 68 432 c 0
EndSplineSet
Validated: 521
EndChar

StartChar: "t_+AN8A"
Encoding: 312 -1 161
Width: 270
VWidth: 824
Flags: W
HStem: 61 45<-721.488 -677.008> 493 45<-721.993 -677.008> 561 45<-631.993 -587.008 -541.993 -497.008> 716 45<-721.74 -677.707>
VStem: -767 45<106.512 492.993 538.008 714.595> -677 45<-138.993 60.992 106.007 492.993 538.008 560.992 606.007 714.595> -587 45<61.0073 560.992 606.007 760.992>
CounterMasks: 1 0e
LayerCount: 2
Fore
SplineSet
-565 761 m 0
 -553 761 -542 750 -542 738 c 2
 -542 628 l 2
 -542 616 -532 606 -520 606 c 0
 -508 606 -497 595 -497 583 c 0
 -497 571 -508 561 -520 561 c 0
 -532 561 -542 550 -542 538 c 2
 -542 83 l 2
 -542 71 -553 61 -565 61 c 0
 -577 61 -587 71 -587 83 c 2
 -587 538 l 2
 -587 550 -598 561 -610 561 c 0
 -622 561 -632 550 -632 538 c 2
 -632 -117 l 2
 -632 -129 -643 -139 -655 -139 c 0
 -667 -139 -677 -129 -677 -117 c 2
 -677 38 l 2
 -677 50 -688 61 -700 61 c 0
 -737 61 -767 91 -767 128 c 2
 -767 693 l 2
 -767 730 -737 761 -700 761 c 0
 -663 761 -632 730 -632 693 c 0
 -632 628 l 2
 -632 616 -622 606 -610 606 c 0
 -598 606 -587 616 -587 628 c 2
 -587 738 l 2
 -587 750 -577 761 -565 761 c 0
-700 716 m 0
 -712 716 -722 705 -722 693 c 2
 -722 561 l 2
 -722 549 -712 538 -700 538 c 0
 -688 538 -677 549 -677 561 c 2
 -677 693 l 2
 -677 705 -688 716 -700 716 c 0
-700 493 m 0
 -712 493 -722 483 -722 471 c 2
 -722 128 l 2
 -722 116 -712 106 -700 106 c 0
 -688 106 -677 116 -677 128 c 2
 -677 471 l 2
 -677 483 -688 493 -700 493 c 0
EndSplineSet
Validated: 513
Ligature2: "'liga' Standard Ligatures in Latin lookup 0 subtable" t 
EndChar

StartChar: "f_+AN8A"
Encoding: 313 -1 162
Width: 270
VWidth: 824
Flags: W
HStem: 0 45<135.008 179.488> 432 46<135 180> 500 45<-44.992 -0.0072937 45.008 89.9927> 655 45<46.4053 89.9927 135.008 179.488>
VStem: 0 45<0.0072937 22 478 499.993 545.008 568 632 653.595> 90 45<-199.993 -178 -22 -0.0072937 45.008 68 410 431.993 478.007 499.993 545.008 568 632 654.992> 180 45<46.4053 68 410 431.993 478.007 500 632 653.595>
CounterMasks: 1 0e
LayerCount: 2
Fore
SplineSet
68 700 m 2
 31 700 0 669 0 632 c 1
 0 568 l 2
 0 556 -10 545 -22 545 c 0
 -34 545 -45 534 -45 522 c 0
 -45 510 -34 500 -22 500 c 0
 -10 500 0 490 0 478 c 2
 0 22 l 2
 0 10 10 0 22 0 c 0
 34 0 45 10 45 22 c 2
 45 478 l 2
 45 490 56 500 68 500 c 0
 80 500 90 490 90 478 c 2
 90 -178 l 1
 90 -190 100 -200 112 -200 c 0
 124 -200 135 -190 135 -178 c 1
 135 -22 l 2
 135 -10 146 0 158 0 c 0
 195 0 225 31 225 68 c 2
 225 632 l 2
 225 669 195 700 158 700 c 1
 68 700 l 2
68 655 m 0
 80 655 90 644 90 632 c 2
 90 568 l 2
 90 556 80 545 68 545 c 0
 56 545 45 556 45 568 c 2
 45 632 l 2
 45 644 56 655 68 655 c 0
158 655 m 0
 170 655 180 644 180 632 c 2
 180 500 l 2
 180 488 170 478 158 478 c 0
 146 478 135 488 135 500 c 2
 135 632 l 2
 135 644 146 655 158 655 c 0
158 432 m 0
 170 432 180 422 180 410 c 2
 180 68 l 2
 180 56 170 45 158 45 c 0
 146 45 135 56 135 68 c 2
 135 410 l 2
 135 422 146 432 158 432 c 0
EndSplineSet
Validated: 521
Ligature2: "'liga' Standard Ligatures in Latin lookup 0 subtable" f 
EndChar

StartChar: "+AN8A_t"
Encoding: 314 -1 163
Width: 270
VWidth: 824
Flags: W
HStem: -0 45<45.008 89.4877> 432 46<45 90> 500 45<135.008 179.993 225.008 269.993> 655 45<45.7067 89.7402>
VStem: 0 45<-199.993 -178 -22 -0.0072937 45.008 68 410 431.993 478.007 500 632 653.595> 90 45<46.4053 68 410 431.993 478.007 499.993 545.008 568 632 653.595> 180 45<0.0072937 22 478 499.993 545.008 568 678 699.993>
CounterMasks: 1 0e
LayerCount: 2
Fore
SplineSet
68 700 m 0
 31 700 0 669 0 632 c 1
 0 -178 l 2
 0 -190 10 -200 22 -200 c 0
 34 -200 45 -190 45 -178 c 2
 45 -22 l 2
 45 -10 56 0 68 -0 c 0
 105 0 135 31 135 68 c 1
 135 478 l 2
 135 490 146 500 158 500 c 0
 170 500 180 490 180 478 c 2
 180 22 l 2
 180 10 190 0 202 -0 c 0
 214 0 225 10 225 22 c 2
 225 478 l 2
 225 490 236 500 248 500 c 0
 260 500 270 510 270 522 c 0
 270 534 260 545 248 545 c 0
 236 545 225 556 225 568 c 2
 225 678 l 2
 225 690 214 700 202 700 c 0
 190 700 180 690 180 678 c 2
 180 568 l 2
 180 556 170 545 158 545 c 0
 146 545 135 556 135 568 c 2
 135 632 l 2
 135 669 105 700 68 700 c 0
68 655 m 0
 80 655 90 644 90 632 c 2
 90 500 l 2
 90 488 80 478 68 478 c 0
 56 478 45 488 45 500 c 1
 45 632 l 2
 45 644 56 655 68 655 c 0
68 432 m 0
 80 432 90 422 90 410 c 2
 90 68 l 2
 90 56 80 45 68 45 c 0
 56 45 45 56 45 68 c 1
 45 410 l 2
 45 422 56 432 68 432 c 0
EndSplineSet
Validated: 521
Ligature2: "'liga' Standard Ligatures in Latin lookup 0 subtable"  t
EndChar

StartChar: "+AN8A_f"
Encoding: 315 -1 164
Width: 270
VWidth: 824
Flags: W
HStem: 0 45<45.008 89.4877> 432 46<45 90> 500 45<135.008 179.993 225.008 269.993> 655 45<45.7067 89.7402 225.707 269.74>
VStem: 0 45<-199.993 -178 -22 -0.0072937 45.008 68 410 431.993 478.007 500 632 653.595> 90 45<46.4053 68 410 431.993 478.007 499.993 545.008 568 632 653.595> 180 45<0.0072937 22 478 499.993 545.008 568 632 653.595> 270 45<565.008 588 632 653.595>
LayerCount: 2
Fore
SplineSet
68 700 m 0
 31 700 0 669 0 632 c 2
 0 -178 l 2
 0 -190 10 -200 22 -200 c 0
 34 -200 45 -190 45 -178 c 2
 45 -22 l 2
 45 -10 56 0 68 0 c 0
 105 0 135 31 135 68 c 2
 135 478 l 2
 135 490 146 500 158 500 c 0
 170 500 180 490 180 478 c 2
 180 22 l 2
 180 10 190 0 202 0 c 0
 214 0 225 10 225 22 c 2
 225 478 l 2
 225 490 236 500 248 500 c 0
 260 500 270 510 270 522 c 0
 270 534 260 545 248 545 c 0
 236 545 225 556 225 568 c 2
 225 632 l 2
 225 644 236 655 248 655 c 0
 260 655 270 644 270 632 c 2
 270 588 l 2
 270 576 280 565 292 565 c 0
 304 565 315 576 315 588 c 2
 315 632 l 2
 315 669 285 700 248 700 c 0
 211 700 180 669 180 632 c 2
 180 568 l 2
 180 556 170 545 158 545 c 0
 146 545 135 556 135 568 c 2
 135 632 l 2
 135 669 105 700 68 700 c 0
68 655 m 0
 80 655 90 644 90 632 c 2
 90 500 l 2
 90 488 80 478 68 478 c 0
 56 478 45 488 45 500 c 2
 45 632 l 2
 45 644 56 655 68 655 c 0
68 432 m 0
 80 432 90 422 90 410 c 2
 90 68 l 2
 90 56 80 45 68 45 c 0
 56 45 45 56 45 68 c 2
 45 410 l 2
 45 422 56 432 68 432 c 0
EndSplineSet
Validated: 521
Ligature2: "'liga' Standard Ligatures in Latin lookup 0 subtable"  f
EndChar

StartChar: t_t
Encoding: 316 -1 165
Width: 180
VWidth: 824
Flags: W
HStem: 500 45<-44.992 -0.0072937 45.008 89.9927 135.008 179.993>
VStem: 0 45<0.0072937 22 478 499.993 545.008 568 678 699.993> 90 45<0.0072937 22 478 499.993 545.008 568 678 699.993>
LayerCount: 2
Fore
SplineSet
22 700 m 0
 10 700 0 690 0 678 c 2
 0 568 l 2
 0 556 -10 545 -22 545 c 0
 -34 545 -45 534 -45 522 c 0
 -45 510 -34 500 -22 500 c 0
 -10 500 0 490 0 478 c 2
 0 22 l 2
 0 10 10 0 22 0 c 0
 34 0 45 10 45 22 c 2
 45 478 l 2
 45 490 56 500 68 500 c 0
 80 500 90 490 90 478 c 2
 90 22 l 2
 90 10 100 0 112 0 c 0
 124 0 135 10 135 22 c 2
 135 478 l 2
 135 490 146 500 158 500 c 0
 170 500 180 510 180 522 c 0
 180 534 170 545 158 545 c 0
 146 545 135 556 135 568 c 2
 135 678 l 2
 135 690 124 700 112 700 c 0
 100 700 90 690 90 678 c 2
 90 568 l 2
 90 556 80 545 68 545 c 0
 56 545 45 556 45 568 c 2
 45 678 l 2
 45 690 34 700 22 700 c 0
EndSplineSet
Validated: 9
Ligature2: "'liga' Standard Ligatures in Latin lookup 0 subtable" t t
EndChar

StartChar: "d_t_+AN8A"
Encoding: 317 -1 166
Width: 450
VWidth: 824
Flags: W
HStem: 0 45<45.7067 89.7402 315.008 359.488> 432 46<315 360> 455 45<46.4053 89.9927> 500 45<135.008 179.993 225.008 269.993> 655 45<315.707 359.74>
VStem: 0 45<46.4053 68 432 453.595> 90 45<46.4053 68 432 454.992 545.008 568 678 699.993> 180 45<0.0072937 22 478 499.993 545.008 568 678 699.993> 270 45<-199.993 -178 -22 -0.0072937 45.008 68 410 431.993 478.007 499.993 545.008 568 632 653.595> 360 45<46.4053 68 410 431.993 478.007 500 632 653.595>
LayerCount: 2
Fore
SplineSet
112 700 m 0xdfc0
 100 700 90 690 90 678 c 2
 90 522 l 2
 90 510 80 500 68 500 c 0xafc0
 31 500 0 469 0 432 c 2
 0 68 l 2
 0 31 31 0 68 0 c 0
 105 0 135 31 135 68 c 2
 135 478 l 2
 135 490 146 500 158 500 c 0
 170 500 180 490 180 478 c 2
 180 22 l 2
 180 10 190 0 202 0 c 0
 214 0 225 10 225 22 c 2
 225 478 l 2
 225 490 236 500 248 500 c 0
 260 500 270 490 270 478 c 2
 270 -178 l 2
 270 -190 280 -200 292 -200 c 0
 304 -200 315 -190 315 -178 c 2
 315 -22 l 2
 315 -10 326 0 338 0 c 0
 375 0 405 31 405 68 c 2
 405 632 l 2
 405 669 375 700 338 700 c 0
 301 700 270 669 270 632 c 2
 270 568 l 2
 270 556 260 545 248 545 c 0
 236 545 225 556 225 568 c 2
 225 678 l 2
 225 690 214 700 202 700 c 0
 190 700 180 690 180 678 c 2
 180 568 l 2
 180 556 170 545 158 545 c 0
 146 545 135 556 135 568 c 2
 135 678 l 2
 135 690 124 700 112 700 c 0xdfc0
338 655 m 0
 350 655 360 644 360 632 c 2
 360 500 l 2
 360 488 350 478 338 478 c 0
 326 478 315 488 315 500 c 2xdfc0
 315 632 l 2
 315 644 326 655 338 655 c 0
68 455 m 0xafc0
 80 455 90 444 90 432 c 2
 90 68 l 2
 90 56 80 45 68 45 c 0
 56 45 45 56 45 68 c 2
 45 432 l 2xcfc0
 45 444 56 455 68 455 c 0xafc0
338 432 m 0
 350 432 360 422 360 410 c 2
 360 68 l 2
 360 56 350 45 338 45 c 0
 326 45 315 56 315 68 c 2
 315 410 l 2
 315 422 326 432 338 432 c 0
EndSplineSet
Validated: 521
Ligature2: "'liga' Standard Ligatures in Latin lookup 0 subtable" d t 
EndChar

StartChar: "d_f_+AN8A"
Encoding: 318 -1 167
Width: 450
VWidth: 824
Flags: W
HStem: 0 45<45.7067 89.7402 315.008 359.488> 432 46<315 360> 455 45<46.4053 89.9927> 500 45<135.008 179.993 225.008 269.993> 655 45<226.405 269.993 315.008 359.488>
VStem: 0 45<46.4053 68 432 453.595> 90 45<46.4053 68 432 454.992 545.008 568 678 699.993> 180 45<0.0072937 22 478 499.993 545.008 568 632 653.595> 270 45<-199.993 -178 -22 -0.0072937 45.008 68 410 431.993 478.007 499.993 545.008 568 632 654.992> 360 45<46.4053 68 410 431.993 478.007 500 632 653.595>
LayerCount: 2
Fore
SplineSet
112 700 m 2xdfc0
 100 700 90 690 90 678 c 2
 90 522 l 2
 90 510 80 500 68 500 c 0xafc0
 31 500 0 469 0 432 c 2
 0 68 l 2
 0 31 31 0 68 0 c 0
 105 0 135 31 135 68 c 2
 135 478 l 2
 135 490 146 500 158 500 c 0
 170 500 180 490 180 478 c 2
 180 22 l 2
 180 10 190 0 202 0 c 0
 214 0 225 10 225 22 c 2
 225 478 l 2
 225 490 236 500 248 500 c 0
 260 500 270 490 270 478 c 2
 270 -178 l 1
 270 -190 280 -200 292 -200 c 0
 304 -200 315 -190 315 -178 c 1
 315 -22 l 2
 315 -10 326 0 338 0 c 0
 375 0 405 31 405 68 c 2
 405 632 l 2
 405 669 375 700 338 700 c 2
 248 700 l 2
 211 700 180 669 180 632 c 2
 180 568 l 2
 180 556 170 545 158 545 c 0
 146 545 135 556 135 568 c 2
 135 678 l 2
 135 690 124 700 112 700 c 2xdfc0
248 655 m 0
 260 655 270 644 270 632 c 2
 270 568 l 2
 270 556 260 545 248 545 c 0x9fc0
 236 545 225 556 225 568 c 2
 225 632 l 2
 225 644 236 655 248 655 c 0
338 655 m 0
 350 655 360 644 360 632 c 2
 360 500 l 2
 360 488 350 478 338 478 c 0xdfc0
 326 478 315 488 315 500 c 2
 315 632 l 2
 315 644 326 655 338 655 c 0
68 455 m 0xafc0
 80 455 90 444 90 432 c 2
 90 68 l 2
 90 56 80 45 68 45 c 0
 56 45 45 56 45 68 c 2
 45 432 l 2xcfc0
 45 444 56 455 68 455 c 0xafc0
338 432 m 0
 350 432 360 422 360 410 c 2
 360 68 l 2
 360 56 350 45 338 45 c 0
 326 45 315 56 315 68 c 2
 315 410 l 2
 315 422 326 432 338 432 c 0
EndSplineSet
Validated: 521
Ligature2: "'liga' Standard Ligatures in Latin lookup 0 subtable" d f 
EndChar

StartChar: d_t_t
Encoding: 319 -1 168
Width: 360
VWidth: 824
Flags: W
HStem: 0 45<45.7067 89.7402> 455 45<46.4053 89.9927> 500 45<135.008 179.993 225.008 269.993 315.008 359.993>
VStem: 0 45<46.4053 68 432 453.595> 90 45<46.4053 68 432 454.992 545.008 568 678 699.993> 180 45<0.0072937 22 478 499.993 545.008 568 678 699.993> 270 45<0.0072937 22 478 499.993 545.008 568 678 699.993>
LayerCount: 2
Fore
SplineSet
112 700 m 0xbe
 100 700 90 690 90 678 c 2
 90 522 l 2
 90 510 80 500 68 500 c 0xde
 31 500 0 469 0 432 c 2
 0 68 l 2
 0 31 31 0 68 0 c 0
 105 0 135 31 135 68 c 2
 135 478 l 2
 135 490 146 500 158 500 c 0
 170 500 180 490 180 478 c 2
 180 22 l 2
 180 10 190 0 202 0 c 0
 214 0 225 10 225 22 c 2
 225 478 l 2
 225 490 236 500 248 500 c 0
 260 500 270 490 270 478 c 2
 270 22 l 2
 270 10 280 0 292 0 c 0
 304 0 315 10 315 22 c 2
 315 478 l 2
 315 490 326 500 338 500 c 0
 350 500 360 510 360 522 c 0
 360 534 350 545 338 545 c 0
 326 545 315 556 315 568 c 2
 315 678 l 2
 315 690 304 700 292 700 c 0
 280 700 270 690 270 678 c 2
 270 568 l 2
 270 556 260 545 248 545 c 0
 236 545 225 556 225 568 c 2
 225 678 l 2
 225 690 214 700 202 700 c 0
 190 700 180 690 180 678 c 2
 180 568 l 2
 180 556 170 545 158 545 c 0
 146 545 135 556 135 568 c 2
 135 678 l 2
 135 690 124 700 112 700 c 0xbe
68 455 m 0
 80 455 90 444 90 432 c 2
 90 68 l 2
 90 56 80 45 68 45 c 0
 56 45 45 56 45 68 c 2
 45 432 l 2
 45 444 56 455 68 455 c 0
EndSplineSet
Validated: 9
Ligature2: "'liga' Standard Ligatures in Latin lookup 0 subtable" d t t
EndChar

StartChar: "+AN8A_t_t"
Encoding: 320 -1 169
Width: 360
VWidth: 824
Flags: W
HStem: 0 45<45.008 89.4877> 432 46<45 90> 500 45<135.008 179.993 225.008 269.993 315.008 359.993> 655 45<45.7067 89.7402>
VStem: 0 45<-199.993 -178 -22 -0.0072937 45.008 68 410 431.993 478.007 500 632 653.595> 90 45<46.4053 68 410 431.993 478.007 499.993 545.008 568 632 653.595> 180 45<0.0072937 22 478 499.993 545.008 568 678 699.993> 270 45<0.0072937 22 478 499.993 545.008 568 678 699.993>
LayerCount: 2
Fore
SplineSet
68 700 m 0
 31 700 0 669 0 632 c 2
 0 -178 l 2
 0 -190 10 -200 22 -200 c 0
 34 -200 45 -190 45 -178 c 2
 45 -22 l 2
 45 -10 56 0 68 0 c 0
 105 0 135 31 135 68 c 2
 135 478 l 2
 135 490 146 500 158 500 c 0
 170 500 180 490 180 478 c 2
 180 22 l 2
 180 10 190 0 202 0 c 0
 214 0 225 10 225 22 c 2
 225 478 l 2
 225 490 236 500 248 500 c 0
 260 500 270 490 270 478 c 2
 270 22 l 2
 270 10 280 0 292 0 c 0
 304 0 315 10 315 22 c 2
 315 478 l 2
 315 490 326 500 338 500 c 0
 350 500 360 510 360 522 c 0
 360 534 350 545 338 545 c 0
 326 545 315 556 315 568 c 2
 315 678 l 2
 315 690 304 700 292 700 c 0
 280 700 270 690 270 678 c 2
 270 568 l 2
 270 556 260 545 248 545 c 0
 236 545 225 556 225 568 c 2
 225 678 l 2
 225 690 214 700 202 700 c 0
 190 700 180 690 180 678 c 2
 180 568 l 2
 180 556 170 545 158 545 c 0
 146 545 135 556 135 568 c 2
 135 632 l 2
 135 669 105 700 68 700 c 0
68 655 m 0
 80 655 90 644 90 632 c 2
 90 500 l 2
 90 488 80 478 68 478 c 0
 56 478 45 488 45 500 c 2
 45 632 l 2
 45 644 56 655 68 655 c 0
68 432 m 0
 80 432 90 422 90 410 c 2
 90 68 l 2
 90 56 80 45 68 45 c 0
 56 45 45 56 45 68 c 2
 45 410 l 2
 45 422 56 432 68 432 c 0
EndSplineSet
Validated: 521
Ligature2: "'liga' Standard Ligatures in Latin lookup 0 subtable"  t t
EndChar

StartChar: l_t_t
Encoding: 321 -1 170
Width: 270
VWidth: 824
Flags: W
HStem: 500 45<45.008 89.9927 135.008 179.993 225.008 269.993>
VStem: 0 45<0.0072937 22 478 499.993 545.008 568 678 699.993> 90 45<0.0072937 22 478 499.993 545.008 568 678 699.993> 180 45<0.0072937 22 478 499.993 545.008 568 678 699.993>
CounterMasks: 1 70
LayerCount: 2
Fore
SplineSet
22 700 m 0
 10 700 0 690 0 678 c 2
 0 22 l 2
 0 10 10 0 22 0 c 0
 34 0 45 10 45 22 c 2
 45 478 l 2
 45 490 56 500 68 500 c 0
 80 500 90 490 90 478 c 2
 90 22 l 2
 90 10 100 0 112 0 c 0
 124 0 135 10 135 22 c 2
 135 478 l 2
 135 490 146 500 158 500 c 0
 170 500 180 490 180 478 c 2
 180 22 l 2
 180 10 190 0 202 0 c 0
 214 0 225 10 225 22 c 2
 225 478 l 2
 225 490 236 500 248 500 c 0
 260 500 270 510 270 522 c 0
 270 534 260 545 248 545 c 0
 236 545 225 556 225 568 c 2
 225 678 l 2
 225 690 214 700 202 700 c 0
 190 700 180 690 180 678 c 2
 180 568 l 2
 180 556 170 545 158 545 c 0
 146 545 135 556 135 568 c 2
 135 678 l 2
 135 690 124 700 112 700 c 0
 100 700 90 690 90 678 c 2
 90 568 l 2
 90 556 80 545 68 545 c 0
 56 545 45 556 45 568 c 2
 45 678 l 2
 45 690 34 700 22 700 c 0
EndSplineSet
Validated: 9
Ligature2: "'liga' Standard Ligatures in Latin lookup 0 subtable" l t t
EndChar

StartChar: "l_t_+AN8A"
Encoding: 322 -1 171
Width: 360
VWidth: 824
Flags: W
HStem: 0 45<225.008 269.488> 432 46<225 270> 500 45<45.008 89.9927 135.008 179.993> 655 45<225.707 269.74>
VStem: 0 45<0.0072937 22 478 499.993 545.008 568 678 699.993> 90 45<0.0072937 22 478 499.993 545.008 568 678 699.993> 180 45<-199.993 -178 -22 -0.0072937 45.008 68 410 431.993 478.007 499.993 545.008 568 632 653.595> 270 45<46.4053 68 410 431.993 478.007 500 632 653.595>
LayerCount: 2
Fore
SplineSet
22 700 m 0
 10 700 0 690 0 678 c 1
 0 22 l 2
 0 10 10 0 22 0 c 0
 34 0 45 10 45 22 c 2
 45 478 l 2
 45 490 56 500 68 500 c 0
 80 500 90 490 90 478 c 1
 90 22 l 2
 90 10 100 0 112 0 c 0
 124 0 135 10 135 22 c 2
 135 478 l 2
 135 490 146 500 158 500 c 0
 170 500 180 490 180 478 c 2
 180 -178 l 2
 180 -190 190 -200 202 -200 c 0
 214 -200 225 -190 225 -178 c 2
 225 -22 l 2
 225 -10 236 0 248 0 c 0
 285 0 315 31 315 68 c 2
 315 632 l 2
 315 669 285 700 248 700 c 0
 211 700 180 669 180 632 c 1
 180 568 l 2
 180 556 170 545 158 545 c 0
 146 545 135 556 135 568 c 2
 135 678 l 2
 135 690 124 700 112 700 c 0
 100 700 90 690 90 678 c 1
 90 568 l 2
 90 556 80 545 68 545 c 0
 56 545 45 556 45 568 c 2
 45 678 l 2
 45 690 34 700 22 700 c 0
248 655 m 0
 260 655 270 644 270 632 c 2
 270 500 l 2
 270 488 260 478 248 478 c 0
 236 478 225 488 225 500 c 2
 225 632 l 2
 225 644 236 655 248 655 c 0
248 432 m 0
 260 432 270 422 270 410 c 2
 270 68 l 2
 270 56 260 45 248 45 c 0
 236 45 225 56 225 68 c 2
 225 410 l 2
 225 422 236 432 248 432 c 0
EndSplineSet
Validated: 521
Ligature2: "'liga' Standard Ligatures in Latin lookup 0 subtable" l t 
EndChar

StartChar: "l_f_+AN8A"
Encoding: 323 -1 172
Width: 450
VWidth: 824
Flags: W
HStem: 0 45<45.7067 89.7402 315.008 359.488> 432 46<315 359.993> 455 45<46.4053 89.9927> 500 45<135.008 179.993 225.008 269.993> 655 45<226.405 269.993 315.008 359.488>
VStem: 0 45<46.4053 68 432 453.595> 90 45<46.4053 68 432 454.992 545.008 568 678 699.993> 180 45<0.0072937 22 478 499.993 545.008 568 632 653.595> 270 45<-199.993 -178 -22 -0.0072937 45.008 68 410 431.993 478.007 499.993 545.008 568 632 654.992> 360 45<46.4053 68 632 653.595>
LayerCount: 2
Fore
SplineSet
112 700 m 0xdfc0
 100 700 90 690 90 678 c 2
 90 522 l 2
 90 510 80 500 68 500 c 0xafc0
 31 500 0 469 0 432 c 2
 0 68 l 2
 0 31 31 0 68 0 c 0
 105 0 135 31 135 68 c 2
 135 478 l 2
 135 490 146 500 158 500 c 0
 170 500 180 490 180 478 c 2
 180 22 l 2
 180 10 190 0 202 0 c 0
 214 0 225 10 225 22 c 2
 225 478 l 2
 225 490 236 500 248 500 c 0
 260 500 270 490 270 478 c 2
 270 -178 l 1
 270 -190 281 -200 293 -200 c 0
 305 -200 315 -190 315 -178 c 1
 315 -177 l 0
 315 -22 l 2
 315 -10 326 0 338 0 c 0
 375 0 405 31 405 68 c 1
 405 632 l 1
 405 669 375 700 338 700 c 1
 248 700 l 2
 211 700 180 669 180 632 c 2
 180 568 l 2
 180 556 170 545 158 545 c 0
 146 545 135 556 135 568 c 2
 135 678 l 2
 135 690 124 700 112 700 c 0xdfc0
248 655 m 0
 260 655 270 644 270 632 c 2
 270 568 l 2
 270 556 260 545 248 545 c 0x9fc0
 236 545 225 556 225 568 c 2
 225 632 l 2
 225 644 236 655 248 655 c 0
338 655 m 2
 350 655 360 644 360 632 c 1
 360 68 l 1
 360 56 350 45 338 45 c 0
 326 45 315 56 315 68 c 2
 315 410 l 2
 315 422 326 432 338 432 c 0
 350 432 360 422 360 410 c 1
 360 432 l 1
 360 478 l 1
 360 500 l 1
 360 488 350 478 338 478 c 0xdfc0
 326 478 315 488 315 500 c 2
 315 632 l 2
 315 644 326 655 338 655 c 2
68 455 m 0xafc0
 80 455 90 444 90 432 c 2
 90 68 l 2
 90 56 80 45 68 45 c 0
 56 45 45 56 45 68 c 2
 45 432 l 2xcfc0
 45 444 56 455 68 455 c 0xafc0
EndSplineSet
Validated: 517
Ligature2: "'liga' Standard Ligatures in Latin lookup 0 subtable" l f 
EndChar

StartChar: t_t_b
Encoding: 324 -1 173
Width: 360
VWidth: 824
Flags: W
HStem: 0 45<225.707 269.74> 455 45<225.008 269.488> 500 45<-44.992 -2.99992e-07 45.008 90 135.008 179.993>
VStem: 0 45<0.0072937 22 478 500 545 567 678 699.993> 90 45<0.0072937 22 478 499.993 545.007 567 678 699.993> 180 45<46.4053 68 432 454.992 545.008 568 678 699.993> 270 45<46.4053 68 432 453.595>
LayerCount: 2
Fore
SplineSet
22 700 m 0xbe
 10 700 0 690 0 678 c 2
 0 567 l 2
 0 555 -10 545 -22 545 c 0
 -34 545 -45 534 -45 522 c 0
 -45 510 -34 500 -22 500 c 0
 -10 500 0 490 0 478 c 1
 0 22 l 2
 0 10 10 0 22 0 c 0
 34 0 45 10 45 22 c 2
 45 678 l 2
 45 690 34 700 22 700 c 0xbe
112 700 m 0
 100 700 90 690 90 678 c 2
 90 567 l 2
 90 555 80 545 68 545 c 0
 56 545 45 556 45 568 c 1
 45 545 l 1
 45 500 l 1
 45 478 l 1
 45 490 56 500 68 500 c 0
 80 500 90 490 90 478 c 1
 90 22 l 2
 90 10 100 0 112 0 c 0
 124 0 135 10 135 22 c 2
 135 678 l 2
 135 690 124 700 112 700 c 0
203 700 m 0
 191 700 180 690 180 678 c 2
 180 568 l 2
 180 556 170 545 158 545 c 0
 146 545 135 556 135 568 c 1
 135 545 l 1
 135 500 l 1
 135 478 l 1
 135 490 146 500 158 500 c 0xbe
 170 500 180 490 180 478 c 2
 180 68 l 2
 180 31 211 0 248 0 c 0
 285 0 315 31 315 68 c 2
 315 432 l 2
 315 469 285 500 248 500 c 0xde
 236 500 225 510 225 522 c 2
 225 678 l 2
 225 690 215 700 203 700 c 0
248 455 m 0xde
 260 455 270 444 270 432 c 2
 270 68 l 2
 270 56 260 45 248 45 c 0
 236 45 225 56 225 68 c 2
 225 432 l 2
 225 444 236 455 248 455 c 0xde
EndSplineSet
Validated: 5
Ligature2: "'liga' Standard Ligatures in Latin lookup 0 subtable" t t b
EndChar

StartChar: t_t_h
Encoding: 325 -1 174
Width: 360
VWidth: 824
Flags: W
HStem: 455 45<225.008 269.488> 500 45<-44.992 -0.0072937 45.008 89.9927 135.008 179.993>
VStem: 0 45<0.0072937 22 478 499.993 545.008 568 678 699.993> 90 45<0.0072937 22 478 499.993 545.008 568 678 699.993> 180 45<0.0072937 22 432 454.992 545.008 568 678 699.993> 270 45<0.0072937 22 432 453.595>
LayerCount: 2
Fore
SplineSet
22 700 m 0x7c
 10 700 0 690 0 678 c 1
 0 568 l 2
 0 556 -10 545 -22 545 c 0
 -34 545 -45 534 -45 522 c 0
 -45 510 -34 500 -22 500 c 0
 -10 500 0 490 0 478 c 2
 0 22 l 2
 0 10 10 0 22 0 c 0
 34 0 45 10 45 22 c 2
 45 478 l 2
 45 490 56 500 68 500 c 0
 80 500 90 490 90 478 c 2
 90 22 l 2
 90 10 100 0 112 0 c 0
 124 0 135 10 135 22 c 2
 135 478 l 2
 135 490 146 500 158 500 c 0x7c
 170 500 180 490 180 478 c 2
 180 22 l 2
 180 10 190 0 202 0 c 0
 214 0 225 10 225 22 c 2
 225 432 l 2
 225 444 236 455 248 455 c 0
 260 455 270 444 270 432 c 2
 270 22 l 2
 270 10 280 0 292 0 c 0
 304 0 315 10 315 22 c 2
 315 432 l 2
 315 469 285 500 248 500 c 0xbc
 236 500 225 510 225 522 c 2
 225 678 l 2
 225 690 214 700 202 700 c 0
 190 700 180 690 180 678 c 2
 180 568 l 2
 180 556 170 545 158 545 c 0
 146 545 135 556 135 568 c 2
 135 678 l 2
 135 690 124 700 112 700 c 0
 100 700 90 690 90 678 c 1
 90 568 l 2
 90 556 80 545 68 545 c 0
 56 545 45 556 45 568 c 2
 45 678 l 2
 45 690 34 700 22 700 c 0x7c
EndSplineSet
Validated: 9
Ligature2: "'liga' Standard Ligatures in Latin lookup 0 subtable" t t h
EndChar

StartChar: t_t_k
Encoding: 326 -1 175
Width: 360
VWidth: 824
Flags: W
HStem: 228 44<225.032 269.488> 318 44<225.032 269.488> 500 45<-44.992 -2.99992e-07 45.008 90 135.008 180>
VStem: 0 45<0.0072937 22 478 500 545 567 678 699.993> 90 45<0.0072937 22 478 499.993 545.007 567 678 699.993> 180 45<0.0072937 22 205 227.992 272.008 317.992 362.008 385 478 499.993 545.007 567 678 699.993> 270 45<0.0072937 22 205 226.488 363.512 385 478 499.993>
LayerCount: 2
Fore
SplineSet
22 700 m 0
 10 700 0 690 0 678 c 2
 0 567 l 2
 0 555 -10 545 -22 545 c 0
 -34 545 -45 534 -45 522 c 0
 -45 510 -34 500 -22 500 c 0
 -10 500 0 490 0 478 c 1
 0 22 l 2
 0 10 10 0 22 0 c 0
 34 0 45 10 45 22 c 2
 45 678 l 2
 45 690 34 700 22 700 c 0
112 700 m 0
 100 700 90 690 90 678 c 2
 90 567 l 2
 90 555 80 545 68 545 c 0
 56 545 45 556 45 568 c 1
 45 545 l 1
 45 500 l 1
 45 478 l 1
 45 490 56 500 68 500 c 0
 80 500 90 490 90 478 c 1
 90 22 l 2
 90 10 100 0 112 0 c 0
 124 0 135 10 135 22 c 2
 135 678 l 2
 135 690 124 700 112 700 c 0
202 700 m 0
 190 700 180 690 180 678 c 2
 180 567 l 2
 180 555 170 545 158 545 c 0
 146 545 135 556 135 568 c 1
 135 545 l 1
 135 500 l 1
 135 478 l 1
 135 490 146 500 158 500 c 0
 170 500 180 490 180 478 c 1
 180 22 l 2
 180 10 190 0 202 0 c 0
 214 0 225 10 225 22 c 2
 225 205 l 2
 225 217 236 228 248 228 c 0
 260 228 270 217 270 205 c 2
 270 22 l 2
 270 10 280 0 292 0 c 0
 304 0 315 10 315 22 c 2
 315 205 l 2
 315 242 285 272 248 272 c 0
 236 272 225 283 225 295 c 0
 225 307 236 318 248 318 c 0
 285 318 315 348 315 385 c 2
 315 478 l 2
 315 490 304 500 292 500 c 0
 280 500 270 490 270 478 c 2
 270 385 l 2
 270 373 260 362 248 362 c 0
 236 362 225 373 225 385 c 2
 225 678 l 2
 225 690 214 700 202 700 c 0
EndSplineSet
Validated: 5
Ligature2: "'liga' Standard Ligatures in Latin lookup 0 subtable" t t k
EndChar

StartChar: t_t_l
Encoding: 327 -1 176
Width: 270
VWidth: 824
Flags: W
HStem: 500 45<-44.992 -0.0072937 45.008 89.9927 135.008 179.993>
VStem: 0 45<0.0072937 22 478 499.993 545.008 568 678 699.993> 90 45<0.0072937 22 478 499.993 545.008 568 678 699.993> 180 45<0.0072937 22 478 499.993 545.008 568 678 699.993>
CounterMasks: 1 70
LayerCount: 2
Fore
SplineSet
22 700 m 0
 10 700 0 690 0 678 c 1
 0 568 l 2
 0 556 -10 545 -22 545 c 0
 -34 545 -45 534 -45 522 c 0
 -45 510 -34 500 -22 500 c 0
 -10 500 0 490 0 478 c 1
 0 22 l 2
 0 10 10 0 22 0 c 0
 34 0 45 10 45 22 c 2
 45 478 l 2
 45 490 56 500 68 500 c 0
 80 500 90 490 90 478 c 2
 90 22 l 2
 90 10 100 0 112 0 c 0
 124 0 135 10 135 22 c 2
 135 478 l 2
 135 490 146 500 158 500 c 0
 170 500 180 490 180 478 c 2
 180 22 l 2
 180 10 190 0 202 0 c 0
 214 0 225 10 225 22 c 2
 225 678 l 2
 225 690 214 700 202 700 c 0
 190 700 180 690 180 678 c 2
 180 568 l 2
 180 556 170 545 158 545 c 0
 146 545 135 556 135 568 c 2
 135 678 l 2
 135 690 124 700 112 700 c 0
 100 700 90 690 90 678 c 2
 90 568 l 2
 90 556 80 545 68 545 c 0
 56 545 45 556 45 568 c 2
 45 678 l 2
 45 690 34 700 22 700 c 0
EndSplineSet
Validated: 9
Ligature2: "'liga' Standard Ligatures in Latin lookup 0 subtable" t t l
EndChar

StartChar: t_f_l
Encoding: 328 -1 177
Width: 270
VWidth: 824
Flags: W
HStem: 500 45<-44.992 -0.0072937 45.008 89.9927 135.008 179.993> 655 45<135.707 179.74>
VStem: 0 45<0.0072937 22 478 499.993 545.008 568 678 699.993> 90 45<0.0072937 22 478 499.993 545.008 568 632 653.595> 180 45<0.0072937 22 478 499.993 545.008 568 632 653.595>
CounterMasks: 1 38
LayerCount: 2
Fore
SplineSet
22 700 m 0
 10 700 0 690 0 678 c 2
 0 568 l 2
 0 556 -10 545 -22 545 c 0
 -34 545 -45 534 -45 522 c 0
 -45 510 -34 500 -22 500 c 0
 -10 500 0 490 0 478 c 2
 0 22 l 2
 0 10 10 0 22 0 c 0
 34 0 45 10 45 22 c 2
 45 478 l 2
 45 490 56 500 68 500 c 0
 80 500 90 490 90 478 c 2
 90 22 l 2
 90 10 100 0 112 0 c 0
 124 0 135 10 135 22 c 2
 135 478 l 2
 135 490 146 500 158 500 c 0
 170 500 180 490 180 478 c 2
 180 22 l 2
 180 10 190 0 202 0 c 0
 214 0 225 10 225 22 c 2
 225 632 l 2
 225 669 195 700 158 700 c 0
 121 700 90 669 90 632 c 2
 90 568 l 2
 90 556 80 545 68 545 c 0
 56 545 45 556 45 568 c 2
 45 678 l 2
 45 690 34 700 22 700 c 0
158 655 m 0
 170 655 180 644 180 632 c 2
 180 568 l 2
 180 556 170 545 158 545 c 0
 146 545 135 556 135 568 c 2
 135 632 l 2
 135 644 146 655 158 655 c 0
EndSplineSet
Validated: 9
Ligature2: "'liga' Standard Ligatures in Latin lookup 0 subtable" t f l
EndChar

